<svg xmlns="http://www.w3.org/2000/svg" xmlns:xlink="http://www.w3.org/1999/xlink" viewBox="0 0 200 63.46"><defs><style>.cls-1{fill:url(#linear-gradient);}</style><linearGradient id="linear-gradient" x1="-20.94" y1="17.91" x2="99.37" y2="50.35" gradientUnits="userSpaceOnUse"><stop offset="0" stop-color="#00e5ff"/><stop offset="1" stop-color="#4676e0"/></linearGradient></defs><title>Asset 3</title><g id="Layer_2" data-name="Layer 2"><g id="Layer_1-2" data-name="Layer 1"><path d="M76.7,17.79a2.06,2.06,0,0,1,2-2.06H92.23c4.43,0,8,1.34,10.26,3.61a10,10,0,0,1,2.79,7.12v.1c0,5.94-4,9.39-9.65,10.48l9,11.55a2.24,2.24,0,0,1,.67,1.5,2.13,2.13,0,0,1-2.06,2A2.36,2.36,0,0,1,101.31,51L91.14,37.81H80.77V50a2,2,0,1,1-4.07,0ZM91.86,34.15c5.42,0,9.29-2.79,9.29-7.43v-.1c0-4.44-3.4-7.12-9.23-7.12H80.77V34.15Z"/><path d="M111.78,49.16l14.65-32a2.67,2.67,0,0,1,2.58-1.8h.21a2.59,2.59,0,0,1,2.52,1.8l14.66,32a2.81,2.81,0,0,1,.25,1,2,2,0,0,1-2,2,2.22,2.22,0,0,1-2-1.5l-3.76-8.3H119.11l-3.77,8.41a2,2,0,0,1-2,1.39,1.85,1.85,0,0,1-1.86-1.86A2.29,2.29,0,0,1,111.78,49.16Zm25.54-10.57L129,20.12l-8.3,18.47Z"/><path d="M154.81,17.54a2,2,0,1,1,4.07,0V50a2,2,0,1,1-4.07,0Z"/><path d="M169.46,17.59a2,2,0,0,1,2-2H172a2.49,2.49,0,0,1,2.06,1.18l21.93,28V17.49a2,2,0,1,1,4,0v32.6A1.83,1.83,0,0,1,198.14,52h-.2a2.81,2.81,0,0,1-2.12-1.24L173.43,22.13v28a2,2,0,1,1-4,0Z"/><path class="cls-1" d="M29.23,13.12l.1.33a4.14,4.14,0,0,1-2.77,5.14l-.33.1a4.07,4.07,0,0,1-2.74-.14L7.92,38.41a3.94,3.94,0,0,1,.49,1.06l.1.33a4.13,4.13,0,0,1-2.76,5.14l-.33.1A4.14,4.14,0,0,1,.27,42.27l-.1-.33A4.15,4.15,0,0,1,2.94,36.8l.33-.1a4.08,4.08,0,0,1,2.47,0l15.68-20a4.34,4.34,0,0,1-.33-.8l-.1-.33a4.14,4.14,0,0,1,2.77-5.14l.33-.1A4.14,4.14,0,0,1,29.23,13.12ZM27.58,30.29l-.33.1a4.14,4.14,0,0,0-2.77,5.14l.1.33a4.34,4.34,0,0,0,.33.8L10.52,55a4.15,4.15,0,0,0-2.47,0l-.33.1A4.13,4.13,0,0,0,5,60.19l.1.33a4.14,4.14,0,0,0,5.14,2.77l.33-.1A4.16,4.16,0,0,0,13.3,58l-.1-.33a4.59,4.59,0,0,0-.49-1.05L27,38.49a4.07,4.07,0,0,0,2.74.14l.33-.1a4.14,4.14,0,0,0,2.77-5.14l-.1-.33A4.14,4.14,0,0,0,27.58,30.29ZM50.44.17l-.33.1a4.16,4.16,0,0,0-2.77,5.15l.1.33a4.28,4.28,0,0,0,.34.79L38.24,18.69a4.08,4.08,0,0,0-2.47,0l-.33.1a4.13,4.13,0,0,0-2.76,5.14l.09.33A4.15,4.15,0,0,0,37.92,27l.33-.1A4.13,4.13,0,0,0,41,21.75l-.09-.33a4.3,4.3,0,0,0-.5-1.06l9.42-12a4.17,4.17,0,0,0,2.75.13l.33-.1a4.13,4.13,0,0,0,2.76-5.14l-.1-.33A4.14,4.14,0,0,0,50.44.17Zm4.47,18h0A4.32,4.32,0,0,0,52,23.52l0,.17a4,4,0,0,0,.33.79L39.87,40.6a.16.16,0,0,1-.18.06,4.12,4.12,0,0,0-2.36,0l-.16.05a4.32,4.32,0,0,0-2.89,5.36h0A4.32,4.32,0,0,0,39.64,49h0a4.31,4.31,0,0,0,2.88-5.36l-.05-.16A3.81,3.81,0,0,0,42,42.37l12.42-16a.19.19,0,0,1,.19-.05,4.07,4.07,0,0,0,2.63.09l.17-.05a4.31,4.31,0,0,0,2.88-5.35h0A4.32,4.32,0,0,0,54.91,18.16Z"/></g></g></svg>