<svg xmlns="http://www.w3.org/2000/svg" xmlns:xlink="http://www.w3.org/1999/xlink" viewBox="0 0 159.81 86.01"><defs><style>.cls-1{isolation:isolate;}.cls-2{fill:#21dfe8;}.cls-2,.cls-3{stroke:#21dfe8;stroke-width:0.72px;}.cls-12,.cls-2,.cls-3{stroke-miterlimit:10;}.cls-3{fill:#48ecff;}.cls-4{fill:#3805d6;}.cls-5{fill:#4906ef;}.cls-6{fill:#5a00ff;}.cls-7{opacity:0.35;mix-blend-mode:multiply;}.cls-8{fill:url(#linear-gradient);}.cls-13,.cls-9{fill:#fff;}.cls-9{opacity:0.32;}.cls-10{fill:#2e00bf;}.cls-11{opacity:0.1;}.cls-12{fill:none;stroke:#fff;stroke-width:0.59px;}</style><linearGradient id="linear-gradient" x1="92.02" y1="4.65" x2="34.88" y2="103.62" gradientUnits="userSpaceOnUse"><stop offset="0" stop-color="#fff" stop-opacity="0"/><stop offset="1" stop-color="#f7931e"/></linearGradient></defs><title>Asset 2</title><g class="cls-1"><g id="Layer_2" data-name="Layer 2"><g id="Layer_1-2" data-name="Layer 1"><path class="cls-2" d="M156.56,64.05c0,1.3-2.32,2.45-6.09,3.31a72,72,0,0,1-15,1.4,72,72,0,0,1-15-1.4c-3.76-.86-6.09-2-6.09-3.31,0-2.59,9.45-4.7,21.11-4.7S156.56,61.46,156.56,64.05Z"/><path class="cls-3" d="M156.56,64.05v6.61c0,2.6-9.45,4.7-21.11,4.7s-21.11-2.1-21.11-4.7V64.05c0,1.3,2.33,2.45,6.09,3.31a72,72,0,0,0,15,1.4,72,72,0,0,0,15-1.4C154.24,66.5,156.56,65.35,156.56,64.05Z"/><path class="cls-3" d="M156.56,70.61v6.61c0,2.6-9.45,4.7-21.11,4.7s-21.11-2.1-21.11-4.7V70.61c0,1.3,2.33,2.45,6.09,3.31a72.07,72.07,0,0,0,15,1.39,72.07,72.07,0,0,0,15-1.39C154.24,73.06,156.56,71.91,156.56,70.61Z"/><path class="cls-2" d="M159.45,57.3c0,1.3-2.32,2.46-6.09,3.31a72,72,0,0,1-15,1.4,72,72,0,0,1-15-1.4c-3.77-.85-6.09-2-6.09-3.31,0-2.59,9.45-4.7,21.11-4.7S159.45,54.71,159.45,57.3Z"/><path class="cls-3" d="M159.45,57.3v6.62c0,2.59-9.45,4.69-21.1,4.69s-21.11-2.1-21.11-4.69V57.3c0,1.3,2.32,2.46,6.09,3.31a72,72,0,0,0,15,1.4,72,72,0,0,0,15-1.4C157.13,59.76,159.45,58.6,159.45,57.3Z"/><path class="cls-2" d="M156.56,44c0,1.3-2.32,2.45-6.09,3.31a72.07,72.07,0,0,1-15,1.39,72.07,72.07,0,0,1-15-1.39c-3.76-.86-6.09-2-6.09-3.31,0-2.59,9.45-4.7,21.11-4.7S156.56,41.38,156.56,44Z"/><path class="cls-3" d="M156.56,44v6.61c0,2.6-9.45,4.7-21.11,4.7s-21.11-2.1-21.11-4.7V44c0,1.3,2.33,2.45,6.09,3.31a72.07,72.07,0,0,0,15,1.39,72.07,72.07,0,0,0,15-1.39C154.24,46.42,156.56,45.27,156.56,44Z"/><path class="cls-2" d="M156.56,37.37c0,1.29-2.32,2.45-6.09,3.3a71.32,71.32,0,0,1-15,1.4,71.32,71.32,0,0,1-15-1.4c-3.76-.85-6.09-2-6.09-3.3,0-2.6,9.45-4.71,21.11-4.71S156.56,34.77,156.56,37.37Z"/><path class="cls-3" d="M156.56,37.37V44c0,2.59-9.45,4.69-21.11,4.69s-21.11-2.1-21.11-4.69V37.37c0,1.29,2.33,2.45,6.09,3.3a71.32,71.32,0,0,0,15,1.4,71.32,71.32,0,0,0,15-1.4C154.24,39.82,156.56,38.66,156.56,37.37Z"/><path class="cls-3" d="M156.56,50.53v6.61c0,2.59-9.45,4.7-21.11,4.7s-21.11-2.11-21.11-4.7V50.53c0,1.29,2.33,2.45,6.09,3.3a71.32,71.32,0,0,0,15,1.4,71.32,71.32,0,0,0,15-1.4C154.24,53,156.56,51.82,156.56,50.53Z"/><path class="cls-4" d="M120.11,42l0,5.78,0,15.45-4.67,2.12L80.42,81.23h0l-6.71,3.06-3.42,1.56H67L8.16,85.62l-5-11L.05,67.77l0-4.71.25-.66L4.76,51.16v0L9.3,39.68l4.81-2.17h0l6.35-2.9L45.65,23.18,52,20.31l3.85-1.76L95.68.45A5.07,5.07,0,0,1,102.38,3l2.32,5.1,4.85,10.69,2.14,4.72,3.8,8.36v0l1.83,4Z"/><path class="cls-5" d="M120.09,47.79l0,15.45,0,10.31-4.67,1.08L86.81,81.26h0l-13.08,3L67,85.84,8.16,85.62H5.71l-2.55-11L.32,62.4.07,61.31l0-11.77L4.8,42.29l3.06-4.72.9-1.39v0l4.45-6.85,4.34-1,2.82-.66L39.7,23.16h0L52,20.31l7.49-1.74L104.7,8.06l.93-.21a5,5,0,0,1,6.06,3.78l1.66,7.13L115,25.7v0l.55,2.33,1.81,7.8Z"/><path class="cls-6" d="M120.18,23.84,120.11,42l0,5.78,0,15.45,0,10.31L120,81a5.06,5.06,0,0,1-5.07,5l-44.63-.16H67L8.16,85.62H5a5.05,5.05,0,0,1-5-5.08L.05,67.77l0-4.71V61.31l0-11.77,0-11.84,0,0L20.26,18.43l35.55.12,3.64,0,50.1.18h5.59A5.06,5.06,0,0,1,120.18,23.84Z"/><g class="cls-7"><path class="cls-8" d="M120.18,23.84,120.11,42l0,5.78,0,15.45,0,10.31L120,81a5.06,5.06,0,0,1-5.07,5l-44.63-.16H67L8.16,85.62H5a5.05,5.05,0,0,1-5-5.08L.05,67.77l0-4.71V61.31l0-11.77,0-11.84,0,0L20.26,18.43l35.55.12,3.64,0,50.1.18h5.59A5.06,5.06,0,0,1,120.18,23.84Z"/></g><path class="cls-9" d="M81.75,51.18H74a14,14,0,0,0-27.91,0H38.42a1,1,0,0,0,0,2.08h7.71a14,14,0,0,0,27.91,0h7.71a1,1,0,1,0,0-2.08Z"/><path class="cls-10" d="M.18,37.66l18.55-.21a1.52,1.52,0,0,0,1.76-1.55l-.22-17.47Z"/><g class="cls-11"><path class="cls-12" d="M4.81,37.66l-.14,39A4.52,4.52,0,0,0,9.31,81l101.33.33A4.52,4.52,0,0,0,115.32,77l.18-49.24a4.52,4.52,0,0,0-4.64-4.37L20.32,23.1"/></g><path class="cls-13" d="M63.63,48a.32.32,0,0,1,.2.33c0,.28,0,.56,0,.84a.22.22,0,0,1-.2.21h-2l0,.08a2.81,2.81,0,0,1,.46,1c0,.08.06.1.14.1h1.25c.24,0,.33.09.33.33v.73c0,.24-.09.33-.32.33H62.27c-.08,0-.11,0-.12.1a3.11,3.11,0,0,1-.84,1.65,3.51,3.51,0,0,1-1.24.81,5,5,0,0,1-1.14.3l-.14,0,.05.06,1.09,1.22,1.12,1.31,1.5,1.8,0,0a.29.29,0,0,1-.07.5H60.71a1.71,1.71,0,0,1-.2-.18c-.3-.34-.59-.69-.88-1l-.77-.9-1.3-1.49c-.37-.42-.75-.83-1.13-1.24a.35.35,0,0,1-.1-.25v-1c0-.22.11-.32.33-.33h.86a4.23,4.23,0,0,0,1.5-.22,1.89,1.89,0,0,0,.92-.68,1.64,1.64,0,0,0,.23-.5H56.54a.21.21,0,0,1-.2-.21c0-.32,0-.63,0-.94,0-.14.1-.21.23-.23H60l0-.07a1.47,1.47,0,0,0-.8-.65,3.43,3.43,0,0,0-1.27-.22H56.66a.29.29,0,0,1-.33-.33v-1a.32.32,0,0,1,.2-.33Z"/></g></g></g></svg>