<svg xmlns="http://www.w3.org/2000/svg" xmlns:xlink="http://www.w3.org/1999/xlink" viewBox="0 0 126.09 100.48"><defs><style>.cls-1{isolation:isolate;}.cls-2{fill:#5a00ff;}.cls-3,.cls-5{opacity:0.35;mix-blend-mode:multiply;}.cls-3{fill:url(#linear-gradient);}.cls-4,.cls-6{fill:#fff;}.cls-4,.cls-7{opacity:0.78;}.cls-5{fill:url(#linear-gradient-2);}.cls-6{opacity:0.5;}.cls-8{fill:#48ecff;}</style><linearGradient id="linear-gradient" x1="63.04" y1="73.19" x2="63.04" y2="86.32" gradientUnits="userSpaceOnUse"><stop offset="0" stop-color="#fff" stop-opacity="0"/><stop offset="1" stop-color="#f7931e"/></linearGradient><linearGradient id="linear-gradient-2" x1="63.04" y1="97.11" x2="63.04" y2="100.48" xlink:href="#linear-gradient"/></defs><title>Asset 4</title><g class="cls-1"><g id="Layer_2" data-name="Layer 2"><g id="Layer_1-2" data-name="Layer 1"><rect class="cls-2" width="126.09" height="86.32" rx="4.98" ry="4.98"/><path class="cls-3" d="M0,73.19H126.09a0,0,0,0,1,0,0v8.15a5,5,0,0,1-5,5H5a5,5,0,0,1-5-5V73.19A0,0,0,0,1,0,73.19Z"/><rect class="cls-4" x="4.01" y="5.47" width="118.07" height="67.72" rx="1.66" ry="1.66"/><rect class="cls-2" x="52.7" y="86.32" width="20.69" height="10.8"/><rect class="cls-2" x="44.67" y="97.11" width="36.74" height="3.36"/><rect class="cls-5" x="44.67" y="97.11" width="36.74" height="3.36"/><rect class="cls-6" x="13.71" y="11.76" width="24.55" height="55.15"/><rect class="cls-6" x="97.53" y="11.91" width="18.26" height="55.08"/><rect class="cls-6" x="43.11" y="42.52" width="49.95" height="3.39"/><rect class="cls-6" x="43.11" y="48.73" width="49.95" height="17.97"/><rect class="cls-6" x="48.82" y="16.52" width="1.72" height="22.08"/><rect class="cls-6" x="53.02" y="22.19" width="1.72" height="16.41"/><rect class="cls-6" x="57.22" y="19.79" width="1.72" height="18.81"/><rect class="cls-6" x="61.43" y="30.13" width="1.72" height="8.47"/><rect class="cls-6" x="65.63" y="32.25" width="1.72" height="6.35"/><rect class="cls-6" x="69.07" y="16.52" width="1.72" height="22.08"/><rect class="cls-6" x="73.27" y="22.19" width="1.72" height="16.41"/><rect class="cls-6" x="77.47" y="19.79" width="1.72" height="18.81"/><rect class="cls-6" x="81.68" y="30.13" width="1.72" height="8.47"/><rect class="cls-6" x="85.88" y="32.25" width="1.72" height="6.35"/><circle class="cls-2" cx="60.02" cy="23.58" r="0.67"/><path class="cls-2" d="M60,24.36a.76.76,0,0,1-.76-.64.77.77,0,0,1,.62-.9h0a.78.78,0,0,1,.58.12.81.81,0,0,1,.33.51.79.79,0,0,1-.63.9ZM59.92,23a.56.56,0,1,0,.42.09.52.52,0,0,0-.42-.09Z"/><circle class="cls-2" cx="65.72" cy="27.29" r="0.67"/><path class="cls-2" d="M65.72,28.07a.78.78,0,0,1-.14-1.55h0a.8.8,0,0,1,.58.13.74.74,0,0,1,.32.5.75.75,0,0,1-.12.58.76.76,0,0,1-.5.32Zm0-1.34h-.1a.56.56,0,0,0,.2,1.1.54.54,0,0,0,.35-.24.51.51,0,0,0,.09-.41.54.54,0,0,0-.23-.36A.57.57,0,0,0,65.72,26.73Z"/><line class="cls-2" x1="60.62" y1="23.88" x2="65.25" y2="26.97"/><rect class="cls-2" x="62.82" y="22.64" width="0.22" height="5.57" transform="translate(6.89 63.72) rotate(-56.34)"/><circle class="cls-2" cx="84.14" cy="12.87" r="1.11"/><circle class="cls-2" cx="74.98" cy="32.81" r="1.11"/><line class="cls-2" x1="81.48" y1="18.74" x2="75.38" y2="31.95"/><polygon class="cls-2" points="75.48 32 75.28 31.91 81.38 18.7 81.58 18.79 75.48 32"/><line class="cls-2" x1="83.88" y1="13.58" x2="81.48" y2="18.74"/><rect class="cls-2" x="79.83" y="16.05" width="5.7" height="0.22" transform="translate(33.1 84.27) rotate(-65.01)"/><circle class="cls-2" cx="68.27" cy="28.73" r="0.56"/><circle class="cls-2" cx="71.46" cy="30.8" r="0.97"/><circle class="cls-2" cx="56.62" cy="22.62" r="1.11"/><line class="cls-2" x1="53.96" y1="28.5" x2="50.08" y2="36.53"/><polygon class="cls-2" points="50.18 36.57 49.98 36.48 53.86 28.45 54.06 28.55 50.18 36.57"/><line class="cls-2" x1="56.36" y1="23.33" x2="52.81" y2="30.97"/><rect class="cls-2" x="50.37" y="27.04" width="8.42" height="0.22" transform="translate(6.92 65.15) rotate(-65.01)"/><circle class="cls-2" cx="49.68" cy="37.38" r="1.11"/><g class="cls-7"><circle class="cls-8" cx="62.77" cy="78.42" r="0.87"/><circle class="cls-8" cx="59.8" cy="82.01" r="0.87"/><rect class="cls-8" x="59.38" y="80.09" width="3.69" height="0.49" transform="translate(-39.71 76.37) rotate(-50.44)"/></g><g class="cls-7"><circle class="cls-8" cx="66.29" cy="77.5" r="0.87"/><circle class="cls-8" cx="63.32" cy="81.08" r="0.87"/><rect class="cls-8" x="62.9" y="79.17" width="3.69" height="0.49" transform="translate(-37.72 78.75) rotate(-50.44)"/></g></g></g></g></svg>