<svg xmlns="http://www.w3.org/2000/svg" xmlns:xlink="http://www.w3.org/1999/xlink" viewBox="0 0 148.84 103.54"><defs><style>.cls-1,.cls-3{fill:none;}.cls-2{fill:#5a00ff;}.cls-3{stroke:#4906ef;stroke-miterlimit:10;stroke-width:0.4px;}.cls-4{clip-path:url(#clip-path);}.cls-5{opacity:0.6;}.cls-6{fill:#4906ef;fill-rule:evenodd;}.cls-7{fill:#00e5ff;}.cls-8{fill:#48ecff;}.cls-9{opacity:0.78;}.cls-10{fill:#fff;}</style><clipPath id="clip-path"><circle class="cls-1" cx="69.78" cy="51.77" r="51.57"/></clipPath></defs><title>Asset 3</title><g id="Layer_2" data-name="Layer 2"><g id="Layer_1-2" data-name="Layer 1"><circle class="cls-2" cx="69.78" cy="51.77" r="51.57"/><circle class="cls-3" cx="69.78" cy="51.77" r="51.57"/><ellipse class="cls-3" cx="69.78" cy="51.77" rx="35.51" ry="51.57"/><ellipse class="cls-3" cx="69.78" cy="51.77" rx="14.52" ry="51.57"/><ellipse class="cls-3" cx="69.78" cy="51.77" rx="51.57" ry="35.51"/><ellipse class="cls-3" cx="69.78" cy="51.77" rx="51.57" ry="14.49"/><g class="cls-4"><g class="cls-5"><path class="cls-6" d="M34.19,64l0,0s0,.05,0,.07h.08S34.2,64,34.19,64Z"/><path class="cls-6" d="M50.19,66.09h.06l-.06,0h0A.06.06,0,0,1,50.19,66.09Z"/><path class="cls-6" d="M131.56,75c.07-.06.06-.25.05-.37s-.09-.11-.14-.13c-.78-.26-1.66-.1-2.38-.57a1.89,1.89,0,0,0-1.76-.09.82.82,0,0,1-.4,0,.35.35,0,0,1-.13-.14c-.09-.14-.09-.29,0-.34.32-.13.65-.2,1-.33a.89.89,0,0,0,.57-1c0-.4-.12-.8-.18-1.2,0-.14.27-.42.42-.38s.28.1.31.2a9,9,0,0,0,1,2.23,1.41,1.41,0,0,0,1.37.73,4.47,4.47,0,0,1,.82,0c.73,0,.85-.06.88-.73s0-1.23.07-1.84-.57-1.1-.36-1.76c0-.13-.16-.34-.25-.52a4.49,4.49,0,0,0-1.6-1.83,6.28,6.28,0,0,1-.79-.66,1.07,1.07,0,0,1-.33-.49,11.1,11.1,0,0,1-.25-1.4.45.45,0,0,1,.21-.32c.08,0,.3,0,.33,0a1.45,1.45,0,0,1,.17.57,1.84,1.84,0,0,0,.93,1.71c.4.25.69.66,1.19.77.19,0,.48,0,.49-.23a1.52,1.52,0,0,1,.29-.94c-.12-.36.08-.62.25-.91a.6.6,0,0,0-.14-.74c-.45-.32-.92-.6-1.34-.94-.11-.09-.13-.29-.17-.47l-.07,0-.06-.07a2.42,2.42,0,0,1-1.18-.52s0-.1,0-.13a.32.32,0,0,1,.17-.09c.13,0,.31,0,.39.06a7.68,7.68,0,0,1,.6.68l.11,0s0,0,0,.08c.16.08.33.15.48.24a1.16,1.16,0,0,0,1.35,0,3.23,3.23,0,0,1,1.52-.53.78.78,0,0,0,.44-.38,3.52,3.52,0,0,0,.24-.78.52.52,0,0,0-.33-.65,4.75,4.75,0,0,1-1.49-.66s-.06-.13,0-.19a.2.2,0,0,1,.32-.13c.63.34,1.25.56,1.88,0,.12-.11.39-.07.6-.08a1,1,0,0,0,.55-1.59,1.45,1.45,0,0,1-.59-1,.78.78,0,0,0-.34-.47c-.12-.1-.23-.17-.17-.33s.19-.17.35-.15a1.27,1.27,0,0,0,.58,0,.74.74,0,0,0,.4-.67c.06-.48.09-1,.11-1.43a1.07,1.07,0,0,0-.38-.92c-.42-.33-.11-.52.1-.76a.4.4,0,0,0-.09-.54c-.32-.24-.8-.13-1.05-.5l-.35-.07a.56.56,0,0,1-.41-.58.71.71,0,0,1,.31-.6l.45.45s0,0,0,0v-.09l-.43-.44-.06,0c.33-.34.66-.68,1-1a.81.81,0,0,1,.77,0,1.08,1.08,0,0,1,.18.11c.39.45.94.78.83,1.54a3.81,3.81,0,0,0,.28,1.78s.15,0,.15,0a1.83,1.83,0,0,0,.12-.59,3,3,0,0,1,.43-2.15,3.11,3.11,0,0,0,.41-1.78.94.94,0,0,0-.57-.78c-.27-.07-.55-.06-.81-.15a1.73,1.73,0,0,1-.49-.34s-.08-.14-.06-.18.14-.23.23-.25c.79-.15.85-.24.53-.81a2.21,2.21,0,0,0-.63-.79,3.88,3.88,0,0,1-.55-.59s0-.12.05-.16.13-.11.17-.09c.58.27.9,0,1.07-.54a8.46,8.46,0,0,0,.64-2.15,7.51,7.51,0,0,1,1.93-4.85c.35-.42.66-.87,1-1.31a.69.69,0,0,0,.05-.58c-.1-.51-.09-.56.37-.63a1.82,1.82,0,0,0,1.27-.94.64.64,0,0,0-.22-.72,3,3,0,0,0-.58-.19c-.26-.05-.54-.06-.8-.09-.05,0-.12-.11-.11-.13s.13-.25.23-.3a1.23,1.23,0,0,1,1,.09,1.71,1.71,0,0,0,1.57-.15c.18-.1.37-.17.55-.28a.47.47,0,0,0,.2-.53c0-.14-.07-.27-.08-.4s.12-.44.35-.41a1.29,1.29,0,0,0,1.29-.42,3.15,3.15,0,0,1,.61-.54c1-.74,1.05-1.2.21-2.18-.08-.11-.17-.21-.26-.32a4,4,0,0,0-3.1-1.36,7.84,7.84,0,0,0-2,.42c-.1,0-.19.18-.25.3s-.11.4-.18.58-.34.34-.69.28a1.29,1.29,0,0,1-.71-.35.3.3,0,0,0-.5.08,4.91,4.91,0,0,1-2.92,2.1,5.52,5.52,0,0,0-1.82.77.19.19,0,0,1,0,.08l-.43.39-.43.4-.11.07.08-.09.41-.43.44-.38s0,0,0,0a1.09,1.09,0,0,1,.13-.5,3.82,3.82,0,0,1,1.58-1.25,2.45,2.45,0,0,0,1.52-1.57c.07-.2.16-.38.24-.57.64-1.59-.14-1.93-1.37-1.81a.71.71,0,0,0-.2,0c-.11.07-.26.14-.3.25-.14.31-.22.65-.35,1a1,1,0,0,1-.95.65c-.07,0-.15,0-.21,0a4.55,4.55,0,0,0-2.2-.06s-.11-.09-.11-.14a.21.21,0,0,1,.06-.18c.38-.14.78-.26,1.15-.41a1.19,1.19,0,0,0,.66-.74.6.6,0,0,0-.31-.68l-1.4-.32a6.63,6.63,0,0,0-4.78.45c-.26.1-.5.24-.75.34s-.78.27-1.17.37c-.06,0-.18-.15-.25-.24s0-.14.06-.17a3.81,3.81,0,0,1,.7-.4c.7-.28,1.44-.48,2.11-.8a5,5,0,0,1,3.79-.29,7,7,0,0,0,2.64.19c.82-.08,1.62-.26,2.44-.31a4.47,4.47,0,0,0,2.35-1.16.93.93,0,0,0,.07-1.29c-.49-.38-1-.76-1.48-1.1a2.52,2.52,0,0,0-2.69-.38.77.77,0,0,1-.4,0,.19.19,0,0,1-.15-.11s0-.12.08-.14a5.55,5.55,0,0,0,.56-.24A1,1,0,0,0,137.2,16c-.13-.22-.48-.44-.67-.37a5.05,5.05,0,0,1-3.8-.12,2.72,2.72,0,0,0-1.21-.11,8.34,8.34,0,0,0-1.41.26,4.56,4.56,0,0,1-2,.15,1.88,1.88,0,0,0-1.37.3,1.59,1.59,0,0,1-.59.12.25.25,0,0,1-.17-.1s0-.14,0-.15a2.14,2.14,0,0,1,.71-.35,9.61,9.61,0,0,0,1.63-.13,13.07,13.07,0,0,1,3-.4,5.74,5.74,0,0,1,2.43.21,2.5,2.5,0,0,0,2.13-.44.39.39,0,0,0,.08-.36,2.89,2.89,0,0,0-1.93-1.43c-1.46-.35-2.86-.9-4.29-1.35a16.57,16.57,0,0,0-2-.37c-.77-.15-1.47.3-2.22.22a3.79,3.79,0,0,0-1.25,1.33.43.43,0,0,1-.09.1h0v.06l.06-.05-.06.39h0l.07.13-.12-.08v-.05a1.76,1.76,0,0,1-1.24-.51.2.2,0,0,0-.34.08.34.34,0,0,0,0,.19,4.18,4.18,0,0,0,.16.58c.05.16,0,.29-.09.34a.58.58,0,0,1-.38.06,5.53,5.53,0,0,1-1.61-.85.92.92,0,0,0-1.14,0,1.82,1.82,0,0,1-1.12.44.38.38,0,0,0-.39.38c0,.48,0,.95-.08,1.43a.76.76,0,0,1-.39.66,6.13,6.13,0,0,0-.57.57.43.43,0,0,1-.36.08,3.17,3.17,0,0,0-1.33-.47c-.14,0-.44.21-.45.36a2.44,2.44,0,0,0,0,.6c.12.74.24,1.49.42,2.21a13.08,13.08,0,0,0,.7,2.77c.08.18-.1.37-.34.36s-.69.06-.8-.42a1,1,0,0,0-.67-.71c-.13-.05,0-.1.1-.22.34-.29.38-.61.08-.81a1.63,1.63,0,0,1-.77-.88,16.46,16.46,0,0,0-.8-1.89,1.72,1.72,0,0,0-.86-.84.6.6,0,0,0-.86.25l-.15.38a6.23,6.23,0,0,0-.21,2.43,1.81,1.81,0,0,1-.2,1c-.2.33-.61.15-.94.11a.4.4,0,0,0-.19,0c-.12.06-.22.16-.34.22s-.31-.09-.38-.29c-.13-.39.38-.62.25-.93a6.64,6.64,0,0,1-.16-2,2.36,2.36,0,0,0-.18-.57c0-.06-.1-.14-.13-.13s-.28.05-.35.14a1.43,1.43,0,0,0-.24,1,4.15,4.15,0,0,1,0,1,3.27,3.27,0,0,1-.62.79l-.11.14,0,.07-.46.35-.49.45s0,.06-.06.09a1.36,1.36,0,0,1,0,.2c-.09-.1,0-.15,0-.2s0-.09,0-.13l.49-.46.45-.35,0,0a.89.89,0,0,1-.14-.71c.15-.45.36-.89.48-1.35a2.73,2.73,0,0,0,.08-1.42c-.06-.21-.4-.49-.61-.44a4,4,0,0,0-1,.26,7,7,0,0,1-2,.46c-.95.15-1.89.19-2.84.28a.65.65,0,0,0-.61.68c0,.2,0,.41,0,.61,0,0-.07.12-.11.14a.21.21,0,0,1-.18-.07c-.17-.2-.29-.48-.51-.61s-.66,0-1,.14a1.11,1.11,0,0,0-.66.74q-.08.3-.12.6a4.12,4.12,0,0,1-.19,1.19,4.5,4.5,0,0,1-.8.9,4.15,4.15,0,0,0-.24.34.5.5,0,0,1-.72.09,1.49,1.49,0,0,0-1.49-.35,2.7,2.7,0,0,0-1.74.94,2.54,2.54,0,0,1-1.77.91,1.85,1.85,0,0,1-.38.36A5.3,5.3,0,0,0,89,25.92.69.69,0,0,0,89.4,27l1.51.46a.08.08,0,0,1,0,0l.07-.08,0,.12h0a2.3,2.3,0,0,0,.1.35.4.4,0,0,1-.13.53,1.14,1.14,0,0,0-.59.77,1.67,1.67,0,0,1-.37.71c-.39.47-.81.91-1.25,1.35a.62.62,0,0,1-.74.17,5.53,5.53,0,0,0-2.61-.29,1.65,1.65,0,0,0-1,.3,2.83,2.83,0,0,1-1.31.52c-.94.15-1.87.37-2.81.5a2.39,2.39,0,0,0-1.68,1.33,1,1,0,0,0,0,1.3c.5.53.62,1.31,1.15,1.82a.22.22,0,0,1,.14,0l.18-.14c0,.14-.09.14-.18.14l-.1.07,0,0h0A11.21,11.21,0,0,0,80.27,38a1,1,0,0,0,1,.54c.33,0,.63-.28,1-.14a2.08,2.08,0,0,0,1.21,0,.58.58,0,0,1,.37.13.45.45,0,0,1,.17.33.42.42,0,0,1-.22.31,1,1,0,0,1-.59,0,2.72,2.72,0,0,0-2.38,0,1.56,1.56,0,0,1-1,.07,1.83,1.83,0,0,0-1.19.22c-.55.3-.82,1.17-.4,1.56s.72,1,1.32,1.26c.27.12.25.18,0,.35a4.73,4.73,0,0,0-.69.43.61.61,0,0,0-.18.54,4.18,4.18,0,0,0,1.64,2.05c.52.35.75.3,1.11-.28.22-.36.25-.36.62-.22a1.12,1.12,0,0,1,.66.44.42.42,0,0,0,.34.16c.83-.38,1.77.28,2.57-.3a.27.27,0,0,1,.2,0,12.19,12.19,0,0,1,2.35,1.22c.61.44,1.2.91,1.78,1.38a2.9,2.9,0,0,1,.55.61.87.87,0,0,1,.12.57,2.5,2.5,0,0,1-.3,1,1.18,1.18,0,0,0,.19,1.49,1.82,1.82,0,0,1,.3.75.81.81,0,0,1-.29.91c-.16.11-.19.23,0,.31a5.49,5.49,0,0,0,.57.2.34.34,0,0,1,.22.48,2,2,0,0,1-.23.34.53.53,0,0,0,0,.86.47.47,0,0,1,.09.38c0,.19-.26.37-.24.54s.24.48.29.73c.08.4,0,.83.15,1.22a1.36,1.36,0,0,1-.22,1.16.43.43,0,0,0,0,.36c.06.12.21.18.29.29.26.34.16.6-.27.65a1.08,1.08,0,0,0-.72.31c-.12.12-.07.24,0,.36s.68.13.1.42-.52.74-.53,1.22l.41.08,0,0,.08-.07,0,.11h-.08l-.41.35,0,0v.06l0,0A2.91,2.91,0,0,1,89.43,65a.78.78,0,0,0,.1.92c.69.79,1.34.83,2,.1.13-.14.24-.32.37-.46a.66.66,0,0,1,.74-.11,1.21,1.21,0,0,1,.28.18v0H93l-.06-.06c.12.06.32.09.34.17.06.24-.19.21-.32.29l-.63.94a.34.34,0,0,0,.1.51c.17.1.36.15.53.25a.5.5,0,0,1,.22.68,5.21,5.21,0,0,1-.24.47h0L93,69a.82.82,0,0,1,.84.79s0,.13-.1.15-.15,0-.17,0L93,69h-.08l0,0a4.93,4.93,0,0,1-1.56-.36,6.64,6.64,0,0,0-1-.23.67.67,0,0,0-.74.74c0,.07,0,.13,0,.19s.16.44.09.58-.32.22-.5.3a.84.84,0,0,0-.52.58,4.51,4.51,0,0,0-.21,1.19,2.39,2.39,0,0,0,1,1.89.41.41,0,0,0,.19.08,3.27,3.27,0,0,0,2.15-.3.82.82,0,0,0,.29-1.06,1.72,1.72,0,0,0-.41-.44,1.34,1.34,0,0,1-.45-1l-.06,0,0-.14.08.09s0,0,0,.08a6.69,6.69,0,0,0,2.74,1,.28.28,0,0,1,.21.45c-.15.18-.33.35-.5.52l0,0v.08l.06,0c-.11.24-.21.5-.33.74a.78.78,0,0,0,0,.58c.1.39.08.4-.3.46-.21,0-.46,0-.5.27-.17.88-.61,1.29-1.56,1.13a2.92,2.92,0,0,0-1,.14,2.58,2.58,0,0,0,.28,1.16h.07l.05.08-.1,0s0,0,0,0l-.52-.08c-.41-.06-.41-.06-.6.3a3.26,3.26,0,0,1-.26.53c-.25.31-.63.55-.76.9a5.53,5.53,0,0,1-.41,1.09,1.83,1.83,0,0,0-.19.78.75.75,0,0,0,.27.71c.14.12.29.22.43.32h0l.15,0a.8.8,0,0,1,.13-.13s.09,0,.13,0l-.26.09-.11.11-.05,0a9.62,9.62,0,0,0-.84.85,1,1,0,0,0-.1,1.31,1.23,1.23,0,0,1,.32.92,1.7,1.7,0,0,0,.12.8,6.21,6.21,0,0,1,.37,2.8,2.93,2.93,0,0,0,0,.41c0,.2.25.4.42.35L90,89.14l0-.07s.08,0,.14,0l.16-.14c0,.17-.08.15-.16.14l-.1.08-.08,0a2.19,2.19,0,0,1-.9.91,1.06,1.06,0,0,0-.46,1.21,4.64,4.64,0,0,0,.65,2l0,0v.11s0,0,0-.06h0a2.13,2.13,0,0,0,.37.47.65.65,0,0,1,.23.88c-.08.19-.17.42,0,.58.4.42.4,1,.61,1.48a1.28,1.28,0,0,1,0,1,.55.55,0,0,0,0,.38c.25.32.53.61.8.91a.92.92,0,0,1,.89,1.1.46.46,0,0,0,.33.13,11.9,11.9,0,0,0,1.19-.23c.2-.05.39-.14.58-.2.39-.1.74,0,.77.39a1.76,1.76,0,0,0,.64,1.42c.15.12.18.37.32.51s.34.34.48.32c.5-.07.91.24,1.39.26a1.07,1.07,0,0,0,.84-.47c.45-.75.44-1.67.93-2.4a2.86,2.86,0,0,1,.73-1.65,2.77,2.77,0,0,0,.6-1.27,11.48,11.48,0,0,1,.31-1.15l0,0,0-.08-.25-.1s-.1-.09-.09-.12.15-.16.23,0a1.89,1.89,0,0,1,.11.25l.09,0a0,0,0,0,0,0,0,1.58,1.58,0,0,0,.84-.79,3.7,3.7,0,0,1,1.32-1.76,1.65,1.65,0,0,0,.52-2c-.14-.34,0-.5.27-.66s.24-.14.35-.22a.54.54,0,0,0,.17-.55,3.14,3.14,0,0,0-.18-.37c-.22-.49-.22-.52.35-.58.38,0,.7-.14.82-.48.2-.52.53-.82,1.07-.73.76.12,1.47-.37,2.23-.14.24.06.37-.12.53-.24s.31-.34.48-.35a4.32,4.32,0,0,0,2.76-1.18c.08-.08.26-.06.39-.11a2.38,2.38,0,0,0,1.41-1.11c.38-.85,1.16-1.35,1.6-2.11s1.48-1,2-1.74c.45-.24.94,0,1.4-.09a7.75,7.75,0,0,0,.77-.26,1.4,1.4,0,0,1,.58-.12,1.69,1.69,0,0,0,1.19-.14,7.21,7.21,0,0,1,2.14-.67,7.2,7.2,0,0,0,3.38-1.38C128.89,76.85,130.28,76,131.56,75Zm9.29-41.37s.11,0,.16-.05a.52.52,0,0,1,.16.12c.07.14,0,.22-.19.2a.2.2,0,0,1-.15-.1A.21.21,0,0,1,140.85,33.59Zm-1.47.6a.7.7,0,0,1,.29-.21s.12.06.17.1.15.24,0,.35a2.26,2.26,0,0,1-.31.23C139.39,34.68,139.26,34.42,139.38,34.19ZM108.61,86.52l-.13-.1a.37.37,0,0,1,.16-.07s.08.06.13.09Zm10.58-70.15s-.11-.2.06-.05l.16.15A.74.74,0,0,0,119.19,16.37Zm.68.76c-.17-.06-.16-.18-.16-.31l0,0a.41.41,0,0,0-.12-.19l.16.15s0,.05,0,.08a1.12,1.12,0,0,1,.2.17S119.87,17.13,119.87,17.13Zm5.34,54.74,0-.12h.1Zm.64-3.37-.08-.07.11,0,0,.13Z"/><path class="cls-6" d="M65.81,27.45l.07,0h-.06a.1.1,0,0,1,0,.05Z"/><path class="cls-6" d="M67.9,21.23h0l-.06,0v0Z"/><path class="cls-6" d="M68,22a1.23,1.23,0,0,0-.09,1.16A2.16,2.16,0,0,1,68,24.72c-.14.45-.19.93-.31,1.39a.46.46,0,0,1-.26.27c-.5.19-.41.61-.42,1h0l.48.48.14.12.5.21a.74.74,0,0,0,.21,0,.22.22,0,0,1,0,.08,1.36,1.36,0,0,1,.3.13.17.17,0,0,1,.09.14.22.22,0,0,1-.1.15.17.17,0,0,1-.28-.12,1.51,1.51,0,0,1,0-.3l0,0-.15-.07a1,1,0,0,1-.5-.21l-.19-.08L67,27.41v0l-1.21.08a1.12,1.12,0,0,1-.66.25c-.46,0-.92.11-1.38.17a2.91,2.91,0,0,1-1.25,1.69,1.72,1.72,0,0,0-.65,1.21.6.6,0,0,0,.43.61c.13,0,.27,0,.4,0,.63.08.82.29.82.88a4.17,4.17,0,0,1,0,.79,1.3,1.3,0,0,1-.41.89.3.3,0,0,1-.18.06c-.06,0-.16,0-.17-.06a11,11,0,0,0-.28-1.39A1.15,1.15,0,0,0,62,32a1.54,1.54,0,0,0-1.37,0,.63.63,0,0,0-.29.27,1.67,1.67,0,0,0-.16.58,12.38,12.38,0,0,0,.29,2.34h.05l0,0v0a1.73,1.73,0,0,1-.55,0,4.63,4.63,0,0,0-3.3.75c-.06,0-.13.05-.19.09s-.32.25-.47.39-.33-.05-.47-.15c-.32-.24-.58-.25-.69,0a1.2,1.2,0,0,0,.1,1.33,7.14,7.14,0,0,0,2.06,1.29,13.69,13.69,0,0,1,2.36,1.18,5.68,5.68,0,0,0,.55.28.68.68,0,0,0,.89-.29,3.06,3.06,0,0,1,.21-.29h0l-.05-.06.1,0,0,0c.32-.06.63-.18,1,.06a2.78,2.78,0,0,0,2.26.61,1.23,1.23,0,0,1,.4.08c.36.07.5.26.54.71,0,.07,0,.14,0,.21a.49.49,0,0,0,.54.46c.46-.11.92-.24,1.37-.36s.59-.33,1-.29c.79.08,1.2-.5,1.68-1a.64.64,0,0,0,.1-.18c.32-.58.18-1-.45-1.29-.18-.09-.38-.13-.42-.37a.89.89,0,0,1,.24-.75,2,2,0,0,1,.49-.35c.41-.22.85-.42,1.27-.64a2.12,2.12,0,0,0,1-1.19l.12-.39a1.08,1.08,0,0,1,.08-.19c.14-.29.37-.46.65-.35a5,5,0,0,0,2,.1c.3,0,.48-.42.35-.77L75,33.6H74.9s-.06,0-.09-.07l-.24,0c.12-.13.18,0,.24,0l.14,0,0,.06A1.3,1.3,0,0,0,76.45,33a3.5,3.5,0,0,1,.62-.76,6.6,6.6,0,0,0,.64-.76.83.83,0,0,0,0-1.1,1.22,1.22,0,0,1-.31-.84l0,0-.12-.08.16,0v.07c.3.11.6.24.91.34a.52.52,0,0,0,.71-.48.8.8,0,0,0-.36-.88,4,4,0,0,0-.75-.29l-.18-.11a1.48,1.48,0,0,1,.28-.28,1.09,1.09,0,0,1,.56-.16,6.61,6.61,0,0,0,1.83.07.67.67,0,0,0,.71-.58c0-.13.08-.26.12-.39l.3.18.33.24A1.5,1.5,0,0,0,84,26.73a8.9,8.9,0,0,1,2.39-2.11,3.44,3.44,0,0,0,1.32-.91,1.53,1.53,0,0,1,.86-.51,16.36,16.36,0,0,1,3-1.14c.93-.54,1.88-1.08,2.8-1.65.14-.09.19-.34.24-.53s-.08-.35-.52-.49c-.25-.08-.5-.18-.74-.28a.05.05,0,0,1,0,0l-.06.1.06-.15h0c.1-.22.16-.43.52-.45,1-.05,2-.16,3-.25l2.9-1.47a1.36,1.36,0,0,0,.35-.21,2.85,2.85,0,0,0,.6-.8,3.66,3.66,0,0,0,.19-1.19.93.93,0,0,0-.64-.94.51.51,0,0,1-.4-.59A13.3,13.3,0,0,0,100,11.8a.42.42,0,0,0-.21-.32,10.59,10.59,0,0,0-1.35-.43,1.47,1.47,0,0,0-1.16.14,1.26,1.26,0,0,1-.44.14l-.08.09-.12,0-.17.19s-.09,0-.14-.05.19-.14.31-.14l.06-.07.14,0c.2-.21.4-.44.62-.64s.34-.38,0-.64l-.33-.24c-.06,0-.12-.1-.18-.1-.55-.05-1-.47-1.49-.57a.84.84,0,0,1-.72-.62A.71.71,0,0,0,94.1,8a11.65,11.65,0,0,1-1.58-.33A1.54,1.54,0,0,0,91,7.86c-.34.22-.57,0-.6-.49,0-.14.06-.32-.07-.35-.72-.19-1.45-.37-2.19-.52a3.66,3.66,0,0,0-.81,0,.66.66,0,0,0-.54.53c0,.48-.1,1-.16,1.42,0,0-.08.1-.13.12a.22.22,0,0,1-.3-.17c0-.2,0-.41,0-.61s0-.16,0-.2-.22-.24-.31-.22c-.59.08-.84-.33-1.16-.69a.77.77,0,0,0-.94-.16.83.83,0,0,0-.53.8c0,.27.09.54.11.8,0,0-.07.13-.12.15s-.17,0-.19,0c-.19-.35-.35-.73-.56-1.07a.54.54,0,0,0-1,.1c-.23.42-.23.43-.53.33l-.19-.08c-.4-.1-.76.12-.67.47a1,1,0,0,1-.46,1.13c-.19.14-.23.48-.37.71a.58.58,0,0,1-.89-.06,15.48,15.48,0,0,0-.79-1.64c-.12-.18-.47-.24-.73-.3s-.51.15-.56.48-.21.63-.61.68a.72.72,0,0,0-.39.12c-.09.07-.21.24-.18.32.17.5.38,1,.57,1.48h.07l0,.16L75.67,11s0,0,0,0a.88.88,0,0,1-.82-.35.61.61,0,0,0-.71-.28.47.47,0,0,1-.54-.13c-.13-.15-.22-.34-.35-.5s-.47-.31-.7-.1-.38.38-.57.57-.24.1-.36,0a.91.91,0,0,0-.93-.27,6.81,6.81,0,0,0-2.09.8,2.49,2.49,0,0,0-.45.41.72.72,0,0,0,.17,1,1,1,0,0,0,.35.11.06.06,0,0,1,0,0l.11,0c.09-.12.19-.25.29-.36a.17.17,0,0,1,.17,0,.14.14,0,0,1,0,.27,1.5,1.5,0,0,1-.43.1l-.06.07h0a4.6,4.6,0,0,0,.14.74c.16.48.18.47,0,.65a4.26,4.26,0,0,0-.42.43c-.31.4-.17.85.33,1.12l.28.16a.67.67,0,0,1-.18.07c-.14,0-.28,0-.4,0a.6.6,0,0,0-.48.75,2.55,2.55,0,0,0,.72,1.41,1.4,1.4,0,0,0,1.25.41l0-.05s.08-.05.13-.07S70,18,69.94,18h0a2.16,2.16,0,0,0,.31.67,3.19,3.19,0,0,0,1.91,1,2.4,2.4,0,0,0,1.48-.38.64.64,0,0,0,0-.07c.06,0,.15-.08,0,.05l0,0c.06.23,0,.5.24.66a3,3,0,0,0,2.47.55,3.34,3.34,0,0,0,2.41-1.25.8.8,0,0,1,.59-.35l0-.07.05.05-.08,0c0,.09-.08.19-.13.28s-.06.11-.08.17a.53.53,0,0,0,.26.64c.38.17.86.07,1.18.41h.09l0,.1-.08-.06s0,0,0-.05a7.8,7.8,0,0,0-4.1.59,2.38,2.38,0,0,1-1.8.06,8,8,0,0,0-1.21-.2.67.67,0,0,0-.6.46c0,.54-.08,1.08-.11,1.63,0,.18-.08.27-.18.21a.25.25,0,0,1-.1-.16,3.82,3.82,0,0,0-2.22-3l-.17-.11a.79.79,0,0,0-.94.12c-.42.41-.82.83-1.22,1.25C68,21.47,68.16,21.73,68,22Zm-4.3,12.87-.08-.11.13.06.06.07Zm.94-3.31-.1.05,0-.09.1-.06Zm2.15,4.74,0,0-.06.17-.15.08-.15.09.26-.22.1-.12.06-.18A.58.58,0,0,1,66.8,36.28ZM92.12,19.75a.83.83,0,0,1,.15,0s0,.09,0,.09l-.15,0S92.1,19.75,92.12,19.75ZM70.39,17.56a1.48,1.48,0,0,0-.13.08,1.48,1.48,0,0,0,.08-.13l.09,0Zm6.21,10,0,.12-.14-.09Z"/><path class="cls-6" d="M50.78,66c.8.09,1.43.81,2.31.63.06,0,.13,0,.19.08l.33.23a9.78,9.78,0,0,0,1,.75.76.76,0,0,0,.57.08c.15,0,.26-.2.38-.33l-.41-.5,0-.05c-.3,0-.57,0-.68-.34h-.08l-.08-.09.13,0,0,.05a.66.66,0,0,1,.68.34h.07l.41.5,0,.05c.31-.06.64-.11,1-.19a1.05,1.05,0,0,0,.81-1.16,5.35,5.35,0,0,0-.08-.7l-.06,0v-.09c-.32-.34-.32-.37.06-.72v-.05c0-.14,0-.16.09,0s-.06,0-.09.09h0l-.06.72,0,0s0,0,0,.07c.41.18.83.35,1.23.55.09,0,.13.21.17.33s0,.13,0,.2a2.58,2.58,0,0,0-.29,1c0,.3.37.56.45.87a4.2,4.2,0,0,0,.92,1.79.3.3,0,0,1-.13.49,2.41,2.41,0,0,0-.57.22,1,1,0,0,0-.28.5.36.36,0,0,0,.19.31c.54.14,1.07-.28,1.61,0a.61.61,0,0,1,.15.13.22.22,0,0,1-.08.33,5.36,5.36,0,0,0-.54.26.42.42,0,0,0,0,.55.58.58,0,0,0,.35.17,1.46,1.46,0,0,0,.39-.09c.54-.14.94,0,1.09.58a.53.53,0,0,0,.22.33c.66.26.66.75.58,1.34s-.09,1.37-.15,2a.65.65,0,0,1-.46.62,1.66,1.66,0,0,0-1,.65,5.4,5.4,0,0,1-1.53,1.33c-1.11.78-1.5.87-.79,2.49,0,.08-.08.34-.13.34a5.32,5.32,0,0,0-2,.43,2.25,2.25,0,0,1-2-.18c-.36-.19-.72-.39-1.09-.55a.41.41,0,0,0-.36.08,6,6,0,0,1-1.17,1.14,2,2,0,0,0-.46.66,1.09,1.09,0,0,0,.15,1.15A1.85,1.85,0,0,0,54,86a3.69,3.69,0,0,1,.78-.24.64.64,0,0,1,.39,0c.69.41,1.45.16,2.17.29a1.05,1.05,0,0,1,.8.55,19.17,19.17,0,0,0,1,1.79c.27.36.45.63.22,1.07a.75.75,0,0,0,.1.78,3.77,3.77,0,0,0,1.47,1.33h0l0,0a2.74,2.74,0,0,1,1.11.86,3.91,3.91,0,0,0,2,1.34c.38.09.68.43,1,.6a6.35,6.35,0,0,0,1.13.41.38.38,0,0,0,.31-.19,1.18,1.18,0,0,0,.06-1.15,8.62,8.62,0,0,0-1.94-2.82,1.24,1.24,0,0,1-.36-1l0,0,0-.11L64,89.35s.09,0,.1,0a.17.17,0,0,1,0,.05l.08.06v.07a3.54,3.54,0,0,1,1.63,1.09,3.08,3.08,0,0,0,1.28,1,1.64,1.64,0,0,1,.84.86c.18.36.38.72.59,1.06a.42.42,0,0,0,.33.17.21.21,0,0,0,.13-.33,1.34,1.34,0,0,1,.09-1.52,3,3,0,0,1,.78-.92.83.83,0,0,0,.26-.92,3.64,3.64,0,0,0-.15-.59,4.24,4.24,0,0,1-.37-2.19,1.05,1.05,0,0,0-.56-1A10.38,10.38,0,0,1,68,85.32a.89.89,0,0,1-.28-.73,2.48,2.48,0,0,0-.51-1.69c-.07-.08-.06-.22-.08-.35h0L67,82.46l.11.05v0a2.23,2.23,0,0,0,.36,0c.59,0,.67-.06.82-.65a5.37,5.37,0,0,1,.21-.56.33.33,0,0,1,.51,0c.28.38.55.78.84,1.16a3.55,3.55,0,0,1,.73,1.66c.05.27.09.54.16.8a.78.78,0,0,0,.19.36,3.3,3.3,0,0,0,1.36.85.36.36,0,0,0,.33-.17A9.5,9.5,0,0,0,73,84.85a.71.71,0,0,1,.51-.57,5.69,5.69,0,0,0,.59-.16c.94-.34,1.3-1.36,2.18-1.8a1.83,1.83,0,0,0,.61-.79A.83.83,0,0,0,76.9,81,1.26,1.26,0,0,0,76,80a1,1,0,0,1-.71-.33l0,0V79.6l0,0c-.17-.13-.15-.27,0-.4l0,0v-.09l0,0c-.1-.09-.17-.22-.28-.27a1.07,1.07,0,0,0-.4,0,2.67,2.67,0,0,1-.4,0,.5.5,0,0,1-.33-.63c.22-.63.23-.69-.14-.91s-.68-.41-.64-.89c-.38-.14-.77-.25-1.13-.41a1.2,1.2,0,0,1-.65-.76A1.49,1.49,0,0,0,70,74.12a.28.28,0,0,1-.14-.49c.4-.46.84-.88.69-1.59,0-.14.11-.2.27-.15a5.92,5.92,0,0,0,1,.26.62.62,0,0,0,.51-.21c.08-.14,0-.38,0-.58a.32.32,0,0,0-.11-.17c-.35-.31-.48-.64-.11-1a1,1,0,0,0,.2-1.13,13.52,13.52,0,0,1-.63-1.71A2.1,2.1,0,0,0,70,65.54a1,1,0,0,1-.82-.79c0-.14-.26-.23-.42-.35v0l-.1.09.07-.12h0A1.54,1.54,0,0,0,68.68,63a4.66,4.66,0,0,0-.59-.83A.77.77,0,0,0,67,62c-.39.22-.54.2-.67-.12-.21-.55-.59-.44-1-.39a.31.31,0,0,1-.19,0c-.13-.1-.08-.18,0-.32a2.77,2.77,0,0,0,.47-.65.46.46,0,0,0,0-.38c-.12-.15-.34-.24-.44-.4s.11-.5.11-.76a1,1,0,0,0-.42-.89c-.63-.5-1.28-1-1.93-1.44l0,0h0l.06.06a2.68,2.68,0,0,0-1.74.5,1.45,1.45,0,0,1-1.56.07,1,1,0,0,0-1.2.14.3.3,0,0,0,0,.1.72.72,0,0,0-.24.14l.19-.2.07,0c.08-.35.16-.71.25-1.06a11.3,11.3,0,0,0,.62-2.69,1.09,1.09,0,0,1,.28-.67c0-.13,0-.26,0-.39,0-.8-.3-.93-.94-1.11a2,2,0,0,0-1,0,10.79,10.79,0,0,1-2.37.64,2.23,2.23,0,0,0-1.77.84c-.22.26-.55.41-.78.66A2.36,2.36,0,0,0,52.19,56c.06.2.13.4-.15.45a2.86,2.86,0,0,0-.88.51.72.72,0,0,0-.36.86c.11.4.25.78.36,1.17a1.4,1.4,0,0,1,.07.4.16.16,0,0,1-.09.16c-.11,0-.29.11-.34.07a2.61,2.61,0,0,1-.66-2.43c0-.07,0-.13.08-.19a3.57,3.57,0,0,1,.37-.73A2,2,0,0,0,51,54.77a1.13,1.13,0,0,1,.38-.91c.2-.19.42-.36.6-.56a7.33,7.33,0,0,1,2.74-2.1.61.61,0,0,0,.28-.29.47.47,0,0,0,0-.37,1.75,1.75,0,0,0-.6-.52,4.11,4.11,0,0,0-3.91.42,17.49,17.49,0,0,0-1.62,1.25c-.81.63-1.2,1.67-2.11,2.21a1,1,0,0,0-.27.31c-.14.23-.28.46-.41.7s-.19.56-.37.72a7.76,7.76,0,0,0-1.5,2.65.83.83,0,0,0,.5,1.16c.5.22,1,.4,1.52.63a1.21,1.21,0,0,1,.42.42.33.33,0,0,1-.37.48c-.36-.19-.7-.43-1.06-.61a.83.83,0,0,0-1.18.71,7,7,0,0,0,0,1,2.5,2.5,0,0,0,.7,1.23c.24.31.6.28.93.34s.41,0,.6.09a.9.9,0,0,1,.65.69,1.3,1.3,0,0,0,1.28.6c.46-.08.68.19.75.61a2.33,2.33,0,0,1,1.22.4A2.49,2.49,0,0,1,50.78,66ZM61.25,85.73a.72.72,0,0,1-.36-.11.18.18,0,0,1,0-.16c.18-.36.38-.71.55-1.07.08-.16.17-.22.31-.13s.12.08.14.14.14.37.18.49A.87.87,0,0,1,61.25,85.73Zm9.54-17.86a.2.2,0,0,1,.27.2.38.38,0,0,1-.29.4l0,.07-.12.1.07-.15,0,0c0-.16-.09-.32-.12-.49S70.74,67.88,70.79,67.87ZM58,57.82l.18-.19a.5.5,0,0,0-.13.25S57.88,58,58,57.82Zm-7.48,2.66.15.07-.16.06Z"/><path class="cls-6" d="M15.24,43.07l0,0h0l0,0Z"/><path class="cls-6" d="M15.24,43.07a1.74,1.74,0,0,1-.88.32l-1.19.09a1,1,0,0,1-.21.25A20.66,20.66,0,0,1,10.16,45c-.45.19-.86.42-.92,1,0,.23-.23.32-.4.42a9.68,9.68,0,0,0-.88.52c-.37.3-.81.61-.83,1.11a2.78,2.78,0,0,0,.31.95,1.46,1.46,0,0,1,.07.19.67.67,0,0,0,.58.5c.61.08,1.22.12,1.83.19.05,0,.11.09.12.15a.21.21,0,0,1-.21.26l-2,.17a1.92,1.92,0,0,0-1.14.4.93.93,0,0,0-.3.51,3.71,3.71,0,0,0,.05.81c0,.73.14,1,1.1,1.18a12.9,12.9,0,0,0,3.42.53,1.05,1.05,0,0,1,.59.13,5.58,5.58,0,0,1,2,2c.08.15.1.26,0,.34a.3.3,0,0,1-.19,0,9.13,9.13,0,0,1-2.91-.91A3.53,3.53,0,0,0,9.27,55,27.43,27.43,0,0,0,6.4,55a1,1,0,0,0-.9.73,3.4,3.4,0,0,0-.2,1.61,2,2,0,0,0,1.52,2c.45.15.92.24,1.35.43a.56.56,0,0,1,.24.5,6.88,6.88,0,0,1-.42.92,1.12,1.12,0,0,0-.13.58,6.65,6.65,0,0,0,.28,1.19.44.44,0,0,0,.29.24A3.15,3.15,0,0,0,9,63.2a12.33,12.33,0,0,1,2.85.23,1.93,1.93,0,0,0,1.58-.16l.91-.45a2.1,2.1,0,0,1,1.38-.27,1.94,1.94,0,0,0,1.54-.4,5.66,5.66,0,0,1,.71-.41.25.25,0,0,1,.35.12,1.51,1.51,0,0,1,.09.18c.1.38.41.53.71.68s.24.77.55,1.05c.05,0,.1.11.16.13a19.81,19.81,0,0,0,1.95.59,4,4,0,0,0,2,0,1,1,0,0,0,.75-.63A1.82,1.82,0,0,0,24.34,62h-.1a.53.53,0,0,1-.41.28c-.06,0-.15,0-.19,0s-.11-.21.1-.23l.5,0s0,0,.05-.07l.05.06h0a3.34,3.34,0,0,1,.36-.48c.16-.14.41-.21.55,0,.29.34.81.41,1,.82a1.47,1.47,0,0,0,1.19-1,1.24,1.24,0,0,0-.08-1.18,4.46,4.46,0,0,0-.52-.63,1.77,1.77,0,0,1-.55-1.07,1.66,1.66,0,0,0-.71-1.17c-.45-.34-.49-1-.69-1.46a.8.8,0,0,1,.16-.94A2.8,2.8,0,0,0,26,52.63a2.88,2.88,0,0,1,.17-1c.36-1,.75-1.9,1.12-2.86A1.44,1.44,0,0,1,27.9,48a12.85,12.85,0,0,0,2.28-1.74,1.1,1.1,0,0,0,.33-.73,1.11,1.11,0,0,0-.94-1.34c-.39-.11-.78-.24-1.18-.32a1.5,1.5,0,0,0-1.28.53c-.29.26-.2.58-.12.93a8.08,8.08,0,0,1,.13,1.31.3.3,0,0,0,0,.08l.06.09-.1-.06v-.11a1.56,1.56,0,0,1-.16-.28,1.07,1.07,0,0,0-.68-.71,2.86,2.86,0,0,1-.58-.21c-.59-.34-.93,0-1.18.37a5.23,5.23,0,0,0-.49.9,18.87,18.87,0,0,1-.93,2.48,18,18,0,0,0-.81,2.52c0,.06,0,.12-.07.19l-.09.18a.43.43,0,0,1-.51.22c-.17,0-.37-.32-.33-.46A22.33,22.33,0,0,1,22,49.69a4.23,4.23,0,0,0,.13-3,1.45,1.45,0,0,0-.34-.49c-.17-.19-.63-.1-.68.14-.1.46-.18.93-.27,1.39-.05.25-.2.4-.41.33a6.55,6.55,0,0,0-1.82-.19c-.2,0-.28,0-.21-.12s.12,0,.18-.09c.29-.16.6-.3.88-.48a.64.64,0,0,0,.16-.74,4,4,0,0,0-1-1.27.87.87,0,0,0-1.28-.11,6.11,6.11,0,0,0-.58.56.63.63,0,0,1-.56.16c-.21,0-.19-.11.07-.48s.63-.89.92-1.35a.9.9,0,0,0-.3-1.08c-.11-.08-.24-.13-.36-.2l.07-.06h-.06a.09.09,0,0,0,0,.05C16.13,43,15.66,43,15.24,43.07Z"/><path class="cls-6" d="M57.84,29.52a1.13,1.13,0,0,0,.74.27,2,2,0,0,1,1.37.26.62.62,0,0,0,.74-.09l.63-.52,0,0a.18.18,0,0,1,.07.05s0-.06,0-.08a4.23,4.23,0,0,0,1.29-.88,4.66,4.66,0,0,1,1.14-.77l.31-.6a1,1,0,0,1,.94-.53h0v0c0-.17,0-.19.11-.06l-.11.09c0,.56,0,.61.5.7l.3,0c.33-.39.42-.95.83-1.28s.83-.51.87-1.05a2.53,2.53,0,0,0-.43-1.94,2,2,0,0,1-.22-.34.47.47,0,0,1,.06-.56,3.4,3.4,0,0,1,.91-1,3.17,3.17,0,0,1,0-1.37,2.35,2.35,0,0,0,.21-1c0-.51-.6-.5-.84-.81s-.67-.45-1-.69A.72.72,0,0,1,66,16.9,11.11,11.11,0,0,1,66,15.27c0-.47.17-.94.24-1.41a2.08,2.08,0,0,0-.83-1.78,1.53,1.53,0,0,0-1.34-.29.65.65,0,0,0-.53.54c0,.19.08.35.34.46a6.66,6.66,0,0,1,.73.31.22.22,0,0,1,.06.35c0,.06-.09.14-.13.14-.34,0-.68,0-1,.06a8.4,8.4,0,0,0-1,.24,1,1,0,0,0-.59,1c.06.26.21.5.28.76,0,.1-.07.24-.13.35a.21.21,0,0,1-.19,0c-.29-.22-.59-.38-.92-.1a1.35,1.35,0,0,1-1.13.33c-.46-.07-.54.34-.46.68a2.07,2.07,0,0,0,.47.89,1.48,1.48,0,0,1,.49,1h.06a.26.26,0,0,1,.13.08l.31,0c-.13.09-.22,0-.31,0l-.18,0s0,0,0-.06a2.64,2.64,0,0,1-1.06-.46.42.42,0,0,0-.54.12c-.61,1.07-.82,2.3-1.38,3.39a.88.88,0,0,0,.34,1.08,2.07,2.07,0,0,0,1.11.46,1.13,1.13,0,0,1,.54.26.47.47,0,0,1,.1.37.45.45,0,0,1-.22.3.88.88,0,0,1-.39,0,1.38,1.38,0,0,0-1.75,1,9.09,9.09,0,0,0-.4,2A2.3,2.3,0,0,0,57.84,29.52Z"/><path class="cls-6" d="M63.76,27.81l0,.06h0l0-.08Z"/><path class="cls-6" d="M.82,46.66l0,1.64a.5.5,0,0,0,.4.39A4.44,4.44,0,0,0,3.31,48l0,0,.1-.06L3.32,48h0a1,1,0,0,0,.8.46,1.53,1.53,0,0,0,.95-.29,3.85,3.85,0,0,0,.55-.59c.25-.32.44-.69.71-1a1.94,1.94,0,0,1,1.49-.88,1.79,1.79,0,0,0,.88-.46c.31-.26.55-.6.86-.86a1.43,1.43,0,0,1,.7-.36,13.58,13.58,0,0,0,2.16-.52,5.14,5.14,0,0,1,.8-.11l-.07,0h0s0,0,0,0A1.89,1.89,0,0,1,14.35,43c.3,0,.6,0,.91,0a1.69,1.69,0,0,1,1.22-.42,17.32,17.32,0,0,0,0-3.22A2.15,2.15,0,0,0,15.68,38a1.21,1.21,0,0,0-.95-.29,2.05,2.05,0,0,1-1.49-.57,3.35,3.35,0,0,1-.77-.67,1.71,1.71,0,0,0-1.92-.81,14.25,14.25,0,0,1-1.85,0,5.7,5.7,0,0,0-1,.13.73.73,0,0,0-.56.55,6.93,6.93,0,0,0-.19,1.21,1.31,1.31,0,0,1-.57,1c-.64.5-1.25,1-1.89,1.56a1.26,1.26,0,0,0-.6,1,.48.48,0,0,1-.21.33,28,28,0,0,0-3,2.4c-.22.16-.51.31-.6.53-.17.37.26.57.41.85A2.66,2.66,0,0,1,.82,46.66Z"/><path class="cls-6" d="M64,43.81a1.49,1.49,0,0,1-.5-.61,1,1,0,0,0-1-.58,2.81,2.81,0,0,1-1.79-.31,1,1,0,0,0-.59-.05c-.89.09-1.77.16-2.64.3-.55.09-1.06.32-1.41-.36-.12-.25-.45-.26-.71-.35a2.27,2.27,0,0,1-1.69-1.6c-.09-.41-.37-.53-.71-.61s-.21-.1,0-.22a3.35,3.35,0,0,0,.59-.48h0l-.07,0h.12l0,0a2.9,2.9,0,0,0,1.21.05c.14-.05.3-.38.22-.51a1.17,1.17,0,0,0-.22-.34,1.16,1.16,0,0,1-.45-1.24c.07-.37-.38-.82-.74-.86s-.68,0-1-.06a.71.71,0,0,1-.63-.45c-.09-.26-.14-.53-.24-.79a1.24,1.24,0,0,0-.26-.54A7.77,7.77,0,0,0,49.8,33a1.44,1.44,0,0,0-1.54.21.89.89,0,0,0-.4.89,9.78,9.78,0,0,1,.49,2.38c0,.11.14.25.24.3l1.71.67c.53.21.57.26.56.7s0,.82,0,1.22a1.25,1.25,0,0,1-.57,1.23,3.38,3.38,0,0,0-.82.91,4.15,4.15,0,0,0-.6,2.74c0,.65.86.6,1.16,1.06a.67.67,0,0,0,.14.15,1.21,1.21,0,0,0,1.52.14,1.34,1.34,0,0,1,.37-.16c.16,0,.23.06.19.23a1.44,1.44,0,0,0-.09.6.75.75,0,0,0,.59.52,8.78,8.78,0,0,0,2,.4c1.32,0,2.51.68,3.83.63.24,0,.49.21.73.34a2.31,2.31,0,0,0,1.56.35c.41-.06.82,0,1.23-.08a1,1,0,0,0,.55-.23,4.51,4.51,0,0,1,1.16-.82.59.59,0,0,0,.33-.68,1.11,1.11,0,0,1,.23-.74A1.4,1.4,0,0,0,64,43.81Z"/><path class="cls-6" d="M29.42,34.9c-.6-.12-1.21-.24-1.8-.39-.09,0-.22-.24-.19-.28.37-.59,0-1.21.11-1.74,0-.53,0-1-.1-1.48a1,1,0,0,0-.83-.78c-.4-.09-.39-.13-.39-.53,0-.63-.23-.94-.74-1s-.89-.15-1.18.14c-.52.5-1.23.58-1.77,1a3.45,3.45,0,0,0-.54.6c.08.52-.25.67-.65.85a2.62,2.62,0,0,0-.76.66.24.24,0,0,0,0,.37c.22.16.46.29.69.43s.18.21.08.29a.23.23,0,0,1-.18,0,13.59,13.59,0,0,0-1.41-.18c-.45,0-.81.4-1,.91a.73.73,0,0,0,.31.88c.26.22.53.43.81.64.66.49,1.32,1,2.21.53a.48.48,0,0,1,.39,0,3.48,3.48,0,0,0,1.58.36c.06,0,.11.07.16.1a1.07,1.07,0,0,1-.19.09l-2.63.42a.71.71,0,0,0-.49.59,1.25,1.25,0,0,0,.68,1.36,2.34,2.34,0,0,0,.77.26c.4,0,.82,0,1.22,0a3.28,3.28,0,0,0,2.16-.49,2,2,0,0,1,.74-.3A7.41,7.41,0,0,0,28.34,38a.67.67,0,0,1,.39,0,12.63,12.63,0,0,1,1.33.52,1.45,1.45,0,0,0,1,.14q.41-.09.81-.15A1.71,1.71,0,0,0,32.92,38c.63-.62,1.19-1.31,1.86-1.88a2.33,2.33,0,0,0,.44-.69,1.27,1.27,0,0,0-.49-1.61.64.64,0,0,0-.39,0,.93.93,0,0,0-.63.48c-.1.16-.22.23-.32.1s-.79-.39-.61-.94c-.22-.28-.43-.54-.09-.89a1,1,0,0,0,.27-.75A3.57,3.57,0,0,1,33.33,30a.48.48,0,0,0-.15-.55.56.56,0,0,0-.75,0c-.56.39-1.11.8-1.65,1.21a.92.92,0,0,0-.34.91,3.75,3.75,0,0,0,.13.6c.12.41-.1.64-.42.83l-.17.11a.69.69,0,0,0-.26.89,2.55,2.55,0,0,1,.13.39C29.91,34.62,29.66,35,29.42,34.9Z"/><path class="cls-6" d="M39.92,47.52a.64.64,0,0,0,.25-.72.72.72,0,0,0-.58-.51c-.47-.08-1-.06-1.42-.13a3.66,3.66,0,0,1-.7-.25h0l-.06,0,.05.06A3.58,3.58,0,0,0,37,45.5a1,1,0,0,0-.54-.2,3.33,3.33,0,0,0-1,.23.81.81,0,0,0-.47.34,2.22,2.22,0,0,1-.94,1,.51.51,0,0,0-.14.56,1.92,1.92,0,0,0,.21.58A1.69,1.69,0,0,1,34,50a.36.36,0,0,1-.52.08,3.83,3.83,0,0,1-.63-1.28.62.62,0,0,0-.66-.37,1.29,1.29,0,0,0-1.36,1.24c0,.54-.09,1.08-.11,1.63a.47.47,0,0,0,.31.48,1.58,1.58,0,0,1,.9,1.05,8,8,0,0,1,.61,2.57,1.77,1.77,0,0,0,.58,1.28.57.57,0,0,0,.73.09,6.85,6.85,0,0,1,.92-.8,8.53,8.53,0,0,1,1.14-.4A8.68,8.68,0,0,0,37,55a1,1,0,0,0,.39-.45,4.27,4.27,0,0,1,1-1.73,1.39,1.39,0,0,0,.28-1.35c-.08-.33-.22-.64-.31-1a1.46,1.46,0,0,0-.78-.9c-.17-.09-.16-.22,0-.29.38-.17.76-.31,1.14-.46a.72.72,0,0,0,.51-.58C39.33,47.81,39.65,47.7,39.92,47.52Z"/><path class="cls-6" d="M15.29,28.12a5.53,5.53,0,0,1,1.42.53,2.62,2.62,0,0,1,.74.66.75.75,0,0,0,.94.12c.33-.23.63-.51,1-.75a.47.47,0,0,1,.37,0c.21.09.41.11.54-.08.32-.44.59-.92.94-1.34a12.38,12.38,0,0,1,1.13-1.16.65.65,0,0,1,.34-.11c.18,0,.19.24,0,.54-.28.46-.59.92-.86,1.39a1,1,0,0,0,0,.79.52.52,0,0,0,.68.26,1.36,1.36,0,0,0,.46-.39,1.37,1.37,0,0,1,1.13-.76,1.74,1.74,0,0,0,.58-.2c.18-.09.42-.19.48-.35.32-.75,1.18-1.14,1.29-2,0-.15.25-.3.42-.41a3.87,3.87,0,0,1,.55-.25.58.58,0,0,0,.31-.5,5.61,5.61,0,0,0,0-.82c0-.29-.25-.68-.4-.65a1.22,1.22,0,0,0-.53.24c-.27.28-.51.46-.71.28a3,3,0,0,0-1.71-.53,1.43,1.43,0,0,0-1.16.26,14.52,14.52,0,0,1-4.51,2.36,10.62,10.62,0,0,1-1.13.45,4.74,4.74,0,0,0-1.86.8A1.58,1.58,0,0,0,15,27.85C15,27.94,15.18,28.1,15.29,28.12Z"/><path class="cls-6" d="M38.22,31.86a3.45,3.45,0,0,0-.32.74,2.77,2.77,0,0,1-.47,1.32.49.49,0,0,0-.1.37,3.48,3.48,0,0,1,.08,2s.18.16.27.25.28.2.27.26c-.14.69.31.82.81.88s1.22.13,1.82.2a.33.33,0,0,1,.14.1c-.06.12-.1.29-.19.33a5,5,0,0,1-.77.26.88.88,0,0,0-.62.74,7,7,0,0,0-.09.8.65.65,0,0,0,.42.63c.52.16,1,.32,1.57.44a1.27,1.27,0,0,0,1.36-.68,2.12,2.12,0,0,0,.13-.38,1.09,1.09,0,0,1,1.06-.75,8.59,8.59,0,0,1,.48-1.22A9.91,9.91,0,0,1,44.91,37c0-.06.09-.1.13-.16.31-.58.63-1.17.92-1.76a.53.53,0,0,0,0-.39,6,6,0,0,0-.32-.73.43.43,0,0,0-.49-.26c-.53.15-.84-.14-1.13-.5a3.33,3.33,0,0,0-1.66,0,1.87,1.87,0,0,0-.43,1.08c0,.47,0,.94,0,1.42a.29.29,0,0,1-.07.18c-.09.07-.16,0-.22-.17-.19-.5-.37-1-.59-1.5a.45.45,0,0,0-.34-.15.44.44,0,0,0-.34.16c-.29.6-.54,1.2-.81,1.8l0,.06-.11,0,.07,0v0A1,1,0,0,1,39.34,35c.09-.18.21-.42.15-.57a3.57,3.57,0,0,1-.21-1.58,1,1,0,0,0-.08-.4c-.08-.18-.18-.36-.28-.54A.47.47,0,0,0,38.22,31.86Z"/><path class="cls-6" d="M44.13,24.2a2.64,2.64,0,0,1,1.1.32s0,0,0,.06l0,0c.19.16.36.33.56.48a1.72,1.72,0,0,1,.73,2.42.71.71,0,0,0,.29.89,1,1,0,0,0,1.13.12A2.22,2.22,0,0,0,49,27a3.32,3.32,0,0,1,1.09-2.12,1.76,1.76,0,0,0,.41-.69,1.27,1.27,0,0,0-.19-1.51.6.6,0,0,1-.21-.71,1.29,1.29,0,0,0,.06-.4c0-.94-.37-1.31-1.23-.93a3.57,3.57,0,0,1-.38.14s0,0,0,0,0,.17-.12.05l.13-.09a7.83,7.83,0,0,0,.1-1.18,1.17,1.17,0,0,0-1.19-1.16,4.9,4.9,0,0,1-1.21,0c-.11,0-.26.09-.36.18-.41.37-.79.75-.58,1.41a1.25,1.25,0,0,1-.08.56c-.1.42-.09.44.42.68v0l.07,0a.66.66,0,0,1,0-.1c.11,0,.1.05,0,.1a.64.64,0,0,1,0,.07l0,0a5.23,5.23,0,0,1,.11.78,1.9,1.9,0,0,1-.14.57c-.09.25-.28.36-.47.26s-.47-.27-.72-.37a.48.48,0,0,0-.55.13,1.33,1.33,0,0,0-.33.49A.72.72,0,0,0,44.13,24.2Z"/><path class="cls-6" d="M59.62,53.66a2,2,0,0,1,0,1.35,1.28,1.28,0,0,0,1.3,1.43c.4,0,.79-.15,1.19-.18a.89.89,0,0,1,.82.32l1.41.11a.49.49,0,0,0,.4-.38,9.91,9.91,0,0,0-.31-2.23,1.91,1.91,0,0,0-1.51-1.49,6.47,6.47,0,0,1-2.1-.77.53.53,0,0,0-.68.26l-.47.81C59.65,53.15,59.53,53.44,59.62,53.66Z"/><path class="cls-6" d="M59.68,52.89h0s0,0,0,0v0Z"/><path class="cls-6" d="M50.62,28.63a.66.66,0,0,0,.55.53,5.87,5.87,0,0,0,2.21.08.88.88,0,0,0,.46-.38c.22-.3.17-.75.47-1l0,0v-.09l-.06,0a1.18,1.18,0,0,0,0-1.52,7.25,7.25,0,0,1-1-1.8,4,4,0,0,0-.32-.52.72.72,0,0,0-.91-.14,3.46,3.46,0,0,0-1.29,2.67,2.62,2.62,0,0,1-.34,1.12A2.18,2.18,0,0,0,50.62,28.63Z"/><path class="cls-6" d="M43.88,41.35a.86.86,0,0,0,0,1.26c.49.47,1,.89,1.53,1.32a1.79,1.79,0,0,0,.37.16.77.77,0,0,0,1-.38c.2-.49.39-1,.55-1.51a3.11,3.11,0,0,0,.13-.8A1.9,1.9,0,0,0,46.86,40a1.28,1.28,0,0,0-1-.23l-.59,0A7.8,7.8,0,0,1,43.88,41.35Z"/><path class="cls-6" d="M45.31,39.75l0-.06-.1,0,0,0Z"/><path class="cls-6" d="M34.22,20.7a1.91,1.91,0,0,1,1.35.78c.55,0,.76.51,1.16.75a1.33,1.33,0,0,0,2-.87c0-.27.06-.54.08-.81l0-.2c0-.67-.33-1.05-1-.94a7.73,7.73,0,0,1-1.8.16,5.53,5.53,0,0,0-1.4.17,1.24,1.24,0,0,0-.53.28.52.52,0,0,0-.13.36C34.05,20.49,34.14,20.68,34.22,20.7Z"/><path class="cls-6" d="M56,75.37a.85.85,0,0,0,.85,1.11A2.3,2.3,0,0,0,59.25,75c.13-.31.25-.63.37-1a.91.91,0,0,0-.39-.87,1.34,1.34,0,0,0-1.54,0,5,5,0,0,0-1.67,2A.71.71,0,0,0,56,75.37Z"/><path class="cls-6" d="M53.33,32.37a1.54,1.54,0,0,0,.87-.46.5.5,0,0,0,0-.55,4.58,4.58,0,0,0-2.79-1.45,1.09,1.09,0,0,0-1.1.71.69.69,0,0,0,.19.73,7.08,7.08,0,0,0,2.61,1A1.33,1.33,0,0,0,53.33,32.37Z"/><path class="cls-6" d="M21.13,29.75c0-.05,0-.13-.08-.15a.75.75,0,0,0-.37-.11,6.31,6.31,0,0,0-2.87,1.36.51.51,0,0,0,.13.83.68.68,0,0,0,.75.1c.81-.6,1.59-1.22,2.38-1.84C21.11,29.9,21.11,29.81,21.13,29.75Z"/><path class="cls-6" d="M39.78,29.54a.45.45,0,0,0,.54-.07,5.2,5.2,0,0,0,.52-2.2,2.77,2.77,0,0,0-.05-.54c0-.1-.15-.25-.24-.26a.4.4,0,0,0-.33.17c-.26.53-.53,1.08-.74,1.64a1.62,1.62,0,0,0,0,.79A1.15,1.15,0,0,0,39.78,29.54Z"/><path class="cls-6" d="M54.87,18.59a.35.35,0,0,0,.53,0,3,3,0,0,0,.75-1.19.51.51,0,0,0-.1-.37.9.9,0,0,0-.72-.33c-.6.12-1.17.67-.74,1.32C54.7,18.22,54.77,18.41,54.87,18.59Z"/><path class="cls-6" d="M55.53,34.09a.23.23,0,0,0,.11.15.91.91,0,0,0,1,.07,1,1,0,0,0,.55-.72.91.91,0,0,0-.86-1,.56.56,0,0,0-.34.17A1.94,1.94,0,0,0,55.53,34.09Z"/><path class="cls-6" d="M44.06,27.45a1.11,1.11,0,0,0,1,.79.59.59,0,0,0,.61-.63,1.09,1.09,0,0,0-1.06-1A.67.67,0,0,0,44.06,27.45Z"/><path class="cls-6" d="M31.3,23.3l-.05.05.06-.05c-.08.26-.15.53-.25.78a1,1,0,0,0,.1,1c.19.28.4.55.6.82a1,1,0,0,0,.69.38,7.34,7.34,0,0,0,.82.08,1.57,1.57,0,0,0,1.26-.55,1.9,1.9,0,0,0,.58-1.05c0-.31.26-.45.5-.58a6.71,6.71,0,0,0,.86-.51.25.25,0,0,0,0-.37c-.08-.11-.16-.25-.27-.29a10.45,10.45,0,0,0-2.59-.52,3.11,3.11,0,0,0-2,.47l.05,0-.05,0h0l-.18.18.18-.18c0-.39,0-.78-.09-1.17,0-.23-.38-.39-.63-.33a.73.73,0,0,0-.56.5,1.19,1.19,0,0,0,.06,1A1,1,0,0,0,31.3,23.3Z"/><path class="cls-6" d="M39.2,46a2.1,2.1,0,0,0,.69-.37c.09-.06.09-.23.11-.36s-.09-.1-.15-.12a4.1,4.1,0,0,0-1.6,0c-.46,0-.66.35-.78.75A3.51,3.51,0,0,0,39.2,46Z"/><path class="cls-6" d="M34.48,38.87a.82.82,0,0,0,.85-.36.91.91,0,0,0,0-.93.27.27,0,0,0-.33-.16,1.43,1.43,0,0,0-1,.89C34,38.49,34.25,38.84,34.48,38.87Z"/><path class="cls-6" d="M56.3,69.27l-.34.2c-.32.25-.8.23-1,.63a.66.66,0,0,0,0,.37.23.23,0,0,0,.15.12c.2,0,.44.07.58,0a8.45,8.45,0,0,0,1-.75.4.4,0,0,0,.07-.53A.26.26,0,0,0,56.3,69.27Z"/><path class="cls-6" d="M61.19,75.3c.1,0,.17-.18.25-.27a1,1,0,0,0-.07-.37.92.92,0,0,0-.86-.41.47.47,0,0,0-.44.34.44.44,0,0,0,.18.52A1,1,0,0,0,61.19,75.3Z"/><path class="cls-6" d="M26.8,64.34a3.27,3.27,0,0,0-.7.35.66.66,0,0,0-.2.71.22.22,0,0,0,.31.16,1.74,1.74,0,0,0,.85-1s0-.12-.1-.15A.2.2,0,0,0,26.8,64.34Z"/><path class="cls-6" d="M43.16,32.51a.23.23,0,0,0-.15-.12,1.18,1.18,0,0,0-1.1.2.33.33,0,0,0,0,.32,3.27,3.27,0,0,0,.49.27c.25-.16.5-.32.74-.49A.2.2,0,0,0,43.16,32.51Z"/><path class="cls-6" d="M42.37,33.18l-.06,0h0l0,0Z"/><path class="cls-6" d="M44.72,79.05c-.08.07-.21.13-.24.21a.54.54,0,0,0,0,.38,4.9,4.9,0,0,0,.51.6.21.21,0,0,0,.19,0,.21.21,0,0,0,.17-.29A1.28,1.28,0,0,0,44.72,79.05Z"/><path class="cls-6" d="M27.28,27.23c0,.1.06.24.13.36a.55.55,0,0,0,.51.24.4.4,0,0,0,.39-.36c0-.11-.08-.28-.17-.33a1.16,1.16,0,0,0-.55-.12A.39.39,0,0,0,27.28,27.23Z"/><path class="cls-6" d="M44.8,39.84l.45-.12a1.83,1.83,0,0,0-1.61-.34C44,40.16,44,40.16,44.8,39.84Z"/><path class="cls-6" d="M43.64,39.38s0,0,0-.05h0s0,0,0,0Z"/><path class="cls-6" d="M58.8,69.64c0-.06-.21-.15-.31-.14a.41.41,0,0,0-.38.36c0,.15.13.3.19.44.18-.06.36-.07.4-.15A1,1,0,0,0,58.8,69.64Z"/><path class="cls-6" d="M47.46,38.44c-.25,0-.47.23-.4.54,0,.05.08.13.13.13.23,0,.55-.28.41-.54C47.57,38.52,47.52,38.45,47.46,38.44Z"/><path class="cls-6" d="M45.84,64.46c-.1.12.08.37.3.41a.62.62,0,0,0,.75-.42,4.69,4.69,0,0,0-.72-.17A.48.48,0,0,0,45.84,64.46Z"/><path class="cls-6" d="M46.89,64.45H47v0l0,0A.05.05,0,0,0,46.89,64.45Z"/><path class="cls-6" d="M78.2,38.24a.54.54,0,0,0-.56-.16.38.38,0,0,0-.16.12.2.2,0,0,0,0,.17.43.43,0,0,0,.47.28c.11,0,.2-.14.3-.22A.58.58,0,0,0,78.2,38.24Z"/><path class="cls-6" d="M66.63,42.66h0s0,0,0,0h0Z"/><path class="cls-6" d="M66.19,43.3c.11,0,.3,0,.34-.12a2.28,2.28,0,0,0,.1-.52.46.46,0,0,0-.49.16C66,43,66,43.29,66.19,43.3Z"/><path class="cls-6" d="M22.94,65.62a.28.28,0,0,0,.16.12.2.2,0,0,0,.27-.2c0-.15-.1-.22-.26-.21S22.87,65.47,22.94,65.62Z"/><path class="cls-6" d="M57.43,68.16a.19.19,0,0,0-.31,0,1.21,1.21,0,0,0-.1.14l.27.14C57.44,68.39,57.5,68.29,57.43,68.16Z"/><path class="cls-6" d="M39,49.67c-.09.06-.24.11-.26.19a.47.47,0,0,0,.1.34c.12.11.4-.09.37-.28S39.06,49.75,39,49.67Z"/><path class="cls-6" d="M43.87,43.93s0-.08,0-.13l-.1,0C43.73,43.88,43.75,43.94,43.87,43.93Z"/><path class="cls-6" d="M25.93,44.14s.1,0,.14,0,0-.1,0-.1S25.84,44.05,25.93,44.14Z"/><polygon class="cls-6" points="54.97 72.66 54.92 72.54 54.87 72.66 54.97 72.66"/><path class="cls-6" d="M45.06,24.93c.22-.05.2-.2.18-.35a2.31,2.31,0,0,0-.24.2S45.05,24.93,45.06,24.93Z"/><path class="cls-6" d="M29.1,58.77s0-.08.06-.13-.05-.11-.09-.12-.11,0-.11.07S29,58.81,29.1,58.77Z"/><path class="cls-6" d="M54.59,28.25a.19.19,0,0,0,0-.18,1.42,1.42,0,0,0-.22-.2,1.31,1.31,0,0,0,0,.28C54.38,28.34,54.48,28.38,54.59,28.25Z"/><path class="cls-6" d="M61.53,29.89c0-.05.06-.13,0-.16a2,2,0,0,0-.22-.19C61.35,29.68,61.34,29.83,61.53,29.89Z"/><path class="cls-6" d="M26.29,62.4l.05-.06,0-.06h0Z"/><path class="cls-6" d="M26.26,62.87s0-.12,0-.18a2.64,2.64,0,0,0,0-.29,1.24,1.24,0,0,0-.19.26C26,62.83,26.1,62.92,26.26,62.87Z"/><path class="cls-6" d="M79.55,38.33a2,2,0,0,0-.29-.15s-.13.08-.12.11.13.2.27.16Z"/><path class="cls-6" d="M52.3,68.5l-.06.06,0,0,0,0Z"/><path class="cls-6" d="M44.13,33.11l-.16,0,.05.05h0Z"/><path class="cls-6" d="M66.79,42.38a.18.18,0,0,0-.13.23l.25-.12S66.82,42.38,66.79,42.38Z"/><polygon class="cls-6" points="41.01 43.31 40.96 43.17 40.88 43.29 41.01 43.31"/></g></g><path class="cls-7" d="M80.64,77.68v-1.6c1.6,0,3.21,0,4.78-.08l0,1.6C83.87,77.64,82.25,77.67,80.64,77.68Zm-4.82,0c-1.61,0-3.23-.07-4.82-.14l.07-1.59c1.57.06,3.18.11,4.78.13Zm-9.63-.39c-1.59-.1-3.21-.23-4.81-.37l.15-1.6c1.58.15,3.18.27,4.76.37Zm-9.6-.87c-1.61-.18-3.22-.39-4.78-.62L52,74.18c1.55.23,3.14.44,4.73.62ZM47,75c-1.61-.28-3.2-.59-4.74-.91l.33-1.56c1.52.32,3.09.62,4.69.9Zm-9.45-2c-1.58-.39-3.15-.82-4.66-1.26l.44-1.53c1.49.43,3,.85,4.61,1.24ZM28.31,70.3c-1.57-.54-3.09-1.12-4.53-1.71l.61-1.48c1.41.58,2.9,1.15,4.45,1.68Zm-9-3.71c-1.52-.77-3-1.57-4.25-2.39L16,62.85c1.26.79,2.64,1.56,4.12,2.3ZM11.14,61.3a21.53,21.53,0,0,1-3.41-3.61L9,56.75a20.33,20.33,0,0,0,3.16,3.34ZM5.51,53.15a10.49,10.49,0,0,1-.34-2.66A10.81,10.81,0,0,1,5.46,48L7,48.4a9.31,9.31,0,0,0-.24,2.09,8.76,8.76,0,0,0,.29,2.26Zm3.41-8.78-1.3-.93A20.63,20.63,0,0,1,11,39.8L12.05,41A19.38,19.38,0,0,0,8.92,44.37Z"/><path class="cls-7" d="M126.72,32.91v1.74C135.41,39.24,140.3,45,140.3,50.89c0,11.83-18.61,21.81-43.8,24.72v1.61a95.06,95.06,0,0,0,27.19-6.92c11.55-5.11,17.91-12,17.91-19.41C141.6,44.12,136.35,37.84,126.72,32.91Z"/><circle class="cls-8" cx="85.46" cy="76.79" r="2"/><circle class="cls-8" cx="125.95" cy="33.63" r="2"/><g class="cls-9"><circle class="cls-10" cx="68.17" cy="44.03" r="5.04"/><circle class="cls-10" cx="50.89" cy="64.91" r="5.04"/><rect class="cls-10" x="48.44" y="53.75" width="21.48" height="2.88" transform="translate(-21.06 65.66) rotate(-50.44)"/></g><g class="cls-9"><circle class="cls-10" cx="88.67" cy="38.63" r="5.04"/><circle class="cls-10" cx="71.4" cy="59.51" r="5.04"/><rect class="cls-10" x="68.94" y="48.35" width="21.48" height="2.88" transform="translate(-9.45 79.5) rotate(-50.44)"/></g></g></g></svg>