<svg xmlns="http://www.w3.org/2000/svg" viewBox="0 0 141.4 124.01"><defs><style>.cls-1{fill:#5a00ff;}.cls-2{fill:#48ecff;}.cls-3{fill:#fff;}</style></defs><title>Asset 5</title><g id="Layer_2" data-name="Layer 2"><g id="Layer_1-2" data-name="Layer 1"><rect class="cls-1" y="31.07" width="16.57" height="92.93"/><rect class="cls-1" x="25.45" y="1.39" width="16.57" height="122.62"/><rect class="cls-1" x="50.9" y="45.64" width="16.57" height="78.36"/><rect class="cls-1" x="76.35" y="22.04" width="16.57" height="101.96"/><circle class="cls-2" cx="46.26" cy="43.28" r="2.44"/><path class="cls-2" d="M46.26,46.13a2.85,2.85,0,0,1-.51-5.65h0a2.85,2.85,0,0,1,1,5.6A2.94,2.94,0,0,1,46.26,46.13Zm-.37-4.85a2,2,0,1,0,2.37,1.63,2,2,0,0,0-2.37-1.63Z"/><circle class="cls-2" cx="67.1" cy="56.83" r="2.44"/><path class="cls-2" d="M67.11,59.68A2.85,2.85,0,0,1,66.59,54h0a2.84,2.84,0,0,1,2.13.46,2.77,2.77,0,0,1,1.18,1.83,2.82,2.82,0,0,1-.45,2.13,2.9,2.9,0,0,1-1.83,1.18A3.14,3.14,0,0,1,67.11,59.68Zm0-4.89a2.33,2.33,0,0,0-.37,0h0a2,2,0,1,0,2,3.16,2,2,0,0,0,.32-1.52,2,2,0,0,0-2-1.68Z"/><line class="cls-2" x1="48.44" y1="44.37" x2="65.4" y2="55.65"/><rect class="cls-2" x="56.52" y="39.83" width="0.81" height="20.37" transform="translate(-16.25 69.68) rotate(-56.34)"/><circle class="cls-2" cx="134.53" cy="4.07" r="4.07"/><circle class="cls-2" cx="100.98" cy="77.02" r="4.07"/><line class="cls-2" x1="124.77" y1="25.56" x2="102.45" y2="73.9"/><polygon class="cls-2" points="102.82 74.07 102.09 73.73 124.4 25.39 125.14 25.73 102.82 74.07"/><line class="cls-2" x1="133.58" y1="6.65" x2="124.77" y2="25.56"/><rect class="cls-2" x="118.74" y="15.7" width="20.86" height="0.81" transform="translate(60.01 126.38) rotate(-65.01)"/><circle class="cls-2" cx="76.43" cy="62.1" r="2.06"/><circle class="cls-2" cx="88.12" cy="69.68" r="3.56"/><circle class="cls-2" cx="33.83" cy="39.76" r="4.07"/><line class="cls-2" x1="24.07" y1="61.26" x2="9.89" y2="90.63"/><polygon class="cls-2" points="10.25 90.81 9.52 90.45 23.7 61.08 24.43 61.43 10.25 90.81"/><line class="cls-2" x1="32.88" y1="42.34" x2="19.86" y2="70.29"/><rect class="cls-2" x="10.96" y="55.91" width="30.82" height="0.81" transform="translate(-35.81 56.42) rotate(-65.01)"/><circle class="cls-2" cx="8.42" cy="93.75" r="4.07"/><circle class="cls-2" cx="122.95" cy="74.68" r="9.89"/><path class="cls-3" d="M126.26,70.21a.28.28,0,0,1,.19.31c0,.26,0,.52,0,.78a.2.2,0,0,1-.18.2h-1.87a.15.15,0,0,0,0,.08,2.76,2.76,0,0,1,.42,1,.11.11,0,0,0,.13.1h1.18c.22,0,.31.09.31.31v.69c0,.22-.09.3-.31.31H125c-.08,0-.11,0-.12.09a2.85,2.85,0,0,1-.79,1.55,3.2,3.2,0,0,1-1.16.76,4.42,4.42,0,0,1-1.07.27l-.12,0a.09.09,0,0,0,0,.06l1,1.15,1,1.22,1.4,1.69,0,0a.27.27,0,0,1-.07.47h-1.68l-.19-.17-.82-1-.72-.84c-.41-.47-.81-.94-1.22-1.4l-1.06-1.16a.34.34,0,0,1-.09-.24c0-.3,0-.6,0-.91a.27.27,0,0,1,.3-.3h.81a4,4,0,0,0,1.41-.21,1.79,1.79,0,0,0,.86-.63A1.26,1.26,0,0,0,123,74h-3.24l-.15,0a.18.18,0,0,1-.19-.19c0-.3,0-.59,0-.88a.21.21,0,0,1,.21-.21h3.25s0,0,0-.06a1.41,1.41,0,0,0-.75-.61,3.21,3.21,0,0,0-1.19-.21h-1.2c-.22,0-.31-.1-.31-.31s0-.62,0-.93a.3.3,0,0,1,.19-.31Z"/><circle class="cls-2" cx="131.51" cy="97.08" r="9.89"/><path class="cls-3" d="M134.83,92.61a.31.31,0,0,1,.19.31c0,.26,0,.52,0,.78a.21.21,0,0,1-.19.2h-.14c-.54,0-1.08,0-1.62,0H133s0,.06,0,.08a2.58,2.58,0,0,1,.42,1c0,.08.06.1.14.1h1.17c.23,0,.31.08.31.3V96c0,.22-.08.31-.31.31h-1.16c-.07,0-.1,0-.12.1a2.91,2.91,0,0,1-.78,1.54,3.33,3.33,0,0,1-1.17.76,3.94,3.94,0,0,1-1.06.27l-.13,0s0,0,0,.06c.34.38.68.75,1,1.14l1,1.22,1.41,1.7a0,0,0,0,0,0,0,.27.27,0,0,1-.07.47h-1.68a1.45,1.45,0,0,1-.19-.17c-.27-.32-.54-.65-.82-1l-.72-.85c-.41-.46-.81-.93-1.22-1.4l-1.06-1.16a.33.33,0,0,1-.09-.23V98c0-.21.1-.3.31-.3s.54,0,.81,0a3.91,3.91,0,0,0,1.4-.22,1.7,1.7,0,0,0,.86-.63,1.45,1.45,0,0,0,.22-.47h-3.4c-.12,0-.19-.08-.19-.2,0-.29,0-.59,0-.88a.21.21,0,0,1,.21-.21h3.26s0-.06,0-.07a1.41,1.41,0,0,0-.75-.61,3.43,3.43,0,0,0-1.19-.21h-1.2c-.21,0-.31-.09-.31-.3v-.94a.31.31,0,0,1,.18-.31Z"/><circle class="cls-2" cx="106.81" cy="103.64" r="9.89"/><path class="cls-3" d="M110.12,99.17a.27.27,0,0,1,.19.3c0,.26,0,.53,0,.79a.2.2,0,0,1-.19.2h-1.87l0,.08a2.6,2.6,0,0,1,.43,1c0,.08.05.09.13.09H110c.23,0,.32.08.32.31v.69c0,.22-.09.3-.31.3h-1.16c-.08,0-.11,0-.12.1a2.89,2.89,0,0,1-.79,1.55,3.34,3.34,0,0,1-1.16.76,4.94,4.94,0,0,1-1.07.27l-.12,0,0,.06,1,1.14,1,1.23c.48.56.94,1.13,1.41,1.69,0,0,0,0,0,0,.19.19.12.36-.07.47h-1.67c-.06-.06-.14-.11-.19-.17l-.82-1-.72-.84c-.41-.47-.81-.94-1.23-1.4s-.7-.78-1.05-1.16a.33.33,0,0,1-.1-.24c0-.3,0-.61,0-.91a.26.26,0,0,1,.3-.3h.81a4,4,0,0,0,1.41-.21,1.86,1.86,0,0,0,.86-.63,1.49,1.49,0,0,0,.21-.48h-3.39c-.12,0-.19-.08-.19-.2,0-.29,0-.58,0-.88,0-.12.08-.19.21-.2h3.25a.64.64,0,0,0,0-.07,1.41,1.41,0,0,0-.75-.61,3.27,3.27,0,0,0-1.19-.2h-1.2c-.22,0-.31-.1-.31-.31s0-.62,0-.93a.3.3,0,0,1,.19-.31Z"/></g></g></svg>