<svg xmlns="http://www.w3.org/2000/svg" xmlns:xlink="http://www.w3.org/1999/xlink" viewBox="0 0 90.36 115.96"><defs><style>.cls-1{isolation:isolate;}.cls-11,.cls-12,.cls-2{fill:none;stroke-miterlimit:10;}.cls-12,.cls-2{stroke:#00e5ff;}.cls-2{stroke-width:0.87px;}.cls-3{fill:#5a00ff;}.cls-4{opacity:0.35;fill:url(#linear-gradient);}.cls-10,.cls-4,.cls-8{mix-blend-mode:multiply;}.cls-5{fill:#fff;opacity:0.34;}.cls-6{fill:#00e5ff;}.cls-7{fill:#4605e5;}.cls-8{opacity:0.47;fill:url(#linear-gradient-2);}.cls-9{fill:#6238e5;}.cls-10{opacity:0.16;fill:url(#linear-gradient-3);}.cls-11{stroke:#5a00ff;stroke-width:1.92px;}.cls-12{stroke-width:0.96px;}</style><linearGradient id="linear-gradient" y1="65.03" x2="81.15" y2="65.03" gradientUnits="userSpaceOnUse"><stop offset="0" stop-color="#fff" stop-opacity="0"/><stop offset="1" stop-color="#f7931e"/></linearGradient><linearGradient id="linear-gradient-2" x1="43.09" y1="106.59" x2="43.04" y2="101.41" xlink:href="#linear-gradient"/><linearGradient id="linear-gradient-3" x1="43.77" y1="107.7" x2="43.35" y2="117.36" xlink:href="#linear-gradient"/></defs><title>Asset 6</title><g class="cls-1"><g id="Layer_2" data-name="Layer 2"><g id="Layer_1-2" data-name="Layer 1"><line class="cls-2" x1="58.93" y1="4.22" x2="60.61" y2="0.17"/><path class="cls-3" d="M32,29.72H58.39a32,32,0,0,1,32,32V89.55a12.5,12.5,0,0,1-12.5,12.5H12.5A12.5,12.5,0,0,1,0,89.55V61.7A32,32,0,0,1,32,29.72Z"/><path class="cls-4" d="M9.67,92.71c0-31.32,26.4-56.71,59-56.71h0c3.91,0,9.11.58,12.51,1.92C75.36,33.76,67.09,29.73,59,29.73H37.41c-20.15,0-37.24,8-37.24,27.41L0,87c0,5.66,7.24,11.58,11,13.31a29.27,29.27,0,0,1-1.37-7Z"/><path class="cls-5" d="M38.63,43.59H52.06A23.67,23.67,0,0,1,75.73,67.26v23.4a0,0,0,0,1,0,0H15a0,0,0,0,1,0,0V67.26A23.67,23.67,0,0,1,38.63,43.59Z"/><circle class="cls-6" cx="34.7" cy="55.45" r="3.01"/><circle class="cls-6" cx="59.77" cy="55.45" r="3.01"/><rect class="cls-7" x="25.24" y="102.05" width="35.65" height="6.43"/><rect class="cls-8" x="25.24" y="102.05" width="35.65" height="3.94"/><path class="cls-9" d="M21.56,108.48H65.2a1.59,1.59,0,0,1,1.59,1.59V116a0,0,0,0,1,0,0H20a0,0,0,0,1,0,0v-5.88A1.59,1.59,0,0,1,21.56,108.48Z"/><path class="cls-10" d="M21.67,108.48H65.41A1.59,1.59,0,0,1,67,110.08V116a0,0,0,0,1,0,0H20.07a0,0,0,0,1,0,0v-5.88A1.59,1.59,0,0,1,21.67,108.48Z"/><line class="cls-11" x1="48.81" y1="32.2" x2="55.43" y2="15.17"/><circle class="cls-6" cx="56.81" cy="11.7" r="4.09"/><line class="cls-12" x1="50.18" y1="5.85" x2="46.81" y2="2.36"/><line class="cls-12" x1="65.01" y1="10.52" x2="69.73" y2="9.41"/></g></g></g></svg>