<svg xmlns="http://www.w3.org/2000/svg" viewBox="0 0 375 143.29"><defs><style>.cls-1,.cls-2{fill:#00a2ed;}.cls-1{opacity:0.5;}</style></defs><title>Asset 2</title><g id="Layer_2" data-name="Layer 2"><g id="Layer_1-2" data-name="Layer 1"><path class="cls-1" d="M0,51c13.19-7.7,26.58-15.08,40.06-22.24,11.25-6,22.59-11.81,34.13-17.18C83.84,7.08,93.56.92,104.38.1c11.83-.9,22.94,4.62,33.77,8.64C153,14.27,167.77,20,182.91,24.68c22.23,6.8,45.45,9.3,68.53,10.72,22.65,1.39,45.43,3,68.13,3.19,11.42.12,22.95,0,34.31-1.44,6.7-.84,15.82-1.68,21.06-6.64V143.29H0Z"/><path class="cls-1" d="M0,61.49v81.8H374.94V65.73c0-4.41,0-8.83.06-13.24,0,1.14-22.81,3.55-25,3.79-8.65.95-17.35,1.53-26.05,1.75-16.81.41-33.36-1.47-50.11-2.2-17.34-.75-34.75-.34-52-2.16-17.68-1.85-33.49-7.92-50.51-12.51C152,35.94,131.75,33,111.73,34.42,88.94,36.07,69,46.18,47.22,51.78c-9.53,2.45-19,5-28.64,7.14C13.54,60,5.19,63.19,0,61.49Z"/><path class="cls-2" d="M0,143.29H374.94V86.17c0-1.16-16.07-4.21-17.1-4.43a499.69,499.69,0,0,0-55.49-8.42c-27.22-2.78-54.57-3.87-81.87-5.45-13.81-.8-27.62-1.72-41.39-3.05-13.29-1.29-26.28-4.27-39.52-5.8C110.7,55.68,84.06,60.11,56,66.51c-9.52,2.17-19,4.63-28.34,7.45C24.91,74.8,0,81.45,0,83.57Z"/></g></g></svg>