<svg xmlns="http://www.w3.org/2000/svg" width="16" height="16" viewBox="0 0 16 16"><g><g opacity=".5"><path fill="#fff" d="M0 1a1 1 0 0 1 1-1h14a1 1 0 0 1 1 1v14a1 1 0 0 1-1 1H1a1 1 0 0 1-1-1zm12.778 3.947c-.364.16-.751.267-1.155.319.415-.25.733-.643.882-1.116a3.989 3.989 0 0 1-1.271.489A2.002 2.002 0 0 0 9.769 4c-1.11 0-2.003.907-2.003 2.02 0 .16.014.313.047.46A5.66 5.66 0 0 1 3.68 4.367a2.025 2.025 0 0 0 .616 2.698 1.97 1.97 0 0 1-.906-.249v.022c0 .981.695 1.796 1.606 1.984a1.988 1.988 0 0 1-.525.066 1.76 1.76 0 0 1-.38-.034c.26.8.997 1.387 1.873 1.406A4.01 4.01 0 0 1 3 11.094c.888.577 1.94.906 3.075.906 3.689 0 5.705-3.077 5.705-5.744 0-.09-.003-.175-.007-.26.398-.285.732-.64 1.005-1.049z"/></g></g></svg>