<svg xmlns="http://www.w3.org/2000/svg" width="16" height="16" viewBox="0 0 16 16"><g><g><g opacity=".5"><path fill="#fff" d="M0 1a1 1 0 0 1 1-1h14a1 1 0 0 1 1 1v14a1 1 0 0 1-1 1H1a1 1 0 0 1-1-1z"/></g><g><g><path d="M12.053 9.868c0 1.204-.98 2.185-2.185 2.185H6.122a2.187 2.187 0 0 1-2.185-2.185V6.122c0-1.204.98-2.185 2.185-2.185h3.746c1.204 0 2.185.98 2.185 2.185zM9.875 3h-3.75A3.125 3.125 0 0 0 3 6.125v3.75C3 11.601 4.4 13 6.125 13h3.75C11.601 13 13 11.6 13 9.875v-3.75C13 4.399 11.6 3 9.875 3z"/></g><g><path d="M7.995 9.553a1.56 1.56 0 0 1-1.557-1.558c0-.86.699-1.558 1.557-1.558a1.56 1.56 0 0 1 1.558 1.558 1.56 1.56 0 0 1-1.558 1.558zM8 5.5a2.5 2.5 0 1 0 0 5 2.5 2.5 0 0 0 0-5z"/></g><g><path d="M10.683 5.646a.333.333 0 1 0 0-.666.333.333 0 0 0 0 .666z"/></g></g></g></g></svg>