<svg xmlns="http://www.w3.org/2000/svg" width="16" height="16" viewBox="0 0 16 16"><g><g><path fill="#0077b7" d="M13.934 14.247H12.01a.388.388 0 0 1-.388-.388v-3.53c0-.526.155-2.307-1.374-2.307-1.186 0-1.426 1.219-1.475 1.766v4.07a.388.388 0 0 1-.387.389h-1.86a.388.388 0 0 1-.388-.388V6.266c0-.214.174-.387.387-.387h1.861c.214 0 .387.173.387.387v.657c.44-.66 1.094-1.17 2.485-1.17 3.08 0 3.063 2.88 3.063 4.464v3.642a.388.388 0 0 1-.387.388zM3.634 5.17a1.703 1.703 0 1 1 0-3.407 1.703 1.703 0 0 1 0 3.407zm1.307 8.645a.42.42 0 0 1-.42.422H2.736a.42.42 0 0 1-.42-.422V6.3a.42.42 0 0 1 .42-.422h1.787a.42.42 0 0 1 .42.422zM14.553 0H1.447C.648 0 0 .648 0 1.447v13.106C0 15.352.648 16 1.447 16h13.106c.799 0 1.447-.648 1.447-1.447V1.447C16 .648 15.352 0 14.553 0z"/></g></g></svg>