<svg xmlns="http://www.w3.org/2000/svg" width="11" height="8" viewBox="0 0 11 8"><g><g><g><path fill="#5d7481" d="M9.582 0H.925A.912.912 0 0 0 .53.093l4.703 4.703 1.054-1.013 3.69-3.69A.912.912 0 0 0 9.582 0z"/></g><g><path fill="#5d7481" d="M10.412.53L6.94 4.002l3.472 3.473a.912.912 0 0 0 .093-.396V.925a.912.912 0 0 0-.093-.395z"/></g><g><path fill="#5d7481" d="M.093.53A.912.912 0 0 0 0 .925V7.08c0 .142.035.275.092.396l3.473-3.473z"/></g><g><path fill="#5d7481" d="M6.505 4.44L5.451 5.453a.307.307 0 0 1-.435 0L4.003 4.44.53 7.912c.12.058.253.093.396.093h8.656a.912.912 0 0 0 .395-.093z"/></g></g></g></svg>