<?xml version="1.0" encoding="utf-8"?>
<!-- Generator: Adobe Illustrator 24.1.1, SVG Export Plug-In . SVG Version: 6.00 Build 0)  -->
<svg version="1.1" id="Layer_1" xmlns="http://www.w3.org/2000/svg" xmlns:xlink="http://www.w3.org/1999/xlink" x="0px" y="0px"
	 viewBox="0 0 841.9 587.7" style="enable-background:new 0 0 841.9 587.7;" xml:space="preserve">
<style type="text/css">
	.st0{fill:none;stroke:#231F20;stroke-miterlimit:10;stroke-dasharray:7;}
	.st1{fill:#FFFFFF;stroke:#231F20;stroke-miterlimit:10;}
	.st2{fill:#FFFFFF;}
	.st3{fill:none;stroke:#FFFFFF;stroke-miterlimit:10;}
	.st4{fill:#9C5AFA;}
	.st5{fill:#47EBFF;}
	.st6{fill:#9257FF;}
	.st7{fill:#3400F5;}
	.st8{fill:#3000A0;}
	.st9{fill:#A885FF;}
	.st10{fill:none;stroke:#231F20;stroke-miterlimit:10;}
	.st11{fill:#4C31BC;}
	.st12{opacity:0.39;}
	.st13{fill:#5B43BF;}
	.st14{fill:#E5E1FF;}
	.st15{fill:none;stroke:#1E0A5B;stroke-width:3;stroke-linecap:round;stroke-linejoin:round;stroke-miterlimit:10;}
	.st16{fill:#7A50E2;}
	.st17{fill:#31DBE8;}
	.st18{fill:#D2C9F4;}
	.st19{fill:#1E0A5B;}
	.st20{fill:#E5DCFF;}
	.st21{fill:#33C9CC;}
	.st22{fill:none;stroke:#3000A0;stroke-width:2;stroke-linecap:round;stroke-miterlimit:10;}
	.st23{opacity:0.64;fill:#B2A9EA;}
	.st24{fill:none;stroke:#9257FF;stroke-width:3;stroke-linecap:round;stroke-miterlimit:10;}
	.st25{fill:none;stroke:#3000A0;stroke-width:3;stroke-linecap:round;stroke-miterlimit:10;}
	.st26{fill:none;stroke:#FFFFFF;stroke-linecap:round;stroke-miterlimit:10;}
	.st27{fill:none;stroke:#1E0A5B;stroke-width:8;stroke-linecap:round;stroke-linejoin:round;stroke-miterlimit:10;}
	.st28{fill:#623DD8;}
	.st29{fill:none;stroke:#3400F5;stroke-width:3;stroke-linecap:round;stroke-linejoin:round;stroke-miterlimit:10;}
	.st30{fill:none;stroke:#1E0A5B;stroke-width:5;stroke-miterlimit:10;}
</style>
<path class="st0" d="M622.2,211.9c-9.3,1.3-16.2,10.3-17.6,19.7c-1.4,9.3,1.5,18.8,5.4,27.3c3.9,8.6,8.8,16.8,11.6,25.8
	c6.8,21.8,0.2,46.5-14.4,64c-14.6,17.5-36.3,28.2-58.7,32.3"/>
<path class="st0" d="M198,368.4c-4.6-27.5-10.8-55.7-26.5-78.8s-42.9-40.3-70.6-36.6c-5.9,0.8-11.9,2.6-16.2,6.8
	c-4.3,4.1-6.3,11-3.4,16.3c4.1,7.6,16,7.4,22.5,1.7c6.5-5.7,8.8-14.7,10.4-23.2c7.5-39.7,6.5-81.3,20.4-119.3
	c4-10.9,9.4-21.6,17.5-29.9c14.8-15.1,36.9-20.6,58-22.8"/>
<g>
	<g>
		<path class="st13" d="M583.6,499.2H191.7c-4.1,0-7.4-3.3-7.4-7.4V153.8c0-4.1,3.3-7.4,7.4-7.4h391.9c4.1,0,7.4,3.3,7.4,7.4v337.9
			C591,495.8,587.7,499.2,583.6,499.2z"/>
		<line class="st3" x1="184.3" y1="178.1" x2="575.5" y2="178.1"/>
		<g>
			<circle class="st2" cx="201.6" cy="162.9" r="4.4"/>
			<circle class="st2" cx="218.4" cy="162.9" r="4.4"/>
			<circle class="st2" cx="235.3" cy="162.9" r="4.4"/>
		</g>
	</g>
	<g>
		<path class="st14" d="M391,324.7L391,324.7l-118.2-76.4V121.5c0-8.6,6.9-15.5,15.5-15.5h204.8c8.6,0,15.5,6.9,15.5,15.5v130.7
			L391,324.7z"/>
		<g class="st12">
			<g>
				<path class="st9" d="M430.1,137h-78.8c-4,0-7.2-3.2-7.2-7.2v-0.4c0-4,3.2-7.2,7.2-7.2h78.8c4,0,7.2,3.2,7.2,7.2v0.4
					C437.3,133.8,434.1,137,430.1,137z"/>
				<g>
					<path class="st9" d="M483,162H379.2c-1.3,0-2.3-1-2.3-2.3v-0.1c0-1.3,1-2.3,2.3-2.3H483c1.3,0,2.3,1,2.3,2.3v0.1
						C485.3,160.9,484.3,162,483,162z"/>
					<path class="st9" d="M483,176.7H379.2c-1.3,0-2.3-1-2.3-2.3v-0.1c0-1.3,1-2.3,2.3-2.3H483c1.3,0,2.3,1,2.3,2.3v0.1
						C485.3,175.7,484.3,176.7,483,176.7z"/>
					<path class="st9" d="M483,191.4H379.2c-1.3,0-2.3-1-2.3-2.3V189c0-1.3,1-2.3,2.3-2.3H483c1.3,0,2.3,1,2.3,2.3v0.1
						C485.3,190.4,484.3,191.4,483,191.4z"/>
					<path class="st9" d="M483,204H379.2c-1.3,0-2.3-1-2.3-2.3v-0.1c0-1.3,1-2.3,2.3-2.3H483c1.3,0,2.3,1,2.3,2.3v0.1
						C485.3,203,484.3,204,483,204z"/>
					<path class="st9" d="M483,216.6H379.2c-1.3,0-2.3-1-2.3-2.3v-0.1c0-1.3,1-2.3,2.3-2.3H483c1.3,0,2.3,1,2.3,2.3v0.1
						C485.3,215.6,484.3,216.6,483,216.6z"/>
				</g>
				<path class="st9" d="M345.1,216.6h-38.8c-5.7,0-10.3-4.6-10.3-10.3v-38.8c0-5.7,4.6-10.3,10.3-10.3h38.8
					c5.7,0,10.3,4.6,10.3,10.3v38.8C355.3,212,350.7,216.6,345.1,216.6z"/>
				<path class="st9" d="M483.7,245.5H303c-2.4,0-4.3-1.9-4.3-4.3v-0.2c0-2.4,1.9-4.3,4.3-4.3h180.7c2.4,0,4.3,1.9,4.3,4.3v0.2
					C488,243.6,486.1,245.5,483.7,245.5z"/>
				<rect x="298.8" y="257" class="st9" width="189.3" height="3.4"/>
				<rect x="298.8" y="271.8" class="st9" width="189.3" height="3.4"/>
				<rect x="298.8" y="286.6" class="st9" width="189.3" height="3.4"/>
			</g>
		</g>
		<path class="st5" d="M416.5,462h-46.3c-4.6,0-8.4-3.8-8.4-8.4l0,0c0-4.6,3.8-8.4,8.4-8.4h46.3c4.6,0,8.4,3.8,8.4,8.4l0,0
			C424.9,458.3,421.1,462,416.5,462z"/>
		<g>
			<polygon class="st9" points="528.4,408.8 258.3,408.8 258.3,234.2 387.9,320.2 528.4,234.2 			"/>
			<polyline class="st10" points="258.3,234.2 387.9,320.2 528.4,234.2 			"/>
			<line class="st1" x1="424.3" y1="296.7" x2="528.4" y2="408.8"/>
			<line class="st10" x1="351.5" y1="296.7" x2="258.3" y2="408.8"/>
		</g>
	</g>
</g>
<g>
	<rect x="658.5" y="473.8" class="st8" width="90" height="74"/>
	<g>
		<g>
			<g>
				<line class="st15" x1="561.7" y1="423.9" x2="641.2" y2="547.3"/>
				<line class="st15" x1="648.6" y1="423.9" x2="569.1" y2="547.3"/>
			</g>
		</g>
		<path class="st16" d="M677.8,434.4l-40,12.1c-5.4,1.3-8.3,7.1-6.2,12.2l30.2,78.6h13.6l-13.7-65.9c2-2,44.6-37.1,44.6-37.1H677.8z
			"/>
		<path class="st5" d="M690.2,371.4l-15,24.5l7.5,12.6l-5,25.9l54,4.1l-6.4-67.1l-15-20.1c0,0-9.9,16-16,13.3L690.2,371.4z"/>
		<polyline class="st17" points="694.3,364.6 690.2,371.4 675.3,395.9 680,403.9 		"/>
		<polygon class="st18" points="675.3,395.9 635.1,408 635.1,411.9 682.7,408.5 		"/>
		<path class="st19" d="M676.1,427.4H547.7c-1.9,0-3.5-1.6-3.5-3.5l0,0c0-1.9,1.6-3.5,3.5-3.5h128.4c1.9,0,3.5,1.6,3.5,3.5l0,0
			C679.5,425.9,678,427.4,676.1,427.4z"/>
		<path class="st6" d="M700.3,436.1l-56.8,17.5c-4.6,1.4-8.3,5-9.8,9.6l-24.8,73.7h16c0,0,32-43.9,33.4-63.7l48.9,1.6
			c8.7,0.3,16.8-4.5,20.8-12.3c3.1-6.2,3.9-24,3.9-24L700.3,436.1z"/>
		<polygon class="st20" points="684.2,401.9 673,407.2 629.3,412.6 629.3,420.5 679.5,420.5 701.5,409.4 		"/>
		<polyline class="st5" points="702.2,367.4 682.7,400.5 698.2,415.1 723.6,386.1 		"/>
		<polygon class="st7" points="639.2,420.8 570.2,420.8 557.8,368.9 626.7,368.9 		"/>
		<path class="st18" d="M693.3,359.1l1,5.5c0,0-0.9,9.4,8.5-0.7l3.5-5.7l-9.7-8.4L693.3,359.1z"/>
		<path class="st20" d="M701.9,351.2c-2,3.9-5.6,7-9.8,8.4c-2.1,0.7-4.5,1-6.6,0.1c-0.9-0.4-1.7-1.1-2.5-1.8
			c-4.7-4.5-6.3-11.1-7.8-17.4c-0.4-1.6-0.7-3.1-1.1-4.7l24.6-6.1l9.7,8.9"/>
		<path class="st18" d="M698.8,329.7l-24.6,6.1c0.4,1.6,0.7,3.1,1.1,4.7c0.1,0.4-0.1-0.4,0,0c9.9,0,21,1,29.4,5.5l3.8-7.3
			L698.8,329.7z"/>
		<path class="st19" d="M733.3,405.1c1.4-2.8,5-25.3,5.2-28.4c0.5-7.3-3.8-14-8.4-19.5c-4.4-5.3-9.3-10.6-12.1-17.1
			c-2.8-6.5-2-14.8-8-19.7c-5-4.1-12.1-5.5-18.3-6.7c-3.4-0.7-7-1-10.2,0.4c-6.1,2.7-12.8,11.8-12.1,18.7c0.3,3.2,3.9,5.4,6.8,6
			c3.3,0.7,6.8,0.1,10.2,0.3c1.5,0.1,3,0.4,4.2,1.2c1.2,0.8,2.4,0.9,2.1,2.4c-0.3-1.9,0.1-2.6,1.6-3.8c0.4-0.4,0.9-0.7,1.5-0.6
			c0.8,0,1.4,0.8,1.6,1.6c0.1,0.8-0.1,1.6-0.4,2.3c1.7,2.3,2.5,5.7,2.6,8.5c0.1,2.1-0.2,4.2,0.1,6.3c0.3,1.7,1,3.3,1.8,4.8
			c4.3,7.9,11.2,14,18.4,19.2c0.8,0.6,1.6,1.1,2.1,1.9c0.4,0.5,0.6,1.1,0.9,1.7c0.9,2.3,1.6,4.7,2,7.1c0.5,2.9,0.6,6,1.8,8.8
			C727.8,403.1,730.3,405.1,733.3,405.1z"/>
		<path class="st20" d="M695.1,337.7c-4.5,0-4.5,7,0,7C699.6,344.7,699.6,337.7,695.1,337.7z"/>
	</g>
	<path class="st19" d="M624.9,536.9v10.9h-32.3c0,0,0.2-6.8,6.1-8.5c6-1.7,10.1-2.4,10.1-2.4H624.9z"/>
	<path class="st19" d="M675.8,537.4v9.9h-29.1c0,0,0.2-6.1,5.5-7.7c5.4-1.5,9.1-2.2,9.1-2.2H675.8z"/>
	<polygon class="st17" points="698.2,415.1 719.1,391.2 717.5,398.1 	"/>
	<path class="st21" d="M678.5,430.8c0-0.1,45.1,7.2,45.1,7.2l-45.8-3.5L678.5,430.8z"/>
	<line class="st3" x1="557.8" y1="368.9" x2="570.2" y2="420.8"/>
</g>
<line class="st22" x1="161.1" y1="499.2" x2="583.6" y2="499.2"/>
<line class="st22" x1="128.5" y1="499.2" x2="153" y2="499.2"/>
<line class="st22" x1="105.5" y1="499.2" x2="118.7" y2="499.2"/>
<g>
	<line class="st22" x1="534.9" y1="547.8" x2="773.4" y2="547.8"/>
	<line class="st22" x1="508.6" y1="547.8" x2="523.2" y2="547.8"/>
</g>
<polygon class="st18" points="684.2,401.9 692.4,414 695.4,412.5 "/>
<polygon class="st23" points="675.3,395.9 680,403.9 675.7,405.9 "/>
<g>
	<g>
		<polygon class="st6" points="258.3,71.9 197.8,112.2 204.8,82.4 176.6,64.9 		"/>
		<polygon class="st9" points="258.3,71.9 204.8,82.4 176.6,64.9 		"/>
	</g>
	<line class="st10" x1="204.8" y1="82.4" x2="249.4" y2="73.6"/>
</g>
<path class="st24" d="M644,185.4l-4.8,8.8c-1.6,3-0.6,6.7,2.4,8.3l0,0c3,1.6,6.6,0.5,8.2-2.5l6.1-11.3c2.5-4.7,0.8-10.5-3.8-13v0
	c-4.7-2.6-10.5-0.9-13.1,3.8l-12.5,22.8c-2.6,4.7-0.8,10.5,3.8,13.1l0.1,0.1c4.7,2.6,10.6,0.8,13.1-3.9l1-1.9"/>
</svg>
