<?xml version="1.0" encoding="utf-8"?>
<!-- Generator: Adobe Illustrator 24.1.1, SVG Export Plug-In . SVG Version: 6.00 Build 0)  -->
<svg version="1.1" id="Layer_1" xmlns="http://www.w3.org/2000/svg" xmlns:xlink="http://www.w3.org/1999/xlink" x="0px" y="0px"
	 viewBox="0 0 841.9 582.4" style="enable-background:new 0 0 841.9 582.4;" xml:space="preserve">
<style type="text/css">
	.st0{fill:none;stroke:#231F20;stroke-miterlimit:10;stroke-dasharray:7;}
	.st1{fill:#FFFFFF;stroke:#231F20;stroke-miterlimit:10;}
	.st2{fill:#FFFFFF;}
	.st3{fill:none;stroke:#FFFFFF;stroke-miterlimit:10;}
	.st4{fill:#9C5AFA;}
	.st5{fill:#47EBFF;}
	.st6{fill:#9257FF;}
	.st7{fill:#3400F5;}
	.st8{fill:#3000A0;}
	.st9{fill:#A885FF;}
	.st10{fill:none;stroke:#231F20;stroke-miterlimit:10;}
	.st11{fill:#4C31BC;}
	.st12{opacity:0.39;}
	.st13{fill:#5B43BF;}
	.st14{fill:#E5E1FF;}
	.st15{fill:none;stroke:#1E0A5B;stroke-width:3;stroke-linecap:round;stroke-linejoin:round;stroke-miterlimit:10;}
	.st16{fill:#7A50E2;}
	.st17{fill:#31DBE8;}
	.st18{fill:#D2C9F4;}
	.st19{fill:#1E0A5B;}
	.st20{fill:#E5DCFF;}
	.st21{fill:#33C9CC;}
	.st22{fill:none;stroke:#3000A0;stroke-width:2;stroke-linecap:round;stroke-miterlimit:10;}
	.st23{opacity:0.64;fill:#B2A9EA;}
	.st24{fill:none;stroke:#9257FF;stroke-width:3;stroke-linecap:round;stroke-miterlimit:10;}
	.st25{fill:none;stroke:#3000A0;stroke-width:3;stroke-linecap:round;stroke-miterlimit:10;}
	.st26{fill:none;stroke:#FFFFFF;stroke-linecap:round;stroke-miterlimit:10;}
	.st27{fill:none;stroke:#1E0A5B;stroke-width:8;stroke-linecap:round;stroke-linejoin:round;stroke-miterlimit:10;}
	.st28{fill:#623DD8;}
	.st29{fill:none;stroke:#3400F5;stroke-width:3;stroke-linecap:round;stroke-linejoin:round;stroke-miterlimit:10;}
	.st30{fill:none;stroke:#1E0A5B;stroke-width:5;stroke-miterlimit:10;}
</style>
<path class="st0" d="M453.9,295.8c7.4-19.9,17.4-38.6,27.4-57.3c11.7-22,22.6-44.8,38.9-63.8c7.9-9.3,17.3-17.8,28.6-22.8
	c12.4-5.5,23.4-3.9,36.4-3.2c1.5,0.1,3,0.1,4.5,0.1c4.3,0.1,8.7,0.1,13-0.9c14.8-3.6,23.9-20.4,21.7-35.5"/>
<g>
	<line class="st22" x1="545.5" y1="545.3" x2="677.8" y2="545.3"/>
	<line class="st22" x1="306.8" y1="545.3" x2="533.8" y2="545.3"/>
</g>
<g>
	<path class="st27" d="M450.5,478.4h-59.1c-61.6,0-111.4-49.9-111.4-111.4V304h282V367C561.9,428.5,512.1,478.4,450.5,478.4z"/>
	<rect x="404" y="421.8" class="st19" width="34.9" height="113.3"/>
	<path class="st13" d="M443.4,450.7h-43.9c-45.7,0-82.7-37-82.7-82.7V132.9c0-45.7,37-82.7,82.7-82.7h43.9c45.7,0,82.7,37,82.7,82.7
		V368C526.1,413.7,489.1,450.7,443.4,450.7z"/>
	<path class="st8" d="M316.8,304.4v59.7c0,47.8,38.8,86.6,86.6,86.6h36c47.8,0,86.6-38.8,86.6-86.6v-59.7H316.8z"/>
	<path class="st6" d="M523.8,316.3H319c-6.8,0-12.3-5.5-12.3-12.3v0c0-6.8,5.5-12.3,12.3-12.3h204.8c6.8,0,12.3,5.5,12.3,12.3v0
		C536.1,310.8,530.6,316.3,523.8,316.3z"/>
	<path class="st19" d="M472.3,545.3h-94.7c-9.4,0-17-7.6-17-17v-10.6c0-9.4,7.6-17,17-17h94.7c9.4,0,17,7.6,17,17v10.6
		C489.3,537.7,481.7,545.3,472.3,545.3z"/>
	<g>
		<path class="st8" d="M377.7,171.6h-60.9v-16.8h60.9c3.7,0,6.6,3,6.6,6.6v3.5C384.3,168.7,381.4,171.6,377.7,171.6z"/>
		<path class="st8" d="M377.7,209.4h-60.9v-16.8h60.9c3.7,0,6.6,3,6.6,6.6v3.5C384.3,206.5,381.4,209.4,377.7,209.4z"/>
		<path class="st8" d="M377.7,247.2h-60.9v-16.8h60.9c3.7,0,6.6,3,6.6,6.6v3.5C384.3,244.3,381.4,247.2,377.7,247.2z"/>
	</g>
	<g>
		<path class="st8" d="M465.2,171.6h60.9v-16.8h-60.9c-3.7,0-6.6,3-6.6,6.6v3.5C458.5,168.7,461.5,171.6,465.2,171.6z"/>
		<path class="st8" d="M465.2,209.4h60.9v-16.8h-60.9c-3.7,0-6.6,3-6.6,6.6v3.5C458.5,206.5,461.5,209.4,465.2,209.4z"/>
		<path class="st8" d="M465.2,247.2h60.9v-16.8h-60.9c-3.7,0-6.6,3-6.6,6.6v3.5C458.5,244.3,461.5,247.2,465.2,247.2z"/>
	</g>
</g>
<g>
	<path class="st20" d="M662,285.4l0-11.1l5.3-7.2l10.2,1.8c0,2.9,1.5,10.3,2,11.4l-6.2,20.6L662,285.4z"/>
	<path class="st18" d="M679.3,279.6c-0.6-2.1-1.8-8.2-1.8-10.8l-10.2-1.8l-5.3,7.2l0,3.1C667.5,280.4,673.5,280.9,679.3,279.6z"/>
	<polyline class="st6" points="672.2,411.4 696.1,532.8 711.6,532.8 704.2,387.3 638.1,391.8 651.5,532.8 667.4,532.8 673.1,405.8 	
		"/>
	<path class="st20" d="M648.1,234.6c0,0-16.6,49,17.8,38.7l17.5-6.7l-6.7-34.2L648.1,234.6z"/>
	<path class="st20" d="M599.4,301.1c0-0.5-1.2-9.5-1.8-14.3c-0.2-1.9-1.2-3.6-2.7-4.8l-9.2-7.1c-1.2-0.9-2.9,0.1-2.6,1.6l0,0
		c0.1,0.3,0.2,0.6,0.5,0.9l6.4,6.4l-7.3,5.1c-2,1.4-3.2,3.7-3.2,6.1v0c0,2,0.8,3.9,2.3,5.4l7.3,7.1L599.4,301.1z"/>
	<path class="st18" d="M584.1,302.7l5,4.9l10.3-6.5c0-0.1-0.1-0.7-0.2-1.5C594.2,300.2,589.1,301.3,584.1,302.7z"/>
	<path class="st19" d="M678.1,273.9c1-0.3,21.7-18,11.4-41.5c-10.3-23.4-48.3-17.3-48.3-17.3s-11.8,20.4,15.9,21.9
		c27.7,1.5,23.3,14.1,23.3,14.1l-2.1,17.4L678.1,273.9z"/>
	<path class="st13" d="M681.2,243H674c-4.3,0-7.8,4.8-7.8,10.8s3.5,10.8,7.8,10.8h7.2"/>
	<path class="st13" d="M660.9,214.4c0.3,0.5,18,5.6,16.9,28.6l4.2,3.1l2.1-2.3c0,0,3.1-19.3-11.6-26.7L660.9,214.4z"/>
	<path class="st19" d="M667.6,533.1v12.8h-37.9c0,0,0.2-8,7.2-10c7-2,11.9-2.8,11.9-2.8H667.6z"/>
	<path class="st19" d="M711.6,532.8h-15.6l-6,21.3c0,0,0.2-8,7.2-10s17.3,10,17.3,10L711.6,532.8z"/>
	<path class="st19" d="M690.1,554.1c0,0-0.4-14.4,19.1-12.8l5.4,12.8H690.1z"/>
	<path class="st5" d="M662,285.4l-17.9,5.3c-3.4,1-6.2,3.5-7.5,6.8l-13,32.3l-24.2-28.7l-10.3,6.5l27.2,46.3c0.6,1.1,1.5,2,2.5,2.6
		l0.1,0.1c3.8,2.5,8.8,1.5,11.4-2.1c4.9-6.7,11.8-16.2,11.8-16.2l-3.9,53.5c0,0,41.4,7.3,68,0c0,0-9.1-62.6-7.3-76.2l26.9,22.4
		l-18.1,43.2l10.3,7.6l25.6-42.9c2.2-3.7,3-8,2.3-12.3l0,0c-0.7-3.8-2.5-7.4-5.4-10.1l-35.1-37.3c-3.6-3.9-8.7-6.1-14-6.1h-11.8
		C679.6,280.2,675.6,295,662,285.4z"/>
	<path class="st17" d="M589.2,307.6l2.1,3.6c-0.5-1.3-1-2.7-1.5-4L589.2,307.6z"/>
	<path class="st17" d="M623.4,351c-7.1-4.6-13.2-10.1-18.3-16.3l11.3,19.2c0.6,1.1,1.5,2,2.5,2.6l0.1,0.1c3.8,2.5,8.8,1.5,11.4-2.1
		c0.5-0.7,1.1-1.5,1.7-2.3C628.9,353.1,625.2,352.2,623.4,351z"/>
	<path class="st17" d="M696.4,385c-5,6-11.4,8.9-18.6,10c9.7-0.1,19.8-0.9,28.4-3.2c0,0-2.4-16.6-4.5-34.6
		C702.2,367.6,702.5,378.1,696.4,385z"/>
	<path class="st20" d="M707.5,382.6l-8.9,5.8c-0.7,0.5-1,1.3-0.8,2.1l2.5,9.3c0.1,0.6,0.5,1,1.1,1.3l5,2.2c0.4,0.2,0.9,0.2,1.3,0.1
		l5-1.5c1.3-0.4,1.8-1.9,1-3l0,0c-0.4-0.5-1.1-0.8-1.7-0.7l-0.9,0.1l3.1-2c0.4-0.2,0.6-0.6,0.8-1l2-5.6c0.3-0.8,0-1.7-0.7-2.2
		l-6.5-4.8C709,382.2,708.1,382.2,707.5,382.6z"/>
	<path class="st18" d="M716.1,387.4l-6.5-4.8c-0.6-0.5-1.5-0.5-2.2-0.1l-2.7,1.8c4.4,1.2,8.4,3,12.1,5.1
		C717,388.7,716.8,387.9,716.1,387.4z"/>
	<ellipse class="st6" cx="681.2" cy="253.8" rx="7.8" ry="10.8"/>
	<polygon class="st17" points="698.9,315.6 697.7,307.6 725.8,338 	"/>
	<polygon class="st17" points="642.1,338.3 644.1,316.3 638.8,341.2 	"/>
	<polygon class="st28" points="672.7,413.9 667.6,407.4 667.6,533.1 	"/>
</g>
<path class="st9" d="M277,519.1c-0.4,0.4-0.7,0.8-1,1.1c-4.4,4.4-8.9,8.8-13.3,13.3c-0.9,0.9-1.6,0.9-2.6,0.3
	c-2.8-1.6-5.6-3.2-8.4-4.8c-0.8-0.5-1.6-0.6-2.5-0.1c-0.9,0.5-1.8,1-2.7,1.2c-2.3,0.5-3.2,2-3.6,4.1c-0.6,2.6-1.4,5.2-2.1,7.8
	c-0.3,1.1-0.8,1.4-1.8,1.4c-6.3,0-12.6,0-19,0c-1.1,0-1.7-0.4-1.9-1.5c-0.8-3.2-1.8-6.3-2.6-9.5c-0.2-0.9-0.7-1.4-1.5-1.7
	c-1.4-0.5-2.9-1.1-4.2-1.7c-1-0.5-1.7-0.4-2.6,0.1c-2.8,1.6-5.6,3.2-8.4,4.8c-1,0.6-1.6,0.5-2.4-0.3c-4.4-4.5-8.8-8.9-13.3-13.3
	c-0.9-0.8-1-1.5-0.4-2.6c1.6-2.7,3.1-5.5,4.7-8.2c0.6-1,0.7-1.9,0.1-2.9c-0.5-0.9-1-1.8-1.2-2.7c-0.4-2-1.7-2.8-3.6-3.2
	c-2.7-0.6-5.3-1.5-8-2.1c-1.2-0.3-1.6-0.8-1.6-2c0.1-6.3,0.1-12.5,0-18.8c0-1.3,0.5-1.7,1.6-2c3.1-0.8,6.1-1.7,9.1-2.5
	c1.1-0.3,1.7-0.8,2-1.9c0.4-1.3,1-2.6,1.6-3.9c0.5-0.9,0.4-1.7-0.1-2.6c-1.6-2.7-3.1-5.5-4.7-8.2c-0.6-1-0.7-1.8,0.3-2.7
	c4.4-4.3,8.8-8.7,13.2-13.2c0.9-1,1.6-1,2.7-0.3c2.7,1.6,5.5,3.1,8.2,4.7c0.9,0.5,1.7,0.6,2.6,0.1c1.4-0.7,2.8-1.2,4.2-1.7
	c0.9-0.3,1.3-0.8,1.5-1.7c0.8-3.2,1.8-6.3,2.6-9.5c0.3-1.1,0.8-1.5,2-1.5c6.3,0,12.6,0,19,0c1.1,0,1.6,0.4,1.8,1.4
	c0.8,3.2,1.8,6.3,2.6,9.5c0.2,1,0.7,1.5,1.6,1.8c1.4,0.5,2.8,1.1,4.2,1.7c0.9,0.4,1.6,0.3,2.5-0.1c2.8-1.7,5.7-3.2,8.5-4.9
	c0.8-0.5,1.4-0.6,2.1,0.2c4.6,4.7,9.3,9.3,13.9,13.9c0.2,0.2,0.4,0.5,0.6,0.8c-1.2,2.1-2.2,4.4-3.6,6.4c-2.1,2.9-2.6,5.6-0.7,9
	c0.9,1.5,1.5,2.6,3.4,3c2.9,0.6,5.6,1.6,8.5,2.3c0.9,0.2,1.4,0.7,1.3,1.7c0,6.4,0,12.9,0,19.3c0,1-0.4,1.4-1.4,1.7
	c-3.2,0.8-6.3,1.8-9.5,2.6c-1,0.3-1.6,0.8-1.9,1.8c-0.4,1.3-1,2.6-1.6,3.9c-0.5,1-0.5,1.8,0.1,2.8c1.5,2.6,3,5.2,4.4,7.8
	C276.4,517.9,276.7,518.5,277,519.1z M206.2,487.1c0.2,12.8,10.1,23.2,23.3,23.3c13,0,23.3-10.2,23.3-23.3
	c0-13.1-10.4-23.2-23.2-23.3C216.5,463.8,206.3,474.1,206.2,487.1z"/>
<path class="st0" d="M379.5,512c-33.1-31.4-40.2-85.9-78.8-110.3c-22.5-14.2-50.7-14.7-77.3-14.4c-8.4,0.1-17.3,0.4-24.2,5.1
	c-6.9,4.7-10.4,15.4-4.8,21.6c6.7,7.2,19.3,2.4,25.4-5.3c10.3-12.9,11.4-31.1,7.5-47.1c-3.8-16-12-30.6-19-45.5
	c-12-25.8-20.6-53.2-25.4-81.3c-3.2-18.4-4.6-37.8,2.3-55.1s24.1-31.7,42.7-29.8"/>
<g>
	<polygon class="st7" points="252.4,163.3 232.8,157.1 223.4,135 233.1,116.7 	"/>
	
		<rect x="214.6" y="136.1" transform="matrix(0.9242 -0.3819 0.3819 0.9242 -39.6165 96.477)" class="st7" width="17.3" height="24"/>
	<g>
		<g>
			<path class="st29" d="M257,99.8c22.9,9.5,33.7,35.7,24.2,58.6"/>
			<path class="st29" d="M253.2,109c17.8,7.4,26.2,27.8,18.8,45.6"/>
			<path class="st29" d="M249.1,118.7c12.4,5.2,18.3,19.4,13.1,31.8"/>
		</g>
	</g>
</g>
<g>
	<path class="st30" d="M625.1,109l-9.1-16.1c-7.2-12.9-2.7-29.2,10.2-36.5l0,0c12.9-7.2,29.2-2.7,36.5,10.2l9.1,16.1"/>
	<g>
		<path class="st13" d="M635,126.5L635,126.5c-4.8,2.7-11,1-13.7-3.8l-5.3-9.4c-2.7-4.8-1-11,3.8-13.7v0c4.8-2.7,11-1,13.7,3.8
			l5.3,9.4C641.5,117.7,639.8,123.8,635,126.5z"/>
		<path class="st6" d="M619.8,99.5L619.8,99.5c-0.1,0-0.1,0.1-0.2,0.1l15.1,26.9c0.1,0,0.2-0.1,0.2-0.1l0,0
			c4.8-2.7,6.6-8.9,3.8-13.7l-5.3-9.4C630.8,98.5,624.7,96.8,619.8,99.5z"/>
	</g>
	<g>
		<path class="st13" d="M681.7,100.3L681.7,100.3c-4.8,2.7-11,1-13.7-3.8l-5.3-9.4c-2.7-4.8-1-11,3.8-13.7v0c4.8-2.7,11-1,13.7,3.8
			l5.3,9.4C688.2,91.4,686.5,97.6,681.7,100.3z"/>
		<path class="st6" d="M666.5,73.3L666.5,73.3c-0.1,0-0.1,0.1-0.2,0.1l15.1,26.9c0.1,0,0.2-0.1,0.2-0.1l0,0
			c4.8-2.7,6.6-8.9,3.8-13.7l-5.3-9.4C677.5,72.3,671.4,70.6,666.5,73.3z"/>
	</g>
</g>
</svg>
