<svg xmlns="http://www.w3.org/2000/svg" width="11" height="10" viewBox="0 0 11 10"><g><g><path fill="#fff" d="M8.423 4.54H7.51a.359.359 0 0 1 0-.717h.913a.359.359 0 0 1 0 .717zm-.37 4.743H2.696V6.349h5.359v2.934zM2.696.717h5.359v1.707H2.695zm7.227 1.717h-1.14V.36A.359.359 0 0 0 8.421 0H2.338a.359.359 0 0 0-.359.359v2.075H.837A.838.838 0 0 0 0 3.271V6.88c0 .462.375.837.837.837h1.141v1.925c0 .198.16.359.359.359h6.086c.198 0 .358-.16.358-.359V7.716h1.141a.838.838 0 0 0 .837-.837V3.271a.838.838 0 0 0-.837-.837z"/></g></g></svg>