<svg xmlns="http://www.w3.org/2000/svg" width="12" height="12" viewBox="0 0 12 12"><g><g><path fill="#5a00ff" d="M6.744 9.608a.614.614 0 0 1 .112-1.003.794.794 0 0 1 .912.103l.786.72V1.356c0-.36.322-.656.715-.656.393 0 .716.296.716.656V9.44l.786-.72a.797.797 0 0 1 .912-.103c.379.232.42.72.112 1.003l-2.09 1.915a.623.623 0 0 1-.843 0zM.205 2.782L2.295.867a.623.623 0 0 1 .843 0l2.09 1.915c.309.283.267.772-.112 1.003a.797.797 0 0 1-.912-.103l-.786-.72v8.073c0 .36-.323.655-.715.655-.393 0-.716-.295-.716-.655v-8.06l-.758.707a.794.794 0 0 1-.912.103c-.379-.231-.42-.72-.112-1.003z"/></g></g></svg>