<?xml version="1.0" encoding="utf-8"?>
<!-- Generator: Adobe Illustrator 24.1.1, SVG Export Plug-In . SVG Version: 6.00 Build 0)  -->
<svg version="1.1" id="Layer_1" xmlns="http://www.w3.org/2000/svg" xmlns:xlink="http://www.w3.org/1999/xlink" x="0px" y="0px"
	 viewBox="0 0 637.3 419.7" style="enable-background:new 0 0 637.3 419.7;" xml:space="preserve">
<style type="text/css">
	.st0{fill:none;stroke:#231F20;stroke-miterlimit:10;stroke-dasharray:7;}
	.st1{fill:#FFFFFF;stroke:#231F20;stroke-miterlimit:10;}
	.st2{fill:#FFFFFF;}
	.st3{fill:none;stroke:#FFFFFF;stroke-miterlimit:10;}
	.st4{fill:#9C5AFA;}
	.st5{fill:#47EBFF;}
	.st6{fill:#9257FF;}
	.st7{fill:#3400F5;}
	.st8{fill:#3000A0;}
	.st9{fill:#A885FF;}
	.st10{fill:none;stroke:#231F20;stroke-miterlimit:10;}
	.st11{fill:#4C31BC;}
	.st12{opacity:0.39;}
	.st13{fill:#5B43BF;}
	.st14{fill:#E5E1FF;}
	.st15{fill:none;stroke:#1E0A5B;stroke-width:3;stroke-linecap:round;stroke-linejoin:round;stroke-miterlimit:10;}
	.st16{fill:#7A50E2;}
	.st17{fill:#31DBE8;}
	.st18{fill:#D2C9F4;}
	.st19{fill:#1E0A5B;}
	.st20{fill:#E5DCFF;}
	.st21{fill:#33C9CC;}
	.st22{fill:none;stroke:#3000A0;stroke-width:2;stroke-linecap:round;stroke-miterlimit:10;}
	.st23{opacity:0.64;fill:#B2A9EA;}
	.st24{fill:none;stroke:#9257FF;stroke-width:3;stroke-linecap:round;stroke-miterlimit:10;}
	.st25{fill:none;stroke:#3000A0;stroke-width:3;stroke-linecap:round;stroke-miterlimit:10;}
	.st26{fill:none;stroke:#FFFFFF;stroke-linecap:round;stroke-miterlimit:10;}
	.st27{fill:none;stroke:#1E0A5B;stroke-width:8;stroke-linecap:round;stroke-linejoin:round;stroke-miterlimit:10;}
	.st28{fill:#623DD8;}
	.st29{fill:none;stroke:#3400F5;stroke-width:3;stroke-linecap:round;stroke-linejoin:round;stroke-miterlimit:10;}
	.st30{fill:none;stroke:#1E0A5B;stroke-width:5;stroke-miterlimit:10;}
</style>
<path class="st0" d="M139.7,160.4c1.2,9.8,2.3,19.6,1.3,29.4c-1.6,15.4-8.4,30.6-5,45.7c2.1,9.6,8.2,17.8,14.9,25
	c12.6,13.5,28.3,24.5,46.2,28.7"/>
<g>
	<g>
		<g>
			<polygon class="st6" points="557.1,61.3 557.9,134 536.8,111.9 506.7,126 			"/>
			<polygon class="st9" points="557.1,61.3 536.8,111.9 506.7,126 			"/>
		</g>
		<line class="st10" x1="536.8" y1="111.9" x2="553.7" y2="69.7"/>
	</g>
	<path class="st0" d="M433.3,324.9c-9.1-31,5.4-64.5,26.1-89.4c14.6-17.6,35.2-33.5,57.9-30.8c7.6,0.9,16.7,5.1,17.6,13.7
		c0.9,8.6-8.7,13-15.4,8.4c-26.1-17.6,4.3-70.4,15-89.5c5.1-9,6.2-20.2,3.1-30.1"/>
</g>
<polygon class="st11" points="185.5,173.9 327.7,44.9 466.7,172.8 319.5,308.4 "/>
<line class="st10" x1="189.9" y1="172.4" x2="464.8" y2="171"/>
<g>
	<path class="st1" d="M419.6,284.7H233.5c-4.9,0-8.8-3.9-8.8-8.8V89.8c0-4.9,3.9-8.8,8.8-8.8h186.1c4.9,0,8.8,3.9,8.8,8.8v186.1
		C428.4,280.8,424.5,284.7,419.6,284.7z"/>
	<g class="st12">
		<g>
			<path class="st9" d="M320.9,116.4h-72.1c-3.8,0-6.8-3-6.8-6.8v0c0-3.8,3-6.8,6.8-6.8h72.1c3.8,0,6.8,3,6.8,6.8v0
				C327.7,113.3,324.6,116.4,320.9,116.4z"/>
			<path class="st9" d="M413.1,145.9H247.2c-2.2,0-4-1.8-4-4l0,0c0-2.2,1.8-4,4-4h165.9c2.2,0,4,1.8,4,4l0,0
				C417.1,144.1,415.3,145.9,413.1,145.9z"/>
			<path class="st9" d="M413.1,171H247.2c-2.2,0-4-1.8-4-4l0,0c0-2.2,1.8-4,4-4h165.9c2.2,0,4,1.8,4,4l0,0
				C417.1,169.2,415.3,171,413.1,171z"/>
			<rect x="243.2" y="190" class="st9" width="173.9" height="3.1"/>
			<rect x="243.2" y="203.6" class="st9" width="173.9" height="3.1"/>
			<rect x="243.2" y="217.2" class="st9" width="173.9" height="3.1"/>
		</g>
	</g>
</g>
<path class="st25" d="M149.6,127.8l-4.8,8.8c-1.6,3-0.6,6.7,2.4,8.3h0c3,1.6,6.6,0.5,8.2-2.5l6.1-11.3c2.5-4.7,0.8-10.5-3.8-13l0,0
	c-4.7-2.6-10.5-0.9-13.1,3.8l-12.5,22.8c-2.6,4.7-0.8,10.5,3.8,13.1l0.1,0.1c4.7,2.6,10.6,0.8,13.1-3.9l1-1.9"/>
<path class="st16" d="M462.3,356.3H190.9c-3.6,0-6.5-2.9-6.5-6.5V177.5c0-5.4,6.2-8.4,10.4-5.1l127.8,99.1c2.3,1.8,5.6,1.8,7.9,0
	l127.8-99.1c4.3-3.3,10.4-0.3,10.4,5.1v172.3C468.7,353.4,465.8,356.3,462.3,356.3z"/>
<path class="st6" d="M196.6,345.1l124.7-114.5c2.5-2.3,6.2-2.3,8.7,0L456.3,345c4.4,4,1.6,11.3-4.3,11.3H201
	C195.1,356.3,192.3,349.1,196.6,345.1z"/>
<path class="st10" d="M186.4,354.5L321,230.8c2.6-2.4,6.7-2.4,9.3,0l136.4,123.7"/>
<g>
	<path class="st5" d="M354,373.3L354,373.3c-3.8-8.6,0-18.7,8.7-22.5l144.4-64.2l13.9,31.2L376.6,382
		C368,385.8,357.9,381.9,354,373.3z"/>
	<path class="st8" d="M381.2,342.6l-18.5,8.2c-8.6,3.8-12.5,13.9-8.7,22.5c3.8,8.6,13.9,12.5,22.5,8.7l18.5-8.2L381.2,342.6z"/>
	<polygon class="st14" points="507.1,286.6 546.1,287.9 521,317.8 	"/>
	<polygon class="st8" points="536,299.9 546.1,287.9 530.4,287.4 	"/>
	<line class="st26" x1="381.4" y1="342.5" x2="392.9" y2="368.4"/>
</g>
<line class="st10" x1="194.9" y1="172.4" x2="297.7" y2="252.2"/>
<line class="st10" x1="354" y1="252.2" x2="458.3" y2="172.4"/>
</svg>
