<svg xmlns="http://www.w3.org/2000/svg" width="11" height="9" viewBox="0 0 11 9"><g><g><path fill="#fff" d="M11 1.065c-.41.181-.845.3-1.3.36.468-.282.825-.724.993-1.256a4.488 4.488 0 0 1-1.43.55A2.253 2.253 0 0 0 7.615 0a2.262 2.262 0 0 0-2.253 2.271c0 .18.015.354.052.518A6.369 6.369 0 0 1 .766.414a2.278 2.278 0 0 0 .693 3.035A2.215 2.215 0 0 1 .44 3.17v.025c0 1.104.782 2.02 1.807 2.232-.184.05-.384.074-.591.074a1.98 1.98 0 0 1-.427-.038c.292.899 1.12 1.56 2.107 1.582A4.511 4.511 0 0 1 0 7.98 6.317 6.317 0 0 0 3.46 9c4.15 0 6.418-3.462 6.418-6.462 0-.1-.003-.197-.008-.294.447-.32.823-.719 1.13-1.179z"/></g></g></svg>