<?xml version="1.0" encoding="UTF-8"?>
<svg width="228px" height="45px" viewBox="0 0 228 45" version="1.1" xmlns="http://www.w3.org/2000/svg" xmlns:xlink="http://www.w3.org/1999/xlink">
    <!-- Generator: Sketch 64 (93537) - https://sketch.com -->
    <title>Group 70</title>
    <desc>Created with Sketch.</desc>
    <g id="Final-Files" stroke="none" stroke-width="1" fill="none" fill-rule="evenodd">
        <g id="Desktop-(-&gt;1170px)-Copy-5" transform="translate(-211.000000, -1903.000000)" stroke="#FBFBFB">
            <g id="Group-70" transform="translate(325.000000, 1925.500000) scale(-1, 1) translate(-325.000000, -1925.500000) translate(211.000000, 1903.000000)">
                <line x1="0.5" y1="17.3122744" x2="0.5" y2="26.3122744" id="Stroke-1"></line>
                <line x1="4.5" y1="22.3122744" x2="4.5" y2="19.3122744" id="Stroke-3"></line>
                <line x1="7.5" y1="23.3122744" x2="7.5" y2="21.3122744" id="Stroke-4"></line>
                <line x1="40.5" y1="23.3122744" x2="40.5" y2="21.3122744" id="Stroke-5"></line>
                <line x1="11.5" y1="22.3122744" x2="11.5" y2="20.3122744" id="Stroke-6"></line>
                <line x1="14.5" y1="26.3122744" x2="14.5" y2="17.3122744" id="Stroke-7"></line>
                <line x1="18.5" y1="31.3122744" x2="18.5" y2="13.3122744" id="Stroke-8"></line>
                <line x1="22.5" y1="42.3122744" x2="22.5" y2="2.31227437" id="Stroke-9"></line>
                <line x1="25.5" y1="30.3122744" x2="25.5" y2="15.3122744" id="Stroke-11"></line>
                <line x1="29.5" y1="26.3122744" x2="29.5" y2="18.3122744" id="Stroke-12"></line>
                <line x1="32.5" y1="30.3122744" x2="32.5" y2="15.3122744" id="Stroke-13"></line>
                <line x1="36.5" y1="25.3122744" x2="36.5" y2="20.3122744" id="Stroke-14"></line>
                <line x1="43.5" y1="25.3122744" x2="43.5" y2="20.3122744" id="Stroke-15"></line>
                <line x1="47.5" y1="29.3122744" x2="47.5" y2="15.3122744" id="Stroke-16"></line>
                <line x1="72.5" y1="25.3122744" x2="72.5" y2="20.3122744" id="Stroke-17"></line>
                <line x1="76.5" y1="26.3122744" x2="76.5" y2="17.3122744" id="Stroke-18"></line>
                <line x1="79.5" y1="21.3122744" x2="79.5" y2="23.3122744" id="Stroke-19"></line>
                <line x1="50.5" y1="35.3122744" x2="50.5" y2="8.31227437" id="Stroke-20"></line>
                <line x1="54.5" y1="27.3122744" x2="54.5" y2="16.3122744" id="Stroke-21"></line>
                <line x1="58.5" y1="25.3122744" x2="58.5" y2="20.3122744" id="Stroke-22"></line>
                <line x1="61.5" y1="23.3122744" x2="61.5" y2="21.3122744" id="Stroke-23"></line>
                <line x1="83.5" y1="26.3122744" x2="83.5" y2="17.3122744" id="Stroke-24"></line>
                <line x1="86.5" y1="35.3122744" x2="86.5" y2="8.31227437" id="Stroke-25"></line>
                <line x1="90.5" y1="38.3122744" x2="90.5" y2="6.31227437" id="Stroke-26"></line>
                <line x1="94.5" y1="44.3122744" x2="94.5" y2="0.312274368" id="Stroke-27"></line>
                <line x1="97.5" y1="38.3122744" x2="97.5" y2="6.31227437" id="Stroke-29"></line>
                <line x1="101.5" y1="10.3122744" x2="101.5" y2="33.3122744" id="Stroke-30"></line>
                <line x1="65.5" y1="29.3122744" x2="65.5" y2="15.3122744" id="Stroke-31"></line>
                <line x1="68.5" y1="24.3122744" x2="68.5" y2="18.3122744" id="Stroke-32"></line>
                <line x1="104.5" y1="14.3122744" x2="104.5" y2="29.3122744" id="Stroke-33"></line>
                <line x1="108.5" y1="16.3122744" x2="108.5" y2="27.3122744" id="Stroke-34"></line>
                <line x1="112.5" y1="23.3122744" x2="112.5" y2="21.3122744" id="Stroke-35"></line>
                <line x1="144.5" y1="26.3122744" x2="144.5" y2="18.3122744" id="Stroke-36"></line>
                <line x1="115.5" y1="22.3122744" x2="115.5" y2="20.3122744" id="Stroke-37"></line>
                <line x1="223.5" y1="21.3122744" x2="223.5" y2="23.3122744" id="Stroke-38"></line>
                <line x1="220.5" y1="16.3122744" x2="220.5" y2="27.3122744" id="Stroke-39"></line>
                <line x1="212.5" y1="21.3122744" x2="212.5" y2="23.3122744" id="Stroke-40"></line>
                <line x1="119.5" y1="26.3122744" x2="119.5" y2="17.3122744" id="Stroke-41"></line>
                <line x1="122.5" y1="31.3122744" x2="122.5" y2="13.3122744" id="Stroke-42"></line>
                <line x1="126.5" y1="27.3122744" x2="126.5" y2="16.3122744" id="Stroke-43"></line>
                <line x1="130.5" y1="30.3122744" x2="130.5" y2="15.3122744" id="Stroke-44"></line>
                <line x1="133.5" y1="35.3122744" x2="133.5" y2="8.31227437" id="Stroke-45"></line>
                <line x1="137.5" y1="33.3122744" x2="137.5" y2="10.3122744" id="Stroke-46"></line>
                <line x1="140.5" y1="31.3122744" x2="140.5" y2="13.3122744" id="Stroke-47"></line>
                <line x1="148.5" y1="33.3122744" x2="148.5" y2="10.3122744" id="Stroke-48"></line>
                <line x1="151.5" y1="38.3122744" x2="151.5" y2="6.31227437" id="Stroke-49"></line>
                <line x1="176.5" y1="23.3122744" x2="176.5" y2="21.3122744" id="Stroke-50"></line>
                <line x1="180.5" y1="25.3122744" x2="180.5" y2="20.3122744" id="Stroke-51"></line>
                <line x1="184.5" y1="21.3122744" x2="184.5" y2="22.3122744" id="Stroke-52"></line>
                <line x1="227.5" y1="21.3122744" x2="227.5" y2="22.3122744" id="Stroke-53"></line>
                <line x1="216.5" y1="25.3122744" x2="216.5" y2="20.3122744" id="Stroke-55"></line>
                <line x1="209.5" y1="21.3122744" x2="209.5" y2="22.3122744" id="Stroke-56"></line>
                <line x1="155.5" y1="44.3122744" x2="155.5" y2="0.312274368" id="Stroke-57"></line>
                <line x1="158.5" y1="33.3122744" x2="158.5" y2="10.3122744" id="Stroke-59"></line>
                <line x1="162.5" y1="29.3122744" x2="162.5" y2="15.3122744" id="Stroke-60"></line>
                <line x1="166.5" y1="24.3122744" x2="166.5" y2="18.3122744" id="Stroke-61"></line>
                <line x1="187.5" y1="25.3122744" x2="187.5" y2="20.3122744" id="Stroke-62"></line>
                <line x1="191.5" y1="29.3122744" x2="191.5" y2="15.3122744" id="Stroke-63"></line>
                <line x1="194.5" y1="25.3122744" x2="194.5" y2="19.3122744" id="Stroke-64"></line>
                <line x1="198.5" y1="27.3122744" x2="198.5" y2="16.3122744" id="Stroke-65"></line>
                <line x1="202.5" y1="25.3122744" x2="202.5" y2="20.3122744" id="Stroke-66"></line>
                <line x1="205.5" y1="23.3122744" x2="205.5" y2="21.3122744" id="Stroke-67"></line>
                <line x1="169.5" y1="29.3122744" x2="169.5" y2="15.3122744" id="Stroke-68"></line>
                <line x1="173.5" y1="24.3122744" x2="173.5" y2="18.3122744" id="Stroke-69"></line>
            </g>
        </g>
    </g>
</svg>