<svg xmlns="http://www.w3.org/2000/svg" viewBox="0 0 159.81 86.01"><defs><linearGradient id="linear-gradient" x1="92.02" y1="4.65" x2="34.88" y2="103.62" gradientUnits="userSpaceOnUse"><stop offset="0" stop-color="#fff" stop-opacity="0"/><stop offset="1" stop-color="#f7931e"/></linearGradient><style>.cls-2,.cls-3{fill:#21dfe8;stroke:#21dfe8;stroke-width:.72px;stroke-miterlimit:10}.cls-3{fill:#48ecff}</style></defs><g style="isolation:isolate"><g id="Layer_2" data-name="Layer 2"><g id="Layer_1-2" data-name="Layer 1"><path class="cls-2" d="M156.56 64.05c0 1.3-2.32 2.45-6.09 3.31a72 72 0 01-15 1.4 72 72 0 01-15-1.4c-3.76-.86-6.09-2-6.09-3.31 0-2.59 9.45-4.7 21.11-4.7s21.07 2.11 21.07 4.7z"/><path class="cls-3" d="M156.56 64.05v6.61c0 2.6-9.45 4.7-21.11 4.7s-21.11-2.1-21.11-4.7v-6.61c0 1.3 2.33 2.45 6.09 3.31a72 72 0 0015 1.4 72 72 0 0015-1.4c3.81-.86 6.13-2.01 6.13-3.31z"/><path class="cls-3" d="M156.56 70.61v6.61c0 2.6-9.45 4.7-21.11 4.7s-21.11-2.1-21.11-4.7v-6.61c0 1.3 2.33 2.45 6.09 3.31a72.07 72.07 0 0015 1.39 72.07 72.07 0 0015-1.39c3.81-.86 6.13-2.01 6.13-3.31z"/><path class="cls-2" d="M159.45 57.3c0 1.3-2.32 2.46-6.09 3.31a72 72 0 01-15 1.4 72 72 0 01-15-1.4c-3.77-.85-6.09-2-6.09-3.31 0-2.59 9.45-4.7 21.11-4.7s21.07 2.11 21.07 4.7z"/><path class="cls-3" d="M159.45 57.3v6.62c0 2.59-9.45 4.69-21.1 4.69s-21.11-2.1-21.11-4.69V57.3c0 1.3 2.32 2.46 6.09 3.31a72 72 0 0015 1.4 72 72 0 0015-1.4c3.8-.85 6.12-2.01 6.12-3.31z"/><path class="cls-2" d="M156.56 44c0 1.3-2.32 2.45-6.09 3.31a72.07 72.07 0 01-15 1.39 72.07 72.07 0 01-15-1.39c-3.76-.86-6.09-2-6.09-3.31 0-2.59 9.45-4.7 21.11-4.7s21.07 2.08 21.07 4.7z"/><path class="cls-3" d="M156.56 44v6.61c0 2.6-9.45 4.7-21.11 4.7s-21.11-2.1-21.11-4.7V44c0 1.3 2.33 2.45 6.09 3.31a72.07 72.07 0 0015 1.39 72.07 72.07 0 0015-1.39c3.81-.89 6.13-2.04 6.13-3.31z"/><path class="cls-2" d="M156.56 37.37c0 1.29-2.32 2.45-6.09 3.3a71.32 71.32 0 01-15 1.4 71.32 71.32 0 01-15-1.4c-3.76-.85-6.09-2-6.09-3.3 0-2.6 9.45-4.71 21.11-4.71s21.07 2.11 21.07 4.71z"/><path class="cls-3" d="M156.56 37.37V44c0 2.59-9.45 4.69-21.11 4.69s-21.11-2.1-21.11-4.69v-6.63c0 1.29 2.33 2.45 6.09 3.3a71.32 71.32 0 0015 1.4 71.32 71.32 0 0015-1.4c3.81-.85 6.13-2.01 6.13-3.3zm0 13.16v6.61c0 2.59-9.45 4.7-21.11 4.7s-21.11-2.11-21.11-4.7v-6.61c0 1.29 2.33 2.45 6.09 3.3a71.32 71.32 0 0015 1.4 71.32 71.32 0 0015-1.4c3.81-.83 6.13-2.01 6.13-3.3z"/><path d="M120.11 42v21.23l-4.67 2.12-35.02 15.88-6.71 3.06-3.42 1.56H67l-58.84-.23-5-11-3.11-6.85v-4.71l.25-.66 4.46-11.24L9.3 39.68l4.81-2.17 6.35-2.9 25.19-11.43L52 20.31l3.85-1.76L95.68.45a5.07 5.07 0 016.7 2.55l2.32 5.1 4.85 10.69 2.14 4.72 3.8 8.36 1.83 4z" fill="#3805d6"/><path d="M120.09 47.79v25.76l-4.67 1.08-28.61 6.63-13.08 3L67 85.84l-58.84-.22H5.71l-2.55-11L.32 62.4l-.25-1.09V49.54l4.73-7.25 3.06-4.72.9-1.39 4.45-6.85 4.34-1 2.82-.66 19.33-4.51L52 20.31l7.49-1.74L104.7 8.06l.93-.21a5 5 0 016.06 3.78l1.66 7.13L115 25.7l.55 2.33 1.81 7.8z" fill="#4906ef"/><path d="M120.18 23.84L120.11 42v31.54L120 81a5.06 5.06 0 01-5.07 5l-44.63-.16H67l-58.84-.22H5a5.05 5.05 0 01-5-5.08l.05-12.77V37.7l20.21-19.27 35.55.12h3.64l50.1.18h5.59a5.06 5.06 0 015.04 5.11z" fill="#5a00ff"/><path d="M120.18 23.84L120.11 42v31.54L120 81a5.06 5.06 0 01-5.07 5l-44.63-.16H67l-58.84-.22H5a5.05 5.05 0 01-5-5.08l.05-12.77V37.7l20.21-19.27 35.55.12h3.64l50.1.18h5.59a5.06 5.06 0 015.04 5.11z" fill="url(#linear-gradient)" opacity=".35"/><path d="M81.75 51.18H74a14 14 0 00-27.91 0h-7.67a1 1 0 000 2.08h7.71a14 14 0 0027.91 0h7.71a1 1 0 100-2.08z" opacity=".32" fill="#fff"/><path d="M.18 37.66l18.55-.21a1.52 1.52 0 001.76-1.55l-.22-17.47z" fill="#2e00bf"/><path d="M4.81 37.66l-.14 39A4.52 4.52 0 009.31 81l101.33.33a4.52 4.52 0 004.68-4.33l.18-49.24a4.52 4.52 0 00-4.64-4.37l-90.54-.29" fill="none" stroke="#fff" stroke-width=".59" stroke-miterlimit="10" opacity=".1"/><path d="M63.63 48a.32.32 0 01.2.33v.84a.22.22 0 01-.2.21h-2v.08a2.81 2.81 0 01.46 1c0 .08.06.1.14.1h1.25c.24 0 .33.09.33.33v.73c0 .24-.09.33-.32.33h-1.22c-.08 0-.11 0-.12.1a3.11 3.11 0 01-.84 1.65 3.51 3.51 0 01-1.24.81 5 5 0 01-1.14.3h-.14l.05.06 1.09 1.22 1.12 1.31 1.5 1.8a.29.29 0 01-.07.5h-1.77a1.71 1.71 0 01-.2-.18c-.3-.34-.59-.69-.88-1l-.77-.9-1.3-1.49c-.37-.42-.75-.83-1.13-1.24a.35.35 0 01-.1-.25v-1c0-.22.11-.32.33-.33h.86a4.23 4.23 0 001.5-.22 1.89 1.89 0 00.92-.68 1.64 1.64 0 00.23-.5h-3.63a.21.21 0 01-.2-.21v-.94c0-.14.1-.21.23-.23H60v-.07a1.47 1.47 0 00-.8-.65 3.43 3.43 0 00-1.27-.22h-1.27a.29.29 0 01-.33-.33v-1a.32.32 0 01.2-.33z" fill="#fff"/></g></g></g></svg>