<svg xmlns="http://www.w3.org/2000/svg" xmlns:xlink="http://www.w3.org/1999/xlink" viewBox="0 0 126.09 100.48"><defs><linearGradient id="linear-gradient" x1="63.04" y1="73.19" x2="63.04" y2="86.32" gradientUnits="userSpaceOnUse"><stop offset="0" stop-color="#fff" stop-opacity="0"/><stop offset="1" stop-color="#f7931e"/></linearGradient><linearGradient id="linear-gradient-2" x1="63.04" y1="97.11" x2="63.04" y2="100.48" xlink:href="#linear-gradient"/><style>.cls-2{fill:#5a00ff}.cls-7{opacity:.78}.cls-8{fill:#48ecff}</style></defs><g style="isolation:isolate"><g id="Layer_2" data-name="Layer 2"><g id="Layer_1-2" data-name="Layer 1"><rect class="cls-2" width="126.09" height="86.32" rx="4.98" ry="4.98"/><path d="M0 73.19h126.09v8.15a5 5 0 01-5 5H5a5 5 0 01-5-5v-8.15z" style="mix-blend-mode:multiply" fill="url(#linear-gradient)" opacity=".35"/><rect x="4.01" y="5.47" width="118.07" height="67.72" rx="1.66" ry="1.66" opacity=".78" fill="#fff"/><path class="cls-2" d="M52.7 86.32h20.69v10.8H52.7z"/><path class="cls-2" d="M44.67 97.11h36.74v3.36H44.67z"/><path style="mix-blend-mode:multiply" fill="url(#linear-gradient-2)" opacity=".35" d="M44.67 97.11h36.74v3.36H44.67z"/><path d="M13.71 11.76h24.55v55.15H13.71zm83.82.15h18.26v55.08H97.53zM43.11 42.52h49.95v3.39H43.11zm0 6.21h49.95V66.7H43.11zm5.71-32.21h1.72V38.6h-1.72zm4.2 5.67h1.72V38.6h-1.72zm4.2-2.4h1.72V38.6h-1.72zm4.21 10.34h1.72v8.47h-1.72zm4.2 2.12h1.72v6.35h-1.72zm3.44-15.73h1.72V38.6h-1.72zm4.2 5.67h1.72V38.6h-1.72zm4.2-2.4h1.72V38.6h-1.72zm4.21 10.34h1.72v8.47h-1.72zm4.2 2.12h1.72v6.35h-1.72z" opacity=".5" fill="#fff"/><circle class="cls-2" cx="60.02" cy="23.58" r=".67"/><path class="cls-2" d="M60 24.36a.76.76 0 01-.76-.64.77.77 0 01.62-.9.78.78 0 01.58.12.81.81 0 01.33.51.79.79 0 01-.63.9zM59.92 23a.56.56 0 10.42.09.52.52 0 00-.42-.09z"/><circle class="cls-2" cx="65.72" cy="27.29" r=".67"/><path class="cls-2" d="M65.72 28.07a.78.78 0 01-.14-1.55.8.8 0 01.58.13.74.74 0 01.32.5.75.75 0 01-.12.58.76.76 0 01-.5.32zm0-1.34h-.1a.56.56 0 00.2 1.1.54.54 0 00.35-.24.51.51 0 00.09-.41.54.54 0 00-.23-.36.57.57 0 00-.31-.09zm-5.1-2.85l4.63 3.09"/><path class="cls-2" transform="rotate(-56.34 62.938 25.427)" d="M62.82 22.64h.22v5.57h-.22z"/><circle class="cls-2" cx="84.14" cy="12.87" r="1.11"/><circle class="cls-2" cx="74.98" cy="32.81" r="1.11"/><path class="cls-2" d="M81.48 18.74l-6.1 13.21m.1.05l-.2-.09 6.1-13.21.2.09L75.48 32zm8.4-18.42l-2.4 5.16"/><path class="cls-2" transform="rotate(-65.01 82.676 16.162)" d="M79.83 16.05h5.7v.22h-5.7z"/><circle class="cls-2" cx="68.27" cy="28.73" r=".56"/><circle class="cls-2" cx="71.46" cy="30.8" r=".97"/><circle class="cls-2" cx="56.62" cy="22.62" r="1.11"/><path class="cls-2" d="M53.96 28.5l-3.88 8.03m.1.04l-.2-.09 3.88-8.03.2.1-3.88 8.02zm6.18-13.24l-3.55 7.64"/><path class="cls-2" transform="rotate(-65.01 54.583 27.145)" d="M50.37 27.04h8.42v.22h-8.42z"/><circle class="cls-2" cx="49.68" cy="37.38" r="1.11"/><g class="cls-7"><circle class="cls-8" cx="62.77" cy="78.42" r=".87"/><circle class="cls-8" cx="59.8" cy="82.01" r=".87"/><path class="cls-8" transform="rotate(-50.44 61.219 80.34)" d="M59.38 80.09h3.69v.49h-3.69z"/></g><g class="cls-7"><circle class="cls-8" cx="66.29" cy="77.5" r=".87"/><circle class="cls-8" cx="63.32" cy="81.08" r=".87"/><path class="cls-8" transform="rotate(-50.44 64.74 79.418)" d="M62.9 79.17h3.69v.49H62.9z"/></g></g></g></g></svg>