<svg xmlns="http://www.w3.org/2000/svg" viewBox="0 0 148.84 103.54"><defs><clipPath id="clip-path"><circle cx="69.78" cy="51.77" r="51.57" fill="none"/></clipPath><style>.cls-3{fill:none;stroke:#4906ef;stroke-miterlimit:10;stroke-width:.4px}.cls-6{fill:#4906ef;fill-rule:evenodd}.cls-8{fill:#48ecff}.cls-9{opacity:.78}.cls-10{fill:#fff}</style></defs><g id="Layer_2" data-name="Layer 2"><g id="Layer_1-2" data-name="Layer 1"><circle cx="69.78" cy="51.77" r="51.57" fill="#5a00ff"/><circle class="cls-3" cx="69.78" cy="51.77" r="51.57"/><ellipse class="cls-3" cx="69.78" cy="51.77" rx="35.51" ry="51.57"/><ellipse class="cls-3" cx="69.78" cy="51.77" rx="14.52" ry="51.57"/><ellipse class="cls-3" cx="69.78" cy="51.77" rx="51.57" ry="35.51"/><ellipse class="cls-3" cx="69.78" cy="51.77" rx="51.57" ry="14.49"/><g opacity=".6" clip-path="url(#clip-path)"><path class="cls-6" d="M34.19 64v.07h.08s-.07-.07-.08-.07zm16 2.09h.06-.06zM131.56 75c.07-.06.06-.25.05-.37s-.09-.11-.14-.13c-.78-.26-1.66-.1-2.38-.57a1.89 1.89 0 00-1.76-.09.82.82 0 01-.4 0 .35.35 0 01-.13-.14c-.09-.14-.09-.29 0-.34.32-.13.65-.2 1-.33a.89.89 0 00.57-1c0-.4-.12-.8-.18-1.2 0-.14.27-.42.42-.38s.28.1.31.2a9 9 0 001 2.23 1.41 1.41 0 001.37.73 4.47 4.47 0 01.82 0c.73 0 .85-.06.88-.73s0-1.23.07-1.84-.57-1.1-.36-1.76c0-.13-.16-.34-.25-.52a4.49 4.49 0 00-1.6-1.83 6.28 6.28 0 01-.79-.66 1.07 1.07 0 01-.33-.49 11.1 11.1 0 01-.25-1.4.45.45 0 01.21-.32h.33a1.45 1.45 0 01.17.57 1.84 1.84 0 00.93 1.71c.4.25.69.66 1.19.77.19 0 .48 0 .49-.23a1.52 1.52 0 01.29-.94c-.12-.36.08-.62.25-.91a.6.6 0 00-.14-.74c-.45-.32-.92-.6-1.34-.94-.11-.09-.13-.29-.17-.47h-.07l-.06-.07a2.42 2.42 0 01-1.18-.52v-.13a.32.32 0 01.17-.09c.13 0 .31 0 .39.06a7.68 7.68 0 01.6.68h.11v.08c.16.08.33.15.48.24a1.16 1.16 0 001.35 0 3.23 3.23 0 011.52-.53.78.78 0 00.44-.38 3.52 3.52 0 00.24-.78.52.52 0 00-.33-.65 4.75 4.75 0 01-1.49-.66s-.06-.13 0-.19a.2.2 0 01.32-.13c.63.34 1.25.56 1.88 0 .12-.11.39-.07.6-.08a1 1 0 00.55-1.59 1.45 1.45 0 01-.59-1 .78.78 0 00-.34-.47c-.12-.1-.23-.17-.17-.33s.19-.17.35-.15a1.27 1.27 0 00.58 0 .74.74 0 00.4-.67c.06-.48.09-1 .11-1.43a1.07 1.07 0 00-.38-.92c-.42-.33-.11-.52.1-.76a.4.4 0 00-.09-.54c-.32-.24-.8-.13-1.05-.5l-.35-.07a.56.56 0 01-.41-.58.71.71 0 01.31-.6l.45.45v-.09l-.43-.44h-.06c.33-.34.66-.68 1-1a.81.81 0 01.77 0 1.08 1.08 0 01.18.11c.39.45.94.78.83 1.54a3.81 3.81 0 00.28 1.78h.15a1.83 1.83 0 00.12-.59 3 3 0 01.43-2.15 3.11 3.11 0 00.41-1.78.94.94 0 00-.57-.78c-.27-.07-.55-.06-.81-.15a1.73 1.73 0 01-.49-.34s-.08-.14-.06-.18.14-.23.23-.25c.79-.15.85-.24.53-.81a2.21 2.21 0 00-.63-.79 3.88 3.88 0 01-.55-.59s0-.12.05-.16.13-.11.17-.09c.58.27.9 0 1.07-.54a8.46 8.46 0 00.64-2.15 7.51 7.51 0 011.93-4.85c.35-.42.66-.87 1-1.31a.69.69 0 00.05-.58c-.1-.51-.09-.56.37-.63a1.82 1.82 0 001.27-.94.64.64 0 00-.22-.72 3 3 0 00-.58-.19c-.26-.05-.54-.06-.8-.09-.05 0-.12-.11-.11-.13s.13-.25.23-.3a1.23 1.23 0 011 .09 1.71 1.71 0 001.57-.15c.18-.1.37-.17.55-.28a.47.47 0 00.2-.53c0-.14-.07-.27-.08-.4s.12-.44.35-.41a1.29 1.29 0 001.29-.42 3.15 3.15 0 01.61-.54c1-.74 1.05-1.2.21-2.18-.08-.11-.17-.21-.26-.32a4 4 0 00-3.1-1.36 7.84 7.84 0 00-2 .42c-.1 0-.19.18-.25.3s-.11.4-.18.58-.34.34-.69.28a1.29 1.29 0 01-.71-.35.3.3 0 00-.5.08 4.91 4.91 0 01-2.92 2.1 5.52 5.52 0 00-1.82.77.19.19 0 010 .08l-.43.39-.43.4-.11.07.08-.09.41-.43.44-.38a1.09 1.09 0 01.13-.5 3.82 3.82 0 011.58-1.25 2.45 2.45 0 001.52-1.57c.07-.2.16-.38.24-.57.64-1.59-.14-1.93-1.37-1.81a.71.71 0 00-.2 0c-.11.07-.26.14-.3.25-.14.31-.22.65-.35 1a1 1 0 01-.95.65h-.21a4.55 4.55 0 00-2.2-.06s-.11-.09-.11-.14a.21.21 0 01.06-.18c.38-.14.78-.26 1.15-.41a1.19 1.19 0 00.66-.74.6.6 0 00-.31-.68l-1.4-.32a6.63 6.63 0 00-4.78.45c-.26.1-.5.24-.75.34s-.78.27-1.17.37c-.06 0-.18-.15-.25-.24s0-.14.06-.17a3.81 3.81 0 01.7-.4c.7-.28 1.44-.48 2.11-.8a5 5 0 013.79-.29 7 7 0 002.64.19c.82-.08 1.62-.26 2.44-.31a4.47 4.47 0 002.35-1.16.93.93 0 00.07-1.29c-.49-.38-1-.76-1.48-1.1a2.52 2.52 0 00-2.69-.38.77.77 0 01-.4 0 .19.19 0 01-.15-.11s0-.12.08-.14a5.55 5.55 0 00.56-.24 1 1 0 00.37-1.49c-.13-.22-.48-.44-.67-.37a5.05 5.05 0 01-3.8-.12 2.72 2.72 0 00-1.21-.11 8.34 8.34 0 00-1.41.26 4.56 4.56 0 01-2 .15 1.88 1.88 0 00-1.37.3 1.59 1.59 0 01-.59.12.25.25 0 01-.17-.1v-.15a2.14 2.14 0 01.71-.35 9.61 9.61 0 001.63-.13 13.07 13.07 0 013-.4 5.74 5.74 0 012.43.21 2.5 2.5 0 002.13-.44.39.39 0 00.08-.36 2.89 2.89 0 00-1.93-1.43c-1.46-.35-2.86-.9-4.29-1.35a16.57 16.57 0 00-2-.37c-.77-.15-1.47.3-2.22.22a3.79 3.79 0 00-1.25 1.33.43.43 0 01-.09.1v.06l.06-.05-.06.39.07.13-.12-.08v-.05a1.76 1.76 0 01-1.24-.51.2.2 0 00-.34.08.34.34 0 000 .19 4.18 4.18 0 00.16.58c.05.16 0 .29-.09.34a.58.58 0 01-.38.06 5.53 5.53 0 01-1.61-.85.92.92 0 00-1.14 0 1.82 1.82 0 01-1.12.44.38.38 0 00-.39.38c0 .48 0 .95-.08 1.43a.76.76 0 01-.39.66 6.13 6.13 0 00-.57.57.43.43 0 01-.36.08 3.17 3.17 0 00-1.33-.47c-.14 0-.44.21-.45.36a2.44 2.44 0 000 .6c.12.74.24 1.49.42 2.21a13.08 13.08 0 00.7 2.77c.08.18-.1.37-.34.36s-.69.06-.8-.42a1 1 0 00-.67-.71c-.13-.05 0-.1.1-.22.34-.29.38-.61.08-.81a1.63 1.63 0 01-.77-.88 16.46 16.46 0 00-.8-1.89 1.72 1.72 0 00-.86-.84.6.6 0 00-.86.25l-.15.38a6.23 6.23 0 00-.21 2.43 1.81 1.81 0 01-.2 1c-.2.33-.61.15-.94.11a.4.4 0 00-.19 0c-.12.06-.22.16-.34.22s-.31-.09-.38-.29c-.13-.39.38-.62.25-.93a6.64 6.64 0 01-.16-2 2.36 2.36 0 00-.18-.57c0-.06-.1-.14-.13-.13s-.28.05-.35.14a1.43 1.43 0 00-.24 1 4.15 4.15 0 010 1 3.27 3.27 0 01-.62.79l-.11.14v.07l-.46.35-.49.45s0 .06-.06.09a1.36 1.36 0 010 .2c-.09-.1 0-.15 0-.2v-.13l.49-.46.45-.35a.89.89 0 01-.14-.71c.15-.45.36-.89.48-1.35a2.73 2.73 0 00.08-1.42c-.06-.21-.4-.49-.61-.44a4 4 0 00-1 .26 7 7 0 01-2 .46c-.95.15-1.89.19-2.84.28a.65.65 0 00-.61.68v.61s-.07.12-.11.14a.21.21 0 01-.18-.07c-.17-.2-.29-.48-.51-.61s-.66 0-1 .14a1.11 1.11 0 00-.66.74q-.08.3-.12.6a4.12 4.12 0 01-.19 1.19 4.5 4.5 0 01-.8.9 4.15 4.15 0 00-.24.34.5.5 0 01-.72.09 1.49 1.49 0 00-1.49-.35 2.7 2.7 0 00-1.74.94 2.54 2.54 0 01-1.77.91 1.85 1.85 0 01-.38.36A5.3 5.3 0 0089 25.92a.69.69 0 00.4 1.08l1.51.46.07-.08v.12a2.3 2.3 0 00.1.35.4.4 0 01-.13.53 1.14 1.14 0 00-.59.77 1.67 1.67 0 01-.37.71c-.39.47-.81.91-1.25 1.35a.62.62 0 01-.74.17 5.53 5.53 0 00-2.61-.29 1.65 1.65 0 00-1 .3 2.83 2.83 0 01-1.31.52c-.94.15-1.87.37-2.81.5a2.39 2.39 0 00-1.68 1.33 1 1 0 000 1.3c.5.53.62 1.31 1.15 1.82a.22.22 0 01.14 0l.18-.14c0 .14-.09.14-.18.14l-.1.07a11.21 11.21 0 00.49 1.07 1 1 0 001 .54c.33 0 .63-.28 1-.14a2.08 2.08 0 001.21 0 .58.58 0 01.37.13.45.45 0 01.17.33.42.42 0 01-.22.31 1 1 0 01-.59 0 2.72 2.72 0 00-2.38 0 1.56 1.56 0 01-1 .07 1.83 1.83 0 00-1.19.22c-.55.3-.82 1.17-.4 1.56s.72 1 1.32 1.26c.27.12.25.18 0 .35a4.73 4.73 0 00-.69.43.61.61 0 00-.18.54 4.18 4.18 0 001.64 2.05c.52.35.75.3 1.11-.28.22-.36.25-.36.62-.22a1.12 1.12 0 01.66.44.42.42 0 00.34.16c.83-.38 1.77.28 2.57-.3a.27.27 0 01.2 0 12.19 12.19 0 012.35 1.22c.61.44 1.2.91 1.78 1.38a2.9 2.9 0 01.55.61.87.87 0 01.12.57 2.5 2.5 0 01-.3 1 1.18 1.18 0 00.19 1.49 1.82 1.82 0 01.3.75.81.81 0 01-.29.91c-.16.11-.19.23 0 .31a5.49 5.49 0 00.57.2.34.34 0 01.22.48 2 2 0 01-.23.34.53.53 0 000 .86.47.47 0 01.09.38c0 .19-.26.37-.24.54s.24.48.29.73c.08.4 0 .83.15 1.22a1.36 1.36 0 01-.22 1.16.43.43 0 000 .36c.06.12.21.18.29.29.26.34.16.6-.27.65a1.08 1.08 0 00-.72.31c-.12.12-.07.24 0 .36s.68.13.1.42-.52.74-.53 1.22l.41.08.08-.07v.11h-.08l-.41.35v.06a2.91 2.91 0 01-.6 1.26.78.78 0 00.1.92c.69.79 1.34.83 2 .1.13-.14.24-.32.37-.46a.66.66 0 01.74-.11 1.21 1.21 0 01.28.18H93l-.06-.06c.12.06.32.09.34.17.06.24-.19.21-.32.29l-.63.94a.34.34 0 00.1.51c.17.1.36.15.53.25a.5.5 0 01.22.68 5.21 5.21 0 01-.24.47L93 69a.82.82 0 01.84.79s0 .13-.1.15-.15 0-.17 0L93 69h-.08a4.93 4.93 0 01-1.56-.36 6.64 6.64 0 00-1-.23.67.67 0 00-.74.74v.19c0 .06.16.44.09.58s-.32.22-.5.3a.84.84 0 00-.52.58 4.51 4.51 0 00-.21 1.19 2.39 2.39 0 001 1.89.41.41 0 00.19.08 3.27 3.27 0 002.15-.3.82.82 0 00.29-1.06 1.72 1.72 0 00-.41-.44 1.34 1.34 0 01-.45-1h-.06v-.14l.08.09v.08a6.69 6.69 0 002.74 1 .28.28 0 01.21.45c-.15.18-.33.35-.5.52v.08h.06c-.11.24-.21.5-.33.74a.78.78 0 000 .58c.1.39.08.4-.3.46-.21 0-.46 0-.5.27-.17.88-.61 1.29-1.56 1.13a2.92 2.92 0 00-1 .14 2.58 2.58 0 00.28 1.16h.07l.05.08h-.1l-.52-.08c-.41-.06-.41-.06-.6.3a3.26 3.26 0 01-.26.53c-.25.31-.63.55-.76.9a5.53 5.53 0 01-.41 1.09 1.83 1.83 0 00-.19.78.75.75 0 00.27.71c.14.12.29.22.43.32h.15a.8.8 0 01.13-.13h.13l-.26.09-.11.11h-.05a9.62 9.62 0 00-.84.85 1 1 0 00-.1 1.31 1.23 1.23 0 01.32.92 1.7 1.7 0 00.12.8 6.21 6.21 0 01.37 2.8 2.93 2.93 0 000 .41c0 .2.25.4.42.35l1.37-.72v-.07h.14l.16-.14c0 .17-.08.15-.16.14l-.1.08h-.08a2.19 2.19 0 01-.9.91 1.06 1.06 0 00-.46 1.21 4.64 4.64 0 00.65 2v.05a2.13 2.13 0 00.37.47.65.65 0 01.23.88c-.08.19-.17.42 0 .58.4.42.4 1 .61 1.48a1.28 1.28 0 010 1 .55.55 0 000 .38c.25.32.53.61.8.91a.92.92 0 01.89 1.1.46.46 0 00.33.13 11.9 11.9 0 001.19-.23c.2-.05.39-.14.58-.2.39-.1.74 0 .77.39a1.76 1.76 0 00.64 1.42c.15.12.18.37.32.51s.34.34.48.32c.5-.07.91.24 1.39.26a1.07 1.07 0 00.84-.47c.45-.75.44-1.67.93-2.4a2.86 2.86 0 01.73-1.65 2.77 2.77 0 00.6-1.27 11.48 11.48 0 01.31-1.15v-.08l-.25-.1s-.1-.09-.09-.12.15-.16.23 0a1.89 1.89 0 01.11.25h.09a1.58 1.58 0 00.84-.79 3.7 3.7 0 011.32-1.76 1.65 1.65 0 00.52-2c-.14-.34 0-.5.27-.66s.24-.14.35-.22a.54.54 0 00.17-.55 3.14 3.14 0 00-.18-.37c-.22-.49-.22-.52.35-.58.38 0 .7-.14.82-.48.2-.52.53-.82 1.07-.73.76.12 1.47-.37 2.23-.14.24.06.37-.12.53-.24s.31-.34.48-.35a4.32 4.32 0 002.76-1.18c.08-.08.26-.06.39-.11a2.38 2.38 0 001.41-1.11c.38-.85 1.16-1.35 1.6-2.11s1.48-1 2-1.74c.45-.24.94 0 1.4-.09a7.75 7.75 0 00.77-.26 1.4 1.4 0 01.58-.12 1.69 1.69 0 001.19-.14 7.21 7.21 0 012.14-.67 7.2 7.2 0 003.38-1.38c1.15-1.1 2.54-1.95 3.82-2.95zm9.29-41.37s.11 0 .16-.05a.52.52 0 01.16.12c.07.14 0 .22-.19.2a.2.2 0 01-.15-.1.21.21 0 01.02-.21zm-1.47.6a.7.7 0 01.29-.21s.12.06.17.1.15.24 0 .35a2.26 2.26 0 01-.31.23c-.14-.02-.27-.28-.15-.51zm-30.77 52.29l-.13-.1a.37.37 0 01.16-.07s.08.06.13.09zm10.58-70.15s-.11-.2.06-.05l.16.15a.74.74 0 00-.22-.1zm.68.76c-.17-.06-.16-.18-.16-.31a.41.41 0 00-.12-.19l.16.15v.08a1.12 1.12 0 01.2.17l-.08.1zm5.34 54.74v-.12h.1zm.64-3.37l-.08-.07h.11v.13zM65.81 27.45h.07-.06a.1.1 0 010 .05zm2.09-6.22h-.06z"/><path class="cls-6" d="M68 22a1.23 1.23 0 00-.09 1.16 2.16 2.16 0 01.09 1.56c-.14.45-.19.93-.31 1.39a.46.46 0 01-.26.27c-.5.19-.41.61-.42 1l.48.48.14.12.5.21a.74.74 0 00.21 0 .22.22 0 010 .08 1.36 1.36 0 01.3.13.17.17 0 01.09.14.22.22 0 01-.1.15.17.17 0 01-.28-.12 1.51 1.51 0 010-.3l-.15-.07a1 1 0 01-.5-.21l-.19-.08-.51-.5-1.21.08a1.12 1.12 0 01-.66.25c-.46 0-.92.11-1.38.17a2.91 2.91 0 01-1.25 1.69 1.72 1.72 0 00-.65 1.21.6.6 0 00.43.61h.4c.63.08.82.29.82.88a4.17 4.17 0 010 .79 1.3 1.3 0 01-.41.89.3.3 0 01-.18.06c-.06 0-.16 0-.17-.06a11 11 0 00-.28-1.39A1.15 1.15 0 0062 32a1.54 1.54 0 00-1.37 0 .63.63 0 00-.29.27 1.67 1.67 0 00-.16.58 12.38 12.38 0 00.29 2.34h.05a1.73 1.73 0 01-.55 0 4.63 4.63 0 00-3.3.75c-.06 0-.13.05-.19.09s-.32.25-.47.39-.33-.05-.47-.15c-.32-.24-.58-.25-.69 0a1.2 1.2 0 00.1 1.33 7.14 7.14 0 002.06 1.29 13.69 13.69 0 012.36 1.18 5.68 5.68 0 00.55.28.68.68 0 00.89-.29 3.06 3.06 0 01.21-.29l-.05-.06h.1c.32-.06.63-.18 1 .06a2.78 2.78 0 002.26.61 1.23 1.23 0 01.4.08c.36.07.5.26.54.71v.21a.49.49 0 00.54.46c.46-.11.92-.24 1.37-.36s.59-.33 1-.29c.79.08 1.2-.5 1.68-1a.64.64 0 00.1-.18c.32-.58.18-1-.45-1.29-.18-.09-.38-.13-.42-.37a.89.89 0 01.24-.75 2 2 0 01.49-.35c.41-.22.85-.42 1.27-.64a2.12 2.12 0 001-1.19l.12-.39a1.08 1.08 0 01.08-.19c.14-.29.37-.46.65-.35a5 5 0 002 .1c.3 0 .48-.42.35-.77L75 33.6h-.1s-.06 0-.09-.07h-.24c.12-.13.18 0 .24 0h.14v.06a1.3 1.3 0 001.5-.59 3.5 3.5 0 01.62-.76 6.6 6.6 0 00.64-.76.83.83 0 000-1.1 1.22 1.22 0 01-.31-.84l-.12-.08h.16v.07c.3.11.6.24.91.34a.52.52 0 00.71-.48.8.8 0 00-.36-.88 4 4 0 00-.75-.29l-.18-.11a1.48 1.48 0 01.28-.28 1.09 1.09 0 01.56-.16 6.61 6.61 0 001.83.07.67.67 0 00.71-.58c0-.13.08-.26.12-.39l.3.18.33.24a1.5 1.5 0 002.1-.46 8.9 8.9 0 012.39-2.11 3.44 3.44 0 001.32-.91 1.53 1.53 0 01.86-.51 16.36 16.36 0 013-1.14c.93-.54 1.88-1.08 2.8-1.65.14-.09.19-.34.24-.53s-.08-.35-.52-.49c-.25-.08-.5-.18-.74-.28l-.06.1.06-.15c.1-.22.16-.43.52-.45 1-.05 2-.16 3-.25l2.9-1.47a1.36 1.36 0 00.35-.21 2.85 2.85 0 00.6-.8 3.66 3.66 0 00.19-1.19.93.93 0 00-.64-.94.51.51 0 01-.4-.59 13.3 13.3 0 00.13-1.36.42.42 0 00-.21-.32 10.59 10.59 0 00-1.35-.43 1.47 1.47 0 00-1.16.14 1.26 1.26 0 01-.44.14l-.08.09h-.12l-.17.19s-.09 0-.14-.05.19-.14.31-.14l.06-.07h.14c.2-.21.4-.44.62-.64s.34-.38 0-.64l-.33-.24c-.06 0-.12-.1-.18-.1-.55-.05-1-.47-1.49-.57a.84.84 0 01-.72-.62.71.71 0 00-.64-.54 11.65 11.65 0 01-1.58-.33 1.54 1.54 0 00-1.52.19c-.34.22-.57 0-.6-.49 0-.14.06-.32-.07-.35-.72-.19-1.45-.37-2.19-.52a3.66 3.66 0 00-.81 0 .66.66 0 00-.54.53c0 .48-.1 1-.16 1.42 0 0-.08.1-.13.12a.22.22 0 01-.3-.17v-.81c0-.04-.22-.24-.31-.22-.59.08-.84-.33-1.16-.69a.77.77 0 00-.94-.16.83.83 0 00-.53.8c0 .27.09.54.11.8 0 0-.07.13-.12.15s-.17 0-.19 0c-.19-.35-.35-.73-.56-1.07a.54.54 0 00-1 .1c-.23.42-.23.43-.53.33l-.19-.08c-.4-.1-.76.12-.67.47a1 1 0 01-.46 1.13c-.19.14-.23.48-.37.71a.58.58 0 01-.89-.06 15.48 15.48 0 00-.79-1.64c-.12-.18-.47-.24-.73-.3s-.51.15-.56.48-.21.63-.61.68a.72.72 0 00-.39.12c-.09.07-.21.24-.18.32.17.5.38 1 .57 1.48h.07v.16l-.1-.1a.88.88 0 01-.82-.35.61.61 0 00-.71-.28.47.47 0 01-.54-.13c-.13-.15-.22-.34-.35-.5s-.47-.31-.7-.1-.38.38-.57.57-.24.1-.36 0a.91.91 0 00-.93-.27 6.81 6.81 0 00-2.09.8 2.49 2.49 0 00-.45.41.72.72 0 00.17 1 1 1 0 00.35.11h.11c.09-.12.19-.25.29-.36a.17.17 0 01.17 0 .14.14 0 010 .27 1.5 1.5 0 01-.43.1l-.06.07a4.6 4.6 0 00.14.74c.16.48.18.47 0 .65a4.26 4.26 0 00-.42.43c-.31.4-.17.85.33 1.12l.28.16a.67.67 0 01-.18.07h-.4a.6.6 0 00-.48.75 2.55 2.55 0 00.72 1.41 1.4 1.4 0 001.25.41v-.05s.08-.05.13-.07-.12.04-.18.04a2.16 2.16 0 00.31.67 3.19 3.19 0 001.91 1 2.4 2.4 0 001.48-.38.64.64 0 000-.07c.06 0 .15-.08 0 .05.06.23 0 .5.24.66a3 3 0 002.47.55 3.34 3.34 0 002.41-1.25.8.8 0 01.59-.35v-.07l.05.05h-.08c0 .09-.08.19-.13.28s-.06.11-.08.17a.53.53 0 00.26.64c.38.17.86.07 1.18.41h.09v.1l-.08-.06v-.05a7.8 7.8 0 00-4.1.59 2.38 2.38 0 01-1.8.06 8 8 0 00-1.21-.2.67.67 0 00-.6.46c0 .54-.08 1.08-.11 1.63 0 .18-.08.27-.18.21a.25.25 0 01-.1-.16 3.82 3.82 0 00-2.22-3l-.17-.11a.79.79 0 00-.94.12c-.42.41-.82.83-1.22 1.25.09.27.25.53.09.8zm-4.3 12.87l-.08-.11.13.06.06.07zm.94-3.31l-.1.05v-.09l.1-.06zm2.15 4.74l-.06.17-.15.08-.15.09.26-.22.1-.12.06-.18a.58.58 0 01-.05.16zm25.33-16.55a.83.83 0 01.15 0v.09h-.15s-.02-.09 0-.09zm-21.73-2.19a1.48 1.48 0 00-.13.08 1.48 1.48 0 00.08-.13h.09zm6.21 10v.12l-.14-.09zM50.78 66c.8.09 1.43.81 2.31.63.06 0 .13 0 .19.08l.33.23a9.78 9.78 0 001 .75.76.76 0 00.57.08c.15 0 .26-.2.38-.33l-.41-.5v-.05c-.3 0-.57 0-.68-.34h-.08l-.08-.09h.13v.05a.66.66 0 01.68.34h.07l.41.5v.05c.31-.06.64-.11 1-.19a1.05 1.05 0 00.81-1.16 5.35 5.35 0 00-.08-.7h-.06v-.09c-.32-.34-.32-.37.06-.72v-.05c0-.14 0-.16.09 0s-.06 0-.09.09l-.06.72v.07c.41.18.83.35 1.23.55.09 0 .13.21.17.33s0 .13 0 .2a2.58 2.58 0 00-.29 1c0 .3.37.56.45.87a4.2 4.2 0 00.92 1.79.3.3 0 01-.13.49 2.41 2.41 0 00-.57.22 1 1 0 00-.28.5.36.36 0 00.19.31c.54.14 1.07-.28 1.61 0a.61.61 0 01.15.13.22.22 0 01-.08.33 5.36 5.36 0 00-.54.26.42.42 0 000 .55.58.58 0 00.35.17 1.46 1.46 0 00.39-.09c.54-.14.94 0 1.09.58a.53.53 0 00.22.33c.66.26.66.75.58 1.34s-.09 1.37-.15 2a.65.65 0 01-.46.62 1.66 1.66 0 00-1 .65 5.4 5.4 0 01-1.53 1.33c-1.11.78-1.5.87-.79 2.49 0 .08-.08.34-.13.34a5.32 5.32 0 00-2 .43 2.25 2.25 0 01-2-.18c-.36-.19-.72-.39-1.09-.55a.41.41 0 00-.36.08 6 6 0 01-1.17 1.14 2 2 0 00-.46.66 1.09 1.09 0 00.15 1.15A1.85 1.85 0 0054 86a3.69 3.69 0 01.78-.24.64.64 0 01.39 0c.69.41 1.45.16 2.17.29a1.05 1.05 0 01.8.55 19.17 19.17 0 001 1.79c.27.36.45.63.22 1.07a.75.75 0 00.1.78 3.77 3.77 0 001.47 1.33 2.74 2.74 0 011.11.86 3.91 3.91 0 002 1.34c.38.09.68.43 1 .6a6.35 6.35 0 001.13.41.38.38 0 00.31-.19 1.18 1.18 0 00.06-1.15 8.62 8.62 0 00-1.94-2.82 1.24 1.24 0 01-.36-1v-.11l-.24-.16h.1a.17.17 0 010 .05l.08.06v.07a3.54 3.54 0 011.63 1.09 3.08 3.08 0 001.28 1 1.64 1.64 0 01.84.86c.18.36.38.72.59 1.06a.42.42 0 00.33.17.21.21 0 00.13-.33 1.34 1.34 0 01.09-1.52 3 3 0 01.78-.92.83.83 0 00.26-.92 3.64 3.64 0 00-.15-.59 4.24 4.24 0 01-.37-2.19 1.05 1.05 0 00-.56-1 10.38 10.38 0 01-1.03-.92.89.89 0 01-.28-.73 2.48 2.48 0 00-.51-1.69c-.07-.08-.06-.22-.08-.35l-.13-.09.11.05a2.23 2.23 0 00.36 0c.59 0 .67-.06.82-.65a5.37 5.37 0 01.21-.56.33.33 0 01.51 0c.28.38.55.78.84 1.16a3.55 3.55 0 01.73 1.66c.05.27.09.54.16.8a.78.78 0 00.19.36 3.3 3.3 0 001.36.85.36.36 0 00.33-.17 9.5 9.5 0 00.38-1.11.71.71 0 01.51-.57 5.69 5.69 0 00.59-.16c.94-.34 1.3-1.36 2.18-1.8a1.83 1.83 0 00.61-.79.83.83 0 00.01-.53 1.26 1.26 0 00-.9-1 1 1 0 01-.71-.33v-.07c-.17-.13-.15-.27 0-.4v-.09c-.1-.09-.17-.22-.28-.27a1.07 1.07 0 00-.4 0 2.67 2.67 0 01-.4 0 .5.5 0 01-.33-.63c.22-.63.23-.69-.14-.91s-.68-.41-.64-.89c-.38-.14-.77-.25-1.13-.41a1.2 1.2 0 01-.65-.76A1.49 1.49 0 0070 74.12a.28.28 0 01-.14-.49c.4-.46.84-.88.69-1.59 0-.14.11-.2.27-.15a5.92 5.92 0 001 .26.62.62 0 00.51-.21c.08-.14 0-.38 0-.58a.32.32 0 00-.11-.17c-.35-.31-.48-.64-.11-1a1 1 0 00.2-1.13 13.52 13.52 0 01-.63-1.71A2.1 2.1 0 0070 65.54a1 1 0 01-.82-.79c0-.14-.26-.23-.42-.35l-.1.09.07-.12a1.54 1.54 0 00-.05-1.37 4.66 4.66 0 00-.59-.83A.77.77 0 0067 62c-.39.22-.54.2-.67-.12-.21-.55-.59-.44-1-.39a.31.31 0 01-.19 0c-.13-.1-.08-.18 0-.32a2.77 2.77 0 00.47-.65.46.46 0 000-.38c-.12-.15-.34-.24-.44-.4s.11-.5.11-.76a1 1 0 00-.42-.89c-.63-.5-1.28-1-1.93-1.44l.06.06a2.68 2.68 0 00-1.74.5 1.45 1.45 0 01-1.56.07 1 1 0 00-1.2.14.3.3 0 000 .1.72.72 0 00-.24.14l.19-.2h.07c.08-.35.16-.71.25-1.06a11.3 11.3 0 00.62-2.69 1.09 1.09 0 01.28-.67v-.39c0-.8-.3-.93-.94-1.11a2 2 0 00-1 0 10.79 10.79 0 01-2.37.64 2.23 2.23 0 00-1.77.84c-.22.26-.55.41-.78.66a2.36 2.36 0 00-.61 2.32c.06.2.13.4-.15.45a2.86 2.86 0 00-.88.51.72.72 0 00-.36.86c.11.4.25.78.36 1.17a1.4 1.4 0 01.07.4.16.16 0 01-.09.16c-.11 0-.29.11-.34.07a2.61 2.61 0 01-.66-2.43c0-.07 0-.13.08-.19a3.57 3.57 0 01.37-.73 2 2 0 00.41-1.5 1.13 1.13 0 01.38-.91c.2-.19.42-.36.6-.56a7.33 7.33 0 012.74-2.1.61.61 0 00.28-.29.47.47 0 000-.37 1.75 1.75 0 00-.6-.52 4.11 4.11 0 00-3.91.42 17.49 17.49 0 00-1.62 1.25c-.81.63-1.2 1.67-2.11 2.21a1 1 0 00-.27.31c-.14.23-.28.46-.41.7s-.19.56-.37.72a7.76 7.76 0 00-1.5 2.65.83.83 0 00.5 1.16c.5.22 1 .4 1.52.63a1.21 1.21 0 01.42.42.33.33 0 01-.37.48c-.36-.19-.7-.43-1.06-.61a.83.83 0 00-1.18.71 7 7 0 000 1 2.5 2.5 0 00.7 1.23c.24.31.6.28.93.34s.41 0 .6.09a.9.9 0 01.65.69 1.3 1.3 0 001.28.6c.46-.08.68.19.75.61a2.33 2.33 0 011.22.4 2.49 2.49 0 01.61-.03zm10.47 19.73a.72.72 0 01-.36-.11.18.18 0 010-.16c.18-.36.38-.71.55-1.07.08-.16.17-.22.31-.13s.12.08.14.14.14.37.18.49a.87.87 0 01-.82.84zm9.54-17.86a.2.2 0 01.27.2.38.38 0 01-.29.4v.07l-.12.1.07-.15c0-.16-.09-.32-.12-.49s.14-.12.19-.13zM58 57.82l.18-.19a.5.5 0 00-.13.25s-.17.12-.05-.06zm-7.48 2.66l.15.07-.16.06zM15.24 43.07zm0 0a1.74 1.74 0 01-.88.32l-1.19.09a1 1 0 01-.21.25 20.66 20.66 0 01-2.8 1.27c-.45.19-.86.42-.92 1 0 .23-.23.32-.4.42a9.68 9.68 0 00-.88.52c-.37.3-.81.61-.83 1.11a2.78 2.78 0 00.31.95 1.46 1.46 0 01.07.19.67.67 0 00.58.5c.61.08 1.22.12 1.83.19.05 0 .11.09.12.15a.21.21 0 01-.21.26l-2 .17a1.92 1.92 0 00-1.14.4.93.93 0 00-.3.51 3.71 3.71 0 00.05.81c0 .73.14 1 1.1 1.18a12.9 12.9 0 003.42.53 1.05 1.05 0 01.59.13 5.58 5.58 0 012 2c.08.15.1.26 0 .34a.3.3 0 01-.19 0 9.13 9.13 0 01-2.91-.91A3.53 3.53 0 009.27 55a27.43 27.43 0 00-2.87 0 1 1 0 00-.9.73 3.4 3.4 0 00-.2 1.61 2 2 0 001.52 2c.45.15.92.24 1.35.43a.56.56 0 01.24.5 6.88 6.88 0 01-.42.92 1.12 1.12 0 00-.13.58 6.65 6.65 0 00.28 1.19.44.44 0 00.29.24 3.15 3.15 0 00.57 0 12.33 12.33 0 012.85.23 1.93 1.93 0 001.58-.16l.91-.45a2.1 2.1 0 011.38-.27 1.94 1.94 0 001.54-.4 5.66 5.66 0 01.71-.41.25.25 0 01.35.12 1.51 1.51 0 01.09.18c.1.38.41.53.71.68s.24.77.55 1.05c.05 0 .1.11.16.13a19.81 19.81 0 001.95.59 4 4 0 002 0 1 1 0 00.75-.63 1.82 1.82 0 00-.19-1.86h-.1a.53.53 0 01-.41.28h-.19c-.04 0-.11-.21.1-.23h.5l.05-.07.05.06a3.34 3.34 0 01.36-.48c.16-.14.41-.21.55 0 .29.34.81.41 1 .82a1.47 1.47 0 001.19-1 1.24 1.24 0 00-.08-1.18 4.46 4.46 0 00-.52-.63 1.77 1.77 0 01-.55-1.07 1.66 1.66 0 00-.71-1.17c-.45-.34-.49-1-.69-1.46a.8.8 0 01.16-.94 2.8 2.8 0 00.95-2.3 2.88 2.88 0 01.17-1c.36-1 .75-1.9 1.12-2.86a1.44 1.44 0 01.61-.77 12.85 12.85 0 002.28-1.74 1.1 1.1 0 00.33-.73 1.11 1.11 0 00-.94-1.34c-.39-.11-.78-.24-1.18-.32a1.5 1.5 0 00-1.28.53c-.29.26-.2.58-.12.93a8.08 8.08 0 01.13 1.31.3.3 0 000 .08l.06.09-.1-.06v-.11a1.56 1.56 0 01-.16-.28 1.07 1.07 0 00-.68-.71 2.86 2.86 0 01-.58-.21c-.59-.34-.93 0-1.18.37a5.23 5.23 0 00-.49.9 18.87 18.87 0 01-.93 2.48 18 18 0 00-.81 2.52c0 .06 0 .12-.07.19l-.09.18a.43.43 0 01-.51.22c-.17 0-.37-.32-.33-.46a22.33 22.33 0 01.75-2.15 4.23 4.23 0 00.13-3 1.45 1.45 0 00-.34-.49c-.17-.19-.63-.1-.68.14-.1.46-.18.93-.27 1.39-.05.25-.2.4-.41.33a6.55 6.55 0 00-1.82-.19c-.2 0-.28 0-.21-.12s.12 0 .18-.09c.29-.16.6-.3.88-.48a.64.64 0 00.16-.74 4 4 0 00-1-1.27.87.87 0 00-1.28-.11 6.11 6.11 0 00-.58.56.63.63 0 01-.56.16c-.21 0-.19-.11.07-.48s.63-.89.92-1.35a.9.9 0 00-.3-1.08c-.11-.08-.24-.13-.36-.2l.07-.06h-.06a.09.09 0 000 .05c-.41.34-.88.34-1.3.41z"/><path class="cls-6" d="M57.84 29.52a1.13 1.13 0 00.74.27 2 2 0 011.37.26.62.62 0 00.74-.09l.63-.52a.18.18 0 01.07.05v-.08a4.23 4.23 0 001.29-.88 4.66 4.66 0 011.14-.77l.31-.6a1 1 0 01.94-.53c0-.17 0-.19.11-.06l-.11.09c0 .56 0 .61.5.7h.3c.33-.39.42-.95.83-1.28s.83-.51.87-1.05a2.53 2.53 0 00-.43-1.94 2 2 0 01-.22-.34.47.47 0 01.06-.56 3.4 3.4 0 01.91-1 3.17 3.17 0 010-1.37 2.35 2.35 0 00.21-1c0-.51-.6-.5-.84-.81s-.67-.45-1-.69a.72.72 0 01-.26-.42 11.11 11.11 0 010-1.63c0-.47.17-.94.24-1.41a2.08 2.08 0 00-.83-1.78 1.53 1.53 0 00-1.34-.29.65.65 0 00-.53.54c0 .19.08.35.34.46a6.66 6.66 0 01.73.31.22.22 0 01.06.35c0 .06-.09.14-.13.14-.34 0-.68 0-1 .06a8.4 8.4 0 00-1 .24 1 1 0 00-.59 1c.06.26.21.5.28.76 0 .1-.07.24-.13.35a.21.21 0 01-.19 0c-.29-.22-.59-.38-.92-.1a1.35 1.35 0 01-1.13.33c-.46-.07-.54.34-.46.68a2.07 2.07 0 00.47.89 1.48 1.48 0 01.49 1h.06a.26.26 0 01.13.08h.31c-.13.09-.22 0-.31 0h-.18v-.06a2.64 2.64 0 01-1.06-.46.42.42 0 00-.54.12c-.61 1.07-.82 2.3-1.38 3.39a.88.88 0 00.34 1.08 2.07 2.07 0 001.11.46 1.13 1.13 0 01.54.26.47.47 0 01.1.37.45.45 0 01-.22.3.88.88 0 01-.39 0 1.38 1.38 0 00-1.75 1 9.09 9.09 0 00-.4 2 2.3 2.3 0 001.12 2.18zm5.92-1.71v.06-.08zM.82 46.66v1.64a.5.5 0 00.4.39A4.44 4.44 0 003.31 48l.1-.06-.09.06a1 1 0 00.8.46 1.53 1.53 0 00.95-.29 3.85 3.85 0 00.55-.59c.25-.32.44-.69.71-1a1.94 1.94 0 011.49-.88 1.79 1.79 0 00.88-.46c.31-.26.55-.6.86-.86a1.43 1.43 0 01.7-.36 13.58 13.58 0 002.16-.52 5.14 5.14 0 01.8-.11h-.07a1.89 1.89 0 011.2-.39h.91a1.69 1.69 0 011.22-.42 17.32 17.32 0 000-3.22 2.15 2.15 0 00-.8-1.36 1.21 1.21 0 00-.95-.29 2.05 2.05 0 01-1.49-.57 3.35 3.35 0 01-.77-.67 1.71 1.71 0 00-1.92-.81 14.25 14.25 0 01-1.85 0 5.7 5.7 0 00-1 .13.73.73 0 00-.56.55 6.93 6.93 0 00-.19 1.21 1.31 1.31 0 01-.57 1c-.64.5-1.25 1-1.89 1.56a1.26 1.26 0 00-.6 1 .48.48 0 01-.21.33 28 28 0 00-3 2.4c-.22.16-.51.31-.6.53-.17.37.26.57.41.85a2.66 2.66 0 01.33 1.44zM64 43.81a1.49 1.49 0 01-.5-.61 1 1 0 00-1-.58 2.81 2.81 0 01-1.79-.31 1 1 0 00-.59-.05c-.89.09-1.77.16-2.64.3-.55.09-1.06.32-1.41-.36-.12-.25-.45-.26-.71-.35a2.27 2.27 0 01-1.69-1.6c-.09-.41-.37-.53-.71-.61s-.21-.1 0-.22a3.35 3.35 0 00.59-.48h-.07.12a2.9 2.9 0 001.21.05c.14-.05.3-.38.22-.51a1.17 1.17 0 00-.22-.34 1.16 1.16 0 01-.45-1.24c.07-.37-.38-.82-.74-.86s-.68 0-1-.06a.71.71 0 01-.63-.45c-.09-.26-.14-.53-.24-.79a1.24 1.24 0 00-.26-.54A7.77 7.77 0 0049.8 33a1.44 1.44 0 00-1.54.21.89.89 0 00-.4.89 9.78 9.78 0 01.49 2.38c0 .11.14.25.24.3l1.71.67c.53.21.57.26.56.7s0 .82 0 1.22a1.25 1.25 0 01-.57 1.23 3.38 3.38 0 00-.82.91 4.15 4.15 0 00-.6 2.74c0 .65.86.6 1.16 1.06a.67.67 0 00.14.15 1.21 1.21 0 001.52.14 1.34 1.34 0 01.37-.16c.16 0 .23.06.19.23a1.44 1.44 0 00-.09.6.75.75 0 00.59.52 8.78 8.78 0 002 .4c1.32 0 2.51.68 3.83.63.24 0 .49.21.73.34a2.31 2.31 0 001.56.35c.41-.06.82 0 1.23-.08a1 1 0 00.55-.23 4.51 4.51 0 011.16-.82.59.59 0 00.33-.68 1.11 1.11 0 01.23-.74 1.4 1.4 0 00-.37-2.15zM29.42 34.9c-.6-.12-1.21-.24-1.8-.39-.09 0-.22-.24-.19-.28.37-.59 0-1.21.11-1.74 0-.53 0-1-.1-1.48a1 1 0 00-.83-.78c-.4-.09-.39-.13-.39-.53 0-.63-.23-.94-.74-1s-.89-.15-1.18.14c-.52.5-1.23.58-1.77 1a3.45 3.45 0 00-.54.6c.08.52-.25.67-.65.85a2.62 2.62 0 00-.76.66.24.24 0 000 .37c.22.16.46.29.69.43s.18.21.08.29a.23.23 0 01-.18 0 13.59 13.59 0 00-1.41-.18c-.45 0-.81.4-1 .91a.73.73 0 00.31.88c.26.22.53.43.81.64.66.49 1.32 1 2.21.53a.48.48 0 01.39 0 3.48 3.48 0 001.58.36c.06 0 .11.07.16.1a1.07 1.07 0 01-.19.09l-2.63.42a.71.71 0 00-.49.59 1.25 1.25 0 00.68 1.36 2.34 2.34 0 00.77.26h1.22a3.28 3.28 0 002.16-.49 2 2 0 01.74-.3 7.41 7.41 0 001.86-.21.67.67 0 01.39 0 12.63 12.63 0 011.33.52 1.45 1.45 0 001 .14q.41-.09.81-.15a1.71 1.71 0 001.05-.51c.63-.62 1.19-1.31 1.86-1.88a2.33 2.33 0 00.44-.69 1.27 1.27 0 00-.49-1.61.64.64 0 00-.39 0 .93.93 0 00-.63.48c-.1.16-.22.23-.32.1s-.79-.39-.61-.94c-.22-.28-.43-.54-.09-.89a1 1 0 00.27-.75 3.57 3.57 0 01.37-1.82.48.48 0 00-.15-.55.56.56 0 00-.75 0c-.56.39-1.11.8-1.65 1.21a.92.92 0 00-.34.91 3.75 3.75 0 00.13.6c.12.41-.1.64-.42.83l-.17.11a.69.69 0 00-.26.89 2.55 2.55 0 01.13.39c.06.23-.19.61-.43.51zm10.5 12.62a.64.64 0 00.25-.72.72.72 0 00-.58-.51c-.47-.08-1-.06-1.42-.13a3.66 3.66 0 01-.7-.25h-.06l.05.06a3.58 3.58 0 00-.46-.47 1 1 0 00-.54-.2 3.33 3.33 0 00-1 .23.81.81 0 00-.47.34 2.22 2.22 0 01-.94 1 .51.51 0 00-.14.56 1.92 1.92 0 00.21.58A1.69 1.69 0 0134 50a.36.36 0 01-.52.08 3.83 3.83 0 01-.63-1.28.62.62 0 00-.66-.37 1.29 1.29 0 00-1.36 1.24c0 .54-.09 1.08-.11 1.63a.47.47 0 00.31.48 1.58 1.58 0 01.9 1.05 8 8 0 01.61 2.57 1.77 1.77 0 00.58 1.28.57.57 0 00.73.09 6.85 6.85 0 01.92-.8 8.53 8.53 0 011.14-.4A8.68 8.68 0 0037 55a1 1 0 00.39-.45 4.27 4.27 0 011-1.73 1.39 1.39 0 00.28-1.35c-.08-.33-.22-.64-.31-1a1.46 1.46 0 00-.78-.9c-.17-.09-.16-.22 0-.29.38-.17.76-.31 1.14-.46a.72.72 0 00.51-.58c.1-.43.42-.54.69-.72zm-24.63-19.4a5.53 5.53 0 011.42.53 2.62 2.62 0 01.74.66.75.75 0 00.94.12c.33-.23.63-.51 1-.75a.47.47 0 01.37 0c.21.09.41.11.54-.08.32-.44.59-.92.94-1.34a12.38 12.38 0 011.13-1.16.65.65 0 01.34-.11c.18 0 .19.24 0 .54-.28.46-.59.92-.86 1.39a1 1 0 000 .79.52.52 0 00.68.26 1.36 1.36 0 00.46-.39 1.37 1.37 0 011.13-.76 1.74 1.74 0 00.58-.2c.18-.09.42-.19.48-.35.32-.75 1.18-1.14 1.29-2 0-.15.25-.3.42-.41a3.87 3.87 0 01.55-.25.58.58 0 00.31-.5 5.61 5.61 0 000-.82c0-.29-.25-.68-.4-.65a1.22 1.22 0 00-.53.24c-.27.28-.51.46-.71.28a3 3 0 00-1.71-.53 1.43 1.43 0 00-1.16.26 14.52 14.52 0 01-4.51 2.36 10.62 10.62 0 01-1.13.45 4.74 4.74 0 00-1.86.8 1.58 1.58 0 00-.74 1.35c0 .09.18.25.29.27zm22.93 3.74a3.45 3.45 0 00-.32.74 2.77 2.77 0 01-.47 1.32.49.49 0 00-.1.37 3.48 3.48 0 01.08 2s.18.16.27.25.28.2.27.26c-.14.69.31.82.81.88s1.22.13 1.82.2a.33.33 0 01.14.1c-.06.12-.1.29-.19.33a5 5 0 01-.77.26.88.88 0 00-.62.74 7 7 0 00-.09.8.65.65 0 00.42.63c.52.16 1 .32 1.57.44a1.27 1.27 0 001.36-.68 2.12 2.12 0 00.13-.38 1.09 1.09 0 011.06-.75 8.59 8.59 0 01.48-1.22 9.91 9.91 0 01.84-1.15c0-.06.09-.1.13-.16.31-.58.63-1.17.92-1.76a.53.53 0 000-.39 6 6 0 00-.32-.73.43.43 0 00-.49-.26c-.53.15-.84-.14-1.13-.5a3.33 3.33 0 00-1.66 0 1.87 1.87 0 00-.43 1.08v1.42a.29.29 0 01-.07.18c-.09.07-.16 0-.22-.17-.19-.5-.37-1-.59-1.5a.45.45 0 00-.34-.15.44.44 0 00-.34.16c-.29.6-.54 1.2-.81 1.8v.06h-.11.07a1 1 0 01-.18-1.08c.09-.18.21-.42.15-.57a3.57 3.57 0 01-.21-1.58 1 1 0 00-.08-.4c-.08-.18-.18-.36-.28-.54a.47.47 0 00-.7-.05zm5.91-7.66a2.64 2.64 0 011.1.32v.06c.19.16.36.33.56.48a1.72 1.72 0 01.73 2.42.71.71 0 00.29.89 1 1 0 001.13.12A2.22 2.22 0 0049 27a3.32 3.32 0 011.09-2.12 1.76 1.76 0 00.41-.69 1.27 1.27 0 00-.19-1.51.6.6 0 01-.21-.71 1.29 1.29 0 00.06-.4c0-.94-.37-1.31-1.23-.93a3.57 3.57 0 01-.38.14s0 .17-.12.05l.13-.09a7.83 7.83 0 00.1-1.18 1.17 1.17 0 00-1.19-1.16 4.9 4.9 0 01-1.21 0c-.11 0-.26.09-.36.18-.41.37-.79.75-.58 1.41a1.25 1.25 0 01-.08.56c-.1.42-.09.44.42.68h.07a.66.66 0 010-.1c.11 0 .1.05 0 .1a.64.64 0 010 .07 5.23 5.23 0 01.11.78 1.9 1.9 0 01-.14.57c-.09.25-.28.36-.47.26s-.47-.27-.72-.37a.48.48 0 00-.55.13 1.33 1.33 0 00-.33.49.72.72 0 00.5 1.04zm15.49 29.46a2 2 0 010 1.35 1.28 1.28 0 001.3 1.43c.4 0 .79-.15 1.19-.18a.89.89 0 01.82.32l1.41.11a.49.49 0 00.4-.38 9.91 9.91 0 00-.31-2.23 1.91 1.91 0 00-1.51-1.49 6.47 6.47 0 01-2.1-.77.53.53 0 00-.68.26l-.47.81c-.02.26-.14.55-.05.77zm.06-.77zm-9.06-24.26a.66.66 0 00.55.53 5.87 5.87 0 002.21.08.88.88 0 00.46-.38c.22-.3.17-.75.47-1v-.09h-.06a1.18 1.18 0 000-1.52 7.25 7.25 0 01-1-1.8 4 4 0 00-.32-.52.72.72 0 00-.91-.14 3.46 3.46 0 00-1.29 2.67 2.62 2.62 0 01-.34 1.12 2.18 2.18 0 00.23 1.05zm-6.74 12.72a.86.86 0 000 1.26c.49.47 1 .89 1.53 1.32a1.79 1.79 0 00.37.16.77.77 0 001-.38c.2-.49.39-1 .55-1.51a3.11 3.11 0 00.13-.8 1.9 1.9 0 00-.6-1.4 1.28 1.28 0 00-1-.23h-.59a7.8 7.8 0 01-1.39 1.58zm1.43-1.6v-.06h-.1zM34.22 20.7a1.91 1.91 0 011.35.78c.55 0 .76.51 1.16.75a1.33 1.33 0 002-.87c0-.27.06-.54.08-.81v-.2c0-.67-.33-1.05-1-.94a7.73 7.73 0 01-1.8.16 5.53 5.53 0 00-1.4.17 1.24 1.24 0 00-.53.28.52.52 0 00-.13.36c.1.11.19.3.27.32zM56 75.37a.85.85 0 00.85 1.11 2.3 2.3 0 002.4-1.48c.13-.31.25-.63.37-1a.91.91 0 00-.39-.87 1.34 1.34 0 00-1.54 0 5 5 0 00-1.67 2 .71.71 0 00-.02.24zm-2.67-43a1.54 1.54 0 00.87-.46.5.5 0 000-.55 4.58 4.58 0 00-2.79-1.45 1.09 1.09 0 00-1.1.71.69.69 0 00.19.73 7.08 7.08 0 002.61 1 1.33 1.33 0 00.22.02zm-32.2-2.62c0-.05 0-.13-.08-.15a.75.75 0 00-.37-.11 6.31 6.31 0 00-2.87 1.36.51.51 0 00.13.83.68.68 0 00.75.1c.81-.6 1.59-1.22 2.38-1.84.04-.04.04-.13.06-.19zm18.65-.21a.45.45 0 00.54-.07 5.2 5.2 0 00.52-2.2 2.77 2.77 0 00-.05-.54c0-.1-.15-.25-.24-.26a.4.4 0 00-.33.17c-.26.53-.53 1.08-.74 1.64a1.62 1.62 0 000 .79 1.15 1.15 0 00.3.47zm15.09-10.95a.35.35 0 00.53 0 3 3 0 00.75-1.19.51.51 0 00-.1-.37.9.9 0 00-.72-.33c-.6.12-1.17.67-.74 1.32.11.2.18.39.28.57zm.66 15.5a.23.23 0 00.11.15.91.91 0 001 .07 1 1 0 00.55-.72.91.91 0 00-.86-1 .56.56 0 00-.34.17 1.94 1.94 0 00-.46 1.33zm-11.47-6.64a1.11 1.11 0 001 .79.59.59 0 00.61-.63 1.09 1.09 0 00-1.06-1 .67.67 0 00-.55.84zM31.3 23.3l-.05.05.06-.05c-.08.26-.15.53-.25.78a1 1 0 00.1 1c.19.28.4.55.6.82a1 1 0 00.69.38 7.34 7.34 0 00.82.08 1.57 1.57 0 001.26-.55 1.9 1.9 0 00.58-1.05c0-.31.26-.45.5-.58a6.71 6.71 0 00.86-.51.25.25 0 000-.37c-.08-.11-.16-.25-.27-.29a10.45 10.45 0 00-2.59-.52 3.11 3.11 0 00-2 .47h.05-.05l-.18.18.18-.18c0-.39 0-.78-.09-1.17 0-.23-.38-.39-.63-.33a.73.73 0 00-.56.5 1.19 1.19 0 00.06 1 1 1 0 00.91.34z"/><path class="cls-6" d="M39.2 46a2.1 2.1 0 00.69-.37c.09-.06.09-.23.11-.36s-.09-.1-.15-.12a4.1 4.1 0 00-1.6 0c-.46 0-.66.35-.78.75a3.51 3.51 0 001.73.1zm-4.72-7.13a.82.82 0 00.85-.36.91.91 0 000-.93.27.27 0 00-.33-.16 1.43 1.43 0 00-1 .89c0 .18.25.53.48.56zm21.82 30.4l-.34.2c-.32.25-.8.23-1 .63a.66.66 0 000 .37.23.23 0 00.15.12c.2 0 .44.07.58 0a8.45 8.45 0 001-.75.4.4 0 00.07-.53.26.26 0 00-.46-.04zm4.89 6.03c.1 0 .17-.18.25-.27a1 1 0 00-.07-.37.92.92 0 00-.86-.41.47.47 0 00-.44.34.44.44 0 00.18.52 1 1 0 00.94.19zM26.8 64.34a3.27 3.27 0 00-.7.35.66.66 0 00-.2.71.22.22 0 00.31.16 1.74 1.74 0 00.85-1s0-.12-.1-.15a.2.2 0 00-.16-.07zm16.36-31.83a.23.23 0 00-.15-.12 1.18 1.18 0 00-1.1.2.33.33 0 000 .32 3.27 3.27 0 00.49.27c.25-.16.5-.32.74-.49a.2.2 0 00.02-.18zm-.79.67h-.06zm2.35 45.87c-.08.07-.21.13-.24.21a.54.54 0 000 .38 4.9 4.9 0 00.51.6.21.21 0 00.19 0 .21.21 0 00.17-.29 1.28 1.28 0 00-.63-.9zM27.28 27.23c0 .1.06.24.13.36a.55.55 0 00.51.24.4.4 0 00.39-.36c0-.11-.08-.28-.17-.33a1.16 1.16 0 00-.55-.12.39.39 0 00-.31.21zM44.8 39.84l.45-.12a1.83 1.83 0 00-1.61-.34c.36.78.36.78 1.16.46zm-1.16-.46v-.05zM58.8 69.64c0-.06-.21-.15-.31-.14a.41.41 0 00-.38.36c0 .15.13.3.19.44.18-.06.36-.07.4-.15a1 1 0 00.1-.51zm-11.34-31.2c-.25 0-.47.23-.4.54 0 .05.08.13.13.13.23 0 .55-.28.41-.54-.03-.05-.08-.12-.14-.13zm-1.62 26.02c-.1.12.08.37.3.41a.62.62 0 00.75-.42 4.69 4.69 0 00-.72-.17.48.48 0 00-.33.18zm1.05-.01H47a.05.05 0 00-.11 0zM78.2 38.24a.54.54 0 00-.56-.16.38.38 0 00-.16.12.2.2 0 000 .17.43.43 0 00.47.28c.11 0 .2-.14.3-.22a.58.58 0 00-.05-.19zm-11.57 4.42zm-.44.64c.11 0 .3 0 .34-.12a2.28 2.28 0 00.1-.52.46.46 0 00-.49.16c-.14.18-.14.47.05.48zM22.94 65.62a.28.28 0 00.16.12.2.2 0 00.27-.2c0-.15-.1-.22-.26-.21s-.24.14-.17.29zm34.49 2.54a.19.19 0 00-.31 0 1.21 1.21 0 00-.1.14l.27.14c.15-.05.21-.15.14-.28zM39 49.67c-.09.06-.24.11-.26.19a.47.47 0 00.1.34c.12.11.4-.09.37-.28s-.15-.17-.21-.25zm4.87-5.74v-.13h-.1c-.04.08-.02.14.1.13zm-17.94.21h.14c.04 0 0-.1 0-.1s-.23.01-.14.1zm29.04 28.52l-.05-.12-.05.12h.1zm-9.91-47.73c.22-.05.2-.2.18-.35a2.31 2.31 0 00-.24.2s.05.15.06.15zM29.1 58.77s0-.08.06-.13-.05-.11-.09-.12-.11 0-.11.07.04.22.14.18zm25.49-30.52a.19.19 0 000-.18 1.42 1.42 0 00-.22-.2 1.31 1.31 0 000 .28c.01.19.11.23.22.1zm6.94 1.64c0-.05.06-.13 0-.16a2 2 0 00-.22-.19c.04.14.03.29.22.35zM26.29 62.4l.05-.06v-.06zm-.03.47v-.18a2.64 2.64 0 000-.29 1.24 1.24 0 00-.19.26c-.07.17.03.26.19.21zm53.29-24.54a2 2 0 00-.29-.15s-.13.08-.12.11.13.2.27.16zM52.3 68.5l-.06.06zm-8.17-35.39h-.16l.05.05zm22.66 9.27a.18.18 0 00-.13.23l.25-.12s-.09-.11-.12-.11zm-25.78.93l-.05-.14-.08.12.13.02z"/></g><path d="M80.64 77.68v-1.6c1.6 0 3.21 0 4.78-.08v1.6c-1.55.04-3.17.07-4.78.08zm-4.82 0c-1.61 0-3.23-.07-4.82-.14l.07-1.59c1.57.06 3.18.11 4.78.13zm-9.63-.39c-1.59-.1-3.21-.23-4.81-.37l.15-1.6c1.58.15 3.18.27 4.76.37zm-9.6-.87c-1.61-.18-3.22-.39-4.78-.62l.19-1.62c1.55.23 3.14.44 4.73.62zM47 75c-1.61-.28-3.2-.59-4.74-.91l.33-1.56c1.52.32 3.09.62 4.69.9zm-9.45-2c-1.58-.39-3.15-.82-4.66-1.26l.44-1.53c1.49.43 3 .85 4.61 1.24zm-9.24-2.7a84.31 84.31 0 01-4.53-1.71l.61-1.48c1.41.58 2.9 1.15 4.45 1.68zm-9-3.71c-1.52-.77-3-1.57-4.25-2.39l.94-1.35c1.26.79 2.64 1.56 4.12 2.3zm-8.17-5.29a21.53 21.53 0 01-3.41-3.61L9 56.75a20.33 20.33 0 003.16 3.34zm-5.63-8.15a10.49 10.49 0 01-.34-2.66A10.81 10.81 0 015.46 48l1.54.4a9.31 9.31 0 00-.24 2.09 8.76 8.76 0 00.29 2.26zm3.41-8.78l-1.3-.93A20.63 20.63 0 0111 39.8l1.05 1.2a19.38 19.38 0 00-3.13 3.37zm117.8-11.46v1.74c8.69 4.59 13.58 10.35 13.58 16.24 0 11.83-18.61 21.81-43.8 24.72v1.61a95.06 95.06 0 0027.19-6.92c11.55-5.11 17.91-12 17.91-19.41 0-6.77-5.25-13.05-14.88-17.98z" fill="#00e5ff"/><circle class="cls-8" cx="85.46" cy="76.79" r="2"/><circle class="cls-8" cx="125.95" cy="33.63" r="2"/><g class="cls-9"><circle class="cls-10" cx="68.17" cy="44.03" r="5.04"/><circle class="cls-10" cx="50.89" cy="64.91" r="5.04"/><path class="cls-10" transform="rotate(-50.44 59.174 55.187)" d="M48.44 53.75h21.48v2.88H48.44z"/></g><g class="cls-9"><circle class="cls-10" cx="88.67" cy="38.63" r="5.04"/><circle class="cls-10" cx="71.4" cy="59.51" r="5.04"/><path class="cls-10" transform="rotate(-50.44 79.672 49.782)" d="M68.94 48.35h21.48v2.88H68.94z"/></g></g></g></svg>