<svg xmlns="http://www.w3.org/2000/svg" viewBox="0 0 141.4 124.01"><defs><style>.cls-2{fill:#48ecff}.cls-3{fill:#fff}</style></defs><g id="Layer_2" data-name="Layer 2"><g id="Layer_1-2" data-name="Layer 1"><path d="M0 31.07h16.57V124H0zM25.45 1.39h16.57v122.62H25.45zM50.9 45.64h16.57V124H50.9zm25.45-23.6h16.57V124H76.35z" fill="#5a00ff"/><circle class="cls-2" cx="46.26" cy="43.28" r="2.44"/><path class="cls-2" d="M46.26 46.13a2.85 2.85 0 01-.51-5.65 2.85 2.85 0 011 5.6 2.94 2.94 0 01-.49.05zm-.37-4.85a2 2 0 102.37 1.63 2 2 0 00-2.37-1.63z"/><circle class="cls-2" cx="67.1" cy="56.83" r="2.44"/><path class="cls-2" d="M67.11 59.68a2.85 2.85 0 01-.52-5.68 2.84 2.84 0 012.13.46 2.77 2.77 0 011.18 1.83 2.82 2.82 0 01-.45 2.13 2.9 2.9 0 01-1.83 1.18 3.14 3.14 0 01-.51.08zm0-4.89a2.33 2.33 0 00-.37 0 2 2 0 102 3.16 2 2 0 00.32-1.52 2 2 0 00-2-1.68zM48.44 44.37L65.4 55.65"/><path class="cls-2" transform="rotate(-56.34 56.933 50.012)" d="M56.52 39.83h.81V60.2h-.81z"/><circle class="cls-2" cx="134.53" cy="4.07" r="4.07"/><circle class="cls-2" cx="100.98" cy="77.02" r="4.07"/><path class="cls-2" d="M124.77 25.56L102.45 73.9m.37.17l-.73-.34 22.31-48.34.74.34-22.32 48.34zm30.76-67.42l-8.81 18.91"/><path class="cls-2" transform="rotate(-65.01 129.174 16.1)" d="M118.74 15.7h20.86v.81h-20.86z"/><circle class="cls-2" cx="76.43" cy="62.1" r="2.06"/><circle class="cls-2" cx="88.12" cy="69.68" r="3.56"/><circle class="cls-2" cx="33.83" cy="39.76" r="4.07"/><path class="cls-2" d="M24.07 61.26L9.89 90.63m.36.18l-.73-.36L23.7 61.08l.73.35-14.18 29.38zm22.63-48.47L19.86 70.29"/><path class="cls-2" transform="rotate(-65.01 26.367 56.31)" d="M10.96 55.91h30.82v.81H10.96z"/><circle class="cls-2" cx="8.42" cy="93.75" r="4.07"/><circle class="cls-2" cx="122.95" cy="74.68" r="9.89"/><path class="cls-3" d="M126.26 70.21a.28.28 0 01.19.31v.78a.2.2 0 01-.18.2h-1.87a.15.15 0 000 .08 2.76 2.76 0 01.42 1 .11.11 0 00.13.1h1.18c.22 0 .31.09.31.31v.69c0 .22-.09.3-.31.31H125c-.08 0-.11 0-.12.09a2.85 2.85 0 01-.79 1.55 3.2 3.2 0 01-1.16.76 4.42 4.42 0 01-1.07.27h-.12a.09.09 0 000 .06l1 1.15 1 1.22 1.4 1.69a.27.27 0 01-.07.47h-1.68l-.19-.17-.82-1-.72-.84c-.41-.47-.81-.94-1.22-1.4l-1.06-1.16a.34.34 0 01-.09-.24v-.91a.27.27 0 01.3-.3h.81a4 4 0 001.41-.21 1.79 1.79 0 00.86-.63A1.26 1.26 0 00123 74h-3.39a.18.18 0 01-.19-.19v-.88a.21.21 0 01.21-.21h3.25v-.06a1.41 1.41 0 00-.75-.61 3.21 3.21 0 00-1.19-.21h-1.2c-.22 0-.31-.1-.31-.31v-.93a.3.3 0 01.19-.31z"/><circle class="cls-2" cx="131.51" cy="97.08" r="9.89"/><path class="cls-3" d="M134.83 92.61a.31.31 0 01.19.31v.78a.21.21 0 01-.19.2H133v.08a2.58 2.58 0 01.42 1c0 .08.06.1.14.1h1.17c.23 0 .31.08.31.3V96c0 .22-.08.31-.31.31h-1.16c-.07 0-.1 0-.12.1a2.91 2.91 0 01-.78 1.54 3.33 3.33 0 01-1.17.76 3.94 3.94 0 01-1.06.27h-.13v.06c.34.38.68.75 1 1.14l1 1.22 1.41 1.7a.27.27 0 01-.07.47h-1.68a1.45 1.45 0 01-.19-.17c-.27-.32-.54-.65-.82-1l-.72-.85c-.41-.46-.81-.93-1.22-1.4l-1.06-1.16a.33.33 0 01-.09-.23V98c0-.21.1-.3.31-.3h.81a3.91 3.91 0 001.4-.22 1.7 1.7 0 00.86-.63 1.45 1.45 0 00.22-.47h-3.4c-.12 0-.19-.08-.19-.2v-.88a.21.21 0 01.21-.21h3.26v-.07a1.41 1.41 0 00-.75-.61 3.43 3.43 0 00-1.19-.21h-1.2c-.21 0-.31-.09-.31-.3v-.94a.31.31 0 01.18-.31z"/><circle class="cls-2" cx="106.81" cy="103.64" r="9.89"/><path class="cls-3" d="M110.12 99.17a.27.27 0 01.19.3v.79a.2.2 0 01-.19.2h-1.87v.08a2.6 2.6 0 01.43 1c0 .08.05.09.13.09H110c.23 0 .32.08.32.31v.69c0 .22-.09.3-.31.3h-1.16c-.08 0-.11 0-.12.1a2.89 2.89 0 01-.79 1.55 3.34 3.34 0 01-1.16.76 4.94 4.94 0 01-1.07.27h-.12v.06l1 1.14 1 1.23c.48.56.94 1.13 1.41 1.69.19.19.12.36-.07.47h-1.67c-.06-.06-.14-.11-.19-.17l-.82-1-.72-.84c-.41-.47-.81-.94-1.23-1.4s-.7-.78-1.05-1.16a.33.33 0 01-.1-.24v-.91a.26.26 0 01.3-.3h.81a4 4 0 001.41-.21 1.86 1.86 0 00.86-.63 1.49 1.49 0 00.21-.48h-3.39c-.12 0-.19-.08-.19-.2v-.88c0-.12.08-.19.21-.2h3.25a.64.64 0 000-.07 1.41 1.41 0 00-.75-.61 3.27 3.27 0 00-1.19-.2h-1.2c-.22 0-.31-.1-.31-.31v-.93a.3.3 0 01.19-.31z"/></g></g></svg>