<svg xmlns="http://www.w3.org/2000/svg" xmlns:xlink="http://www.w3.org/1999/xlink" viewBox="0 0 90.36 115.96"><defs><linearGradient id="linear-gradient" y1="65.03" x2="81.15" y2="65.03" gradientUnits="userSpaceOnUse"><stop offset="0" stop-color="#fff" stop-opacity="0"/><stop offset="1" stop-color="#f7931e"/></linearGradient><linearGradient id="linear-gradient-2" x1="43.09" y1="106.59" x2="43.04" y2="101.41" xlink:href="#linear-gradient"/><linearGradient id="linear-gradient-3" x1="43.77" y1="107.7" x2="43.35" y2="117.36" xlink:href="#linear-gradient"/><style>.cls-6{fill:#00e5ff}</style></defs><g style="isolation:isolate"><g id="Layer_2" data-name="Layer 2"><g id="Layer_1-2" data-name="Layer 1"><path stroke-width=".87" stroke="#00e5ff" fill="none" stroke-miterlimit="10" d="M58.93 4.22L60.61.17"/><path d="M32 29.72h26.39a32 32 0 0132 32v27.83a12.5 12.5 0 01-12.5 12.5H12.5A12.5 12.5 0 010 89.55V61.7a32 32 0 0132-31.98z" fill="#5a00ff"/><path d="M9.67 92.71c0-31.32 26.4-56.71 59-56.71 3.91 0 9.11.58 12.51 1.92-5.82-4.16-14.09-8.19-22.18-8.19H37.41c-20.15 0-37.24 8-37.24 27.41L0 87c0 5.66 7.24 11.58 11 13.31a29.27 29.27 0 01-1.37-7z" style="mix-blend-mode:multiply" opacity=".35" fill="url(#linear-gradient)"/><path d="M38.63 43.59h13.43a23.67 23.67 0 0123.67 23.67v23.4H15v-23.4a23.67 23.67 0 0123.63-23.67z" fill="#fff" opacity=".34"/><circle class="cls-6" cx="34.7" cy="55.45" r="3.01"/><circle class="cls-6" cx="59.77" cy="55.45" r="3.01"/><path fill="#4605e5" d="M25.24 102.05h35.65v6.43H25.24z"/><path style="mix-blend-mode:multiply" opacity=".47" fill="url(#linear-gradient-2)" d="M25.24 102.05h35.65v3.94H25.24z"/><path d="M21.56 108.48H65.2a1.59 1.59 0 011.59 1.59V116H20v-5.88a1.59 1.59 0 011.56-1.64z" fill="#6238e5"/><path d="M21.67 108.48h43.74a1.59 1.59 0 011.59 1.6V116H20.07v-5.88a1.59 1.59 0 011.6-1.64z" style="mix-blend-mode:multiply" opacity=".16" fill="url(#linear-gradient-3)"/><path stroke="#5a00ff" stroke-width="1.92" fill="none" stroke-miterlimit="10" d="M48.81 32.2l6.62-17.03"/><circle class="cls-6" cx="56.81" cy="11.7" r="4.09"/><path d="M50.18 5.85l-3.37-3.49m18.2 8.16l4.72-1.11" stroke-width=".96" fill="none" stroke-miterlimit="10" stroke="#00e5ff"/></g></g></g></svg>